<?xml version="1.0" standalone="no"?>
<!DOCTYPE svg PUBLIC "-//W3C//DTD SVG 1.1//EN" "http://www.w3.org/Graphics/SVG/1.1/DTD/svg11.dtd" >
<svg xmlns="http://www.w3.org/2000/svg" xmlns:xlink="http://www.w3.org/1999/xlink" version="1.1">
<metadata></metadata>
<defs>
<font id="th_k2d_july8bold" horiz-adv-x="0" >
<font-face units-per-em="2048" ascent="1638" descent="-410" />
<missing-glyph horiz-adv-x="819" />
<glyph unicode="A&#x300;" horiz-adv-x="901" d="M47 100l342 861q10 27 60 26q20 0 37.5 -7t23.5 -19l342 -861q12 -33 -13.5 -68.5t-72.5 -54.5l-131 338h-371q-33 -82 -65.5 -170t-65.5 -168q-51 18 -74.5 54.5t-11.5 68.5zM215 1264h72q90 0 114 -39l119 -180q-53 0 -84 7t-51 28zM297 397h307l-155 400z" />
<glyph unicode="A&#x301;" horiz-adv-x="901" d="M47 100l342 861q10 27 60 26q20 0 37.5 -7t23.5 -19l342 -861q12 -33 -13.5 -68.5t-72.5 -54.5l-131 338h-371q-33 -82 -65.5 -170t-65.5 -168q-51 18 -74.5 54.5t-11.5 68.5zM297 397h307l-155 400zM381 1045l119 180q27 39 114 39h72l-168 -184q-23 -20 -53.5 -27.5 t-83.5 -7.5z" />
<glyph unicode="A&#x303;" horiz-adv-x="901" d="M47 100l342 861q10 27 60 26q20 0 37.5 -7t23.5 -19l342 -861q12 -33 -13.5 -68.5t-72.5 -54.5l-131 338h-371q-33 -82 -65.5 -170t-65.5 -168q-51 18 -74.5 54.5t-11.5 68.5zM240 1153q6 41 38 68t85 27q43 0 65.5 -12.5t43.5 -28.5h-5l25 -17l2 -2q12 -10 24.5 -19.5 t20.5 -9.5q14 0 20.5 24t-8.5 54q53 20 84 0t27 -49q-6 -41 -38 -67.5t-85 -26.5q-43 0 -64.5 12t-43.5 29h4l-21 14l-6 4q-12 10 -24.5 19.5t-20.5 9.5q-14 0 -21.5 -24.5t9.5 -53.5q-53 -20 -84 0.5t-27 48.5zM297 397h307l-155 400z" />
<glyph unicode="E&#x300;" horiz-adv-x="991" d="M98 309v359q0 74 36 133t94.5 100t130 63.5t145.5 22.5q66 0 130 -16.5t119.5 -48t95.5 -80.5t56 -115q6 -29 -4 -48.5t-29.5 -31.5t-44 -18t-47.5 -6q2 10 2 22v23q0 49 -21.5 92t-59 75.5t-89 51t-108.5 18.5t-107.5 -18.5t-87.5 -51t-58.5 -75.5t-21.5 -92v-138h404 q0 -82 -98 -81h-306v-140q0 -49 21.5 -93t58.5 -75.5t87 -51t108 -19.5q57 0 108.5 19.5t89 51t59 75.5t21.5 93v22.5t-2 22.5q23 0 46.5 -6t42 -18.5t29.5 -31.5t7 -46q-12 -59 -52 -108.5t-95.5 -84t-121 -53t-132.5 -18.5q-72 0 -143.5 21.5t-130 63.5t-95.5 101t-37 135 zM277 1264h72q90 0 114 -39l119 -180q-53 0 -84 7t-51 28z" />
<glyph unicode="E&#x301;" horiz-adv-x="991" d="M98 309v359q0 74 36 133t94.5 100t130 63.5t145.5 22.5q66 0 130 -16.5t119.5 -48t95.5 -80.5t56 -115q6 -29 -4 -48.5t-29.5 -31.5t-44 -18t-47.5 -6q2 10 2 22v23q0 49 -21.5 92t-59 75.5t-89 51t-108.5 18.5t-107.5 -18.5t-87.5 -51t-58.5 -75.5t-21.5 -92v-138h404 q0 -82 -98 -81h-306v-140q0 -49 21.5 -93t58.5 -75.5t87 -51t108 -19.5q57 0 108.5 19.5t89 51t59 75.5t21.5 93v22.5t-2 22.5q23 0 46.5 -6t42 -18.5t29.5 -31.5t7 -46q-12 -59 -52 -108.5t-95.5 -84t-121 -53t-132.5 -18.5q-72 0 -143.5 21.5t-130 63.5t-95.5 101t-37 135 zM440 1037l119 180q27 39 114 39h72l-168 -184q-23 -20 -53.5 -27.5t-83.5 -7.5z" />
<glyph unicode="I&#x300;" horiz-adv-x="368" d="M-49 1264h72q90 0 114 -39l119 -180q-53 0 -84 7t-51 28zM119 -12v913q0 86 131 86v-913q0 -86 -131 -86z" />
<glyph unicode="I&#x301;" horiz-adv-x="368" d="M113 1045l119 180q27 39 114 39h72l-168 -184q-23 -20 -53.5 -27.5t-83.5 -7.5zM119 -12v913q0 86 131 86v-913q0 -86 -131 -86z" />
<glyph unicode="O&#x300;" horiz-adv-x="1202" d="M80 487q0 104 40 195.5t110.5 159t164.5 106.5t203 39t204 -39t165.5 -106.5t111.5 -158.5t41 -196q0 -104 -41 -195t-111.5 -158.5t-165.5 -106.5t-204 -39t-203 39t-164.5 106.5t-110.5 158.5t-40 195zM209 487q0 -88 30.5 -163.5t83 -132t124 -89t151.5 -32.5 q82 0 152.5 32.5t124 89t84 132t30.5 163.5q0 86 -30.5 163t-84 133.5t-124 89t-152.5 32.5q-80 0 -151.5 -32.5t-124 -89t-83 -133.5t-30.5 -163zM365 1264h72q90 0 114 -39l119 -180q-53 0 -84 7t-51 28z" />
<glyph unicode="O&#x301;" horiz-adv-x="1202" d="M80 487q0 104 40 195.5t110.5 159t164.5 106.5t203 39t204 -39t165.5 -106.5t111.5 -158.5t41 -196q0 -104 -41 -195t-111.5 -158.5t-165.5 -106.5t-204 -39t-203 39t-164.5 106.5t-110.5 158.5t-40 195zM209 487q0 -88 30.5 -163.5t83 -132t124 -89t151.5 -32.5 q82 0 152.5 32.5t124 89t84 132t30.5 163.5q0 86 -30.5 163t-84 133.5t-124 89t-152.5 32.5q-80 0 -151.5 -32.5t-124 -89t-83 -133.5t-30.5 -163zM528 1045l119 180q27 39 114 39h72l-168 -184q-23 -20 -53.5 -27.5t-83.5 -7.5z" />
<glyph unicode="O&#x303;" horiz-adv-x="1202" d="M80 487q0 104 40 195.5t110.5 159t164.5 106.5t203 39t204 -39t165.5 -106.5t111.5 -158.5t41 -196q0 -104 -41 -195t-111.5 -158.5t-165.5 -106.5t-204 -39t-203 39t-164.5 106.5t-110.5 158.5t-40 195zM209 487q0 -88 30.5 -163.5t83 -132t124 -89t151.5 -32.5 q82 0 152.5 32.5t124 89t84 132t30.5 163.5q0 86 -30.5 163t-84 133.5t-124 89t-152.5 32.5q-80 0 -151.5 -32.5t-124 -89t-83 -133.5t-30.5 -163zM389 1153q6 41 38 68t85 27q43 0 65.5 -12.5t43.5 -28.5h-5l25 -17l2 -2q12 -10 24.5 -19.5t20.5 -9.5q14 0 20.5 24t-8.5 54 q53 20 84 0t27 -49q-6 -41 -38 -67.5t-85 -26.5q-43 0 -64.5 12t-43.5 29h4l-21 14l-6 4q-12 10 -24.5 19.5t-20.5 9.5q-14 0 -21.5 -24.5t9.5 -53.5q-53 -20 -84 0.5t-27 48.5z" />
<glyph unicode="U&#x300;" horiz-adv-x="1052" d="M119 309v592q0 86 131 86v-678q0 -49 21.5 -93t58.5 -75.5t87 -51t107 -19.5t107.5 19.5t88.5 51t59.5 75.5t21.5 93v592q0 86 129 86v-678q0 -76 -37 -135t-95.5 -101t-130 -63.5t-143.5 -21.5t-143.5 21.5t-129.5 63.5t-95 101t-37 135zM291 1264h72q90 0 114 -39 l119 -180q-53 0 -84 7t-51 28z" />
<glyph unicode="U&#x301;" horiz-adv-x="1052" d="M119 309v592q0 86 131 86v-678q0 -49 21.5 -93t58.5 -75.5t87 -51t107 -19.5t107.5 19.5t88.5 51t59.5 75.5t21.5 93v592q0 86 129 86v-678q0 -76 -37 -135t-95.5 -101t-130 -63.5t-143.5 -21.5t-143.5 21.5t-129.5 63.5t-95 101t-37 135zM455 1045l119 180q27 39 114 39 h72l-168 -184q-23 -20 -53.5 -27.5t-83.5 -7.5z" />
<glyph unicode="Y&#x301;" horiz-adv-x="860" d="M23 971q41 29 81.5 21.5t63.5 -40.5l260 -360l262 360q25 33 65 40t81 -21l-342 -469v-428q0 -86 -129 -86v514zM358 1045l119 180q27 39 114 39h72l-168 -184q-23 -20 -53.5 -27.5t-83.5 -7.5z" />
<glyph unicode="a&#x300;" horiz-adv-x="798" d="M78 221q0 49 23.5 92t63.5 75t95.5 50.5t116.5 18.5q100 0 178 -45v63q0 31 -14.5 60.5t-38 51t-56 35t-69.5 13.5q-55 0 -108.5 -44t-86.5 -110q-37 29 -51 67t4 62q41 45 105.5 72t136.5 27q53 0 106.5 -15.5t96.5 -46.5t69.5 -74t26.5 -98v-409q0 -78 -121 -78v43 q-37 -20 -82 -31.5t-96 -11.5q-61 0 -116.5 18.5t-95.5 50t-63.5 73.5t-23.5 91zM164 977h72q90 0 114 -39l119 -180q-53 0 -84 7t-51 28zM201 221q0 -63 50 -110.5t126 -47.5q78 0 128 47.5t50 110.5q0 66 -50 114t-128 48q-76 0 -126 -48t-50 -114z" />
<glyph unicode="a&#x301;" horiz-adv-x="798" d="M78 221q0 49 23.5 92t63.5 75t95.5 50.5t116.5 18.5q100 0 178 -45v63q0 31 -14.5 60.5t-38 51t-56 35t-69.5 13.5q-55 0 -108.5 -44t-86.5 -110q-37 29 -51 67t4 62q41 45 105.5 72t136.5 27q53 0 106.5 -15.5t96.5 -46.5t69.5 -74t26.5 -98v-409q0 -78 -121 -78v43 q-37 -20 -82 -31.5t-96 -11.5q-61 0 -116.5 18.5t-95.5 50t-63.5 73.5t-23.5 91zM201 221q0 -63 50 -110.5t126 -47.5q78 0 128 47.5t50 110.5q0 66 -50 114t-128 48q-76 0 -126 -48t-50 -114zM328 758l119 180q27 39 114 39h72l-168 -184q-23 -20 -53.5 -27.5t-83.5 -7.5z " />
<glyph unicode="a&#x303;" horiz-adv-x="798" d="M78 221q0 49 23.5 92t63.5 75t95.5 50.5t116.5 18.5q100 0 178 -45v63q0 31 -14.5 60.5t-38 51t-56 35t-69.5 13.5q-55 0 -108.5 -44t-86.5 -110q-37 29 -51 67t4 62q41 45 105.5 72t136.5 27q53 0 106.5 -15.5t96.5 -46.5t69.5 -74t26.5 -98v-409q0 -78 -121 -78v43 q-37 -20 -82 -31.5t-96 -11.5q-61 0 -116.5 18.5t-95.5 50t-63.5 73.5t-23.5 91zM188 866q6 41 38 68t85 27q43 0 65.5 -12.5t43.5 -28.5h-5l25 -17l2 -2q12 -10 24.5 -19.5t20.5 -9.5q14 0 20.5 24t-8.5 54q53 20 84 0t27 -49q-6 -41 -38 -67.5t-85 -26.5q-43 0 -64.5 12 t-43.5 29h4l-21 14l-6 4q-12 10 -24.5 19.5t-20.5 9.5q-14 0 -21.5 -24.5t9.5 -53.5q-53 -20 -84 0.5t-27 48.5zM201 221q0 -63 50 -110.5t126 -47.5q78 0 128 47.5t50 110.5q0 66 -50 114t-128 48q-76 0 -126 -48t-50 -114z" />
<glyph unicode="e&#x300;" horiz-adv-x="798" d="M98 221v252q0 49 23.5 92t63.5 75t95.5 50.5t116.5 18.5q63 0 117.5 -18.5t94.5 -50.5t63.5 -75t23.5 -92v-74q0 -16 -19.5 -27.5t-41.5 -11.5h-414v-139q0 -63 50.5 -110.5t125.5 -47.5q39 0 72 13.5t56.5 36t36.5 52.5t13 62q16 0 38 -7t38.5 -19.5t23.5 -29.5t-1 -38 q-31 -66 -104.5 -105.5t-172.5 -39.5q-61 0 -116.5 18.5t-95.5 50t-63.5 73.5t-23.5 91zM164 977h72q90 0 114 -39l119 -180q-53 0 -84 7t-51 28zM221 434h354v39q0 66 -50 114t-128 48q-76 0 -126 -48t-50 -114v-39z" />
<glyph unicode="e&#x301;" horiz-adv-x="798" d="M98 221v252q0 49 23.5 92t63.5 75t95.5 50.5t116.5 18.5q63 0 117.5 -18.5t94.5 -50.5t63.5 -75t23.5 -92v-74q0 -16 -19.5 -27.5t-41.5 -11.5h-414v-139q0 -63 50.5 -110.5t125.5 -47.5q39 0 72 13.5t56.5 36t36.5 52.5t13 62q16 0 38 -7t38.5 -19.5t23.5 -29.5t-1 -38 q-31 -66 -104.5 -105.5t-172.5 -39.5q-61 0 -116.5 18.5t-95.5 50t-63.5 73.5t-23.5 91zM221 434h354v39q0 66 -50 114t-128 48q-76 0 -126 -48t-50 -114v-39zM328 758l119 180q27 39 114 39h72l-168 -184q-23 -20 -53.5 -27.5t-83.5 -7.5z" />
<glyph unicode="i&#x300;" horiz-adv-x="360" d="M-53 977h72q90 0 114 -39l119 -180q-53 0 -84 7t-51 28zM119 -12v645q0 76 121 76v-643q0 -78 -121 -78z" />
<glyph unicode="i&#x301;" horiz-adv-x="360" d="M109 758l119 180q27 39 114 39h72l-168 -184q-23 -20 -53.5 -27.5t-83.5 -7.5zM119 -12v645q0 76 121 76v-643q0 -78 -121 -78z" />
<glyph unicode="o&#x300;" horiz-adv-x="921" d="M80 348q0 74 29.5 139.5t81 114.5t120 78t148.5 29t149.5 -29t121.5 -78t82 -114.5t30 -139.5q0 -76 -30 -141.5t-82 -114.5t-121.5 -76.5t-149.5 -27.5t-148.5 27.5t-120 76.5t-81 114.5t-29.5 141.5zM201 348q0 -59 20.5 -111.5t55 -91.5t82 -60.5t100.5 -21.5 t100 21.5t83 60.5t56.5 91.5t20.5 111.5t-20.5 111.5t-56.5 91.5t-83 61.5t-100 22.5t-100.5 -22.5t-82 -61.5t-55 -91.5t-20.5 -111.5zM225 977h72q90 0 114 -39l119 -180q-53 0 -84 7t-51 28z" />
<glyph unicode="o&#x301;" horiz-adv-x="921" d="M80 348q0 74 29.5 139.5t81 114.5t120 78t148.5 29t149.5 -29t121.5 -78t82 -114.5t30 -139.5q0 -76 -30 -141.5t-82 -114.5t-121.5 -76.5t-149.5 -27.5t-148.5 27.5t-120 76.5t-81 114.5t-29.5 141.5zM201 348q0 -59 20.5 -111.5t55 -91.5t82 -60.5t100.5 -21.5 t100 21.5t83 60.5t56.5 91.5t20.5 111.5t-20.5 111.5t-56.5 91.5t-83 61.5t-100 22.5t-100.5 -22.5t-82 -61.5t-55 -91.5t-20.5 -111.5zM389 758l119 180q27 39 114 39h72l-168 -184q-23 -20 -53.5 -27.5t-83.5 -7.5z" />
<glyph unicode="o&#x303;" horiz-adv-x="921" d="M80 348q0 74 29.5 139.5t81 114.5t120 78t148.5 29t149.5 -29t121.5 -78t82 -114.5t30 -139.5q0 -76 -30 -141.5t-82 -114.5t-121.5 -76.5t-149.5 -27.5t-148.5 27.5t-120 76.5t-81 114.5t-29.5 141.5zM201 348q0 -59 20.5 -111.5t55 -91.5t82 -60.5t100.5 -21.5 t100 21.5t83 60.5t56.5 91.5t20.5 111.5t-20.5 111.5t-56.5 91.5t-83 61.5t-100 22.5t-100.5 -22.5t-82 -61.5t-55 -91.5t-20.5 -111.5zM250 866q6 41 38 68t85 27q43 0 65.5 -12.5t43.5 -28.5h-5l25 -17l2 -2q12 -10 24.5 -19.5t20.5 -9.5q14 0 20.5 24t-8.5 54q53 20 84 0 t27 -49q-6 -41 -38 -67.5t-85 -26.5q-43 0 -64.5 12t-43.5 29h4l-21 14l-6 4q-12 10 -24.5 19.5t-20.5 9.5q-14 0 -21.5 -24.5t9.5 -53.5q-53 -20 -84 0.5t-27 48.5z" />
<glyph unicode="u&#x300;" horiz-adv-x="839" d="M119 223v410q0 76 123 76v-486q0 -66 50 -113t126 -47q78 0 128 47.5t50 112.5v410q0 76 121 76v-643q0 -78 -121 -78v43q-37 -20 -82 -31.5t-96 -11.5q-61 0 -116.5 18.5t-95.5 51t-63.5 74.5t-23.5 91zM184 977h72q90 0 114 -39l119 -180q-53 0 -84 7t-51 28z" />
<glyph unicode="u&#x301;" horiz-adv-x="839" d="M119 223v410q0 76 123 76v-486q0 -66 50 -113t126 -47q78 0 128 47.5t50 112.5v410q0 76 121 76v-643q0 -78 -121 -78v43q-37 -20 -82 -31.5t-96 -11.5q-61 0 -116.5 18.5t-95.5 51t-63.5 74.5t-23.5 91zM348 758l119 180q27 39 114 39h72l-168 -184q-23 -20 -53.5 -27.5 t-83.5 -7.5z" />
<glyph unicode="y&#x301;" horiz-adv-x="729" d="M29 -221q25 0 40 1t29 5q115 31 176 168l31 72l-274 671q47 20 83 9t48 -41l200 -504l203 504q10 31 46 42t85 -10l-313 -768q-37 -88 -92.5 -139t-147.5 -74q-104 -25 -114 64zM293 758l119 180q27 39 114 39h72l-168 -184q-23 -20 -53.5 -27.5t-83.5 -7.5z" />
<glyph unicode="I&#x303;" horiz-adv-x="368" d="M-47 1155q8 45 43.5 74t89.5 29q47 0 72.5 -13.5t48.5 -31.5h-5l15 -11h6q18 -16 34.5 -27t26.5 -11q16 0 24.5 25.5t-7.5 60.5q29 10 51 8t37.5 -11.5t23 -23.5t4.5 -29q-6 -43 -40.5 -72.5t-92.5 -29.5q-47 0 -72.5 14.5t-50.5 32.5h5l-19 10q-16 12 -33.5 24.5 t-27.5 12.5q-16 0 -23.5 -25.5t6.5 -58.5q-29 -10 -51 -9t-37.5 10t-24 23.5t-3.5 28.5zM119 -12v913q0 86 131 86v-913q0 -86 -131 -86z" />
<glyph unicode="i&#x303;" horiz-adv-x="360" d="M-51 868q8 45 43.5 74t89.5 29q47 0 72.5 -13.5t48.5 -31.5h-5l15 -11h6q18 -16 34.5 -27t26.5 -11q16 0 24.5 25.5t-7.5 60.5q29 10 51 8t37.5 -11.5t23 -23.5t4.5 -29q-6 -43 -40.5 -72.5t-92.5 -29.5q-47 0 -72.5 14.5t-50.5 32.5h5l-19 10q-16 12 -33.5 24.5 t-27.5 12.5q-16 0 -23.5 -25.5t6.5 -58.5q-29 -10 -51 -9t-37.5 10t-24 23.5t-3.5 28.5zM119 -12v645q0 76 121 76v-643q0 -78 -121 -78z" />
<glyph unicode="U&#x303;" horiz-adv-x="1052" d="M119 309v592q0 86 131 86v-678q0 -49 21.5 -93t58.5 -75.5t87 -51t107 -19.5t107.5 19.5t88.5 51t59.5 75.5t21.5 93v592q0 86 129 86v-678q0 -76 -37 -135t-95.5 -101t-130 -63.5t-143.5 -21.5t-143.5 21.5t-129.5 63.5t-95 101t-37 135zM293 1155q8 45 43.5 74t89.5 29 q47 0 72.5 -13.5t48.5 -31.5h-5l15 -11h6q18 -16 34.5 -27t26.5 -11q16 0 24.5 25.5t-7.5 60.5q29 10 51 8t37.5 -11.5t23 -23.5t4.5 -29q-6 -43 -40.5 -72.5t-92.5 -29.5q-47 0 -72.5 14.5t-50.5 32.5h5l-19 10q-16 12 -33.5 24.5t-27.5 12.5q-16 0 -23.5 -25.5t6.5 -58.5 q-29 -10 -51 -9t-37.5 10t-24 23.5t-3.5 28.5z" />
<glyph unicode="u&#x303;" horiz-adv-x="839" d="M119 223v410q0 76 123 76v-486q0 -66 50 -113t126 -47q78 0 128 47.5t50 112.5v410q0 76 121 76v-643q0 -78 -121 -78v43q-37 -20 -82 -31.5t-96 -11.5q-61 0 -116.5 18.5t-95.5 51t-63.5 74.5t-23.5 91zM187 868q8 45 43.5 74t89.5 29q47 0 72.5 -13.5t48.5 -31.5h-5 l15 -11h6q18 -16 34.5 -27t26.5 -11q16 0 24.5 25.5t-7.5 60.5q29 10 51 8t37.5 -11.5t23 -23.5t4.5 -29q-6 -43 -40.5 -72.5t-92.5 -29.5q-47 0 -72.5 14.5t-50.5 32.5h5l-19 10q-16 12 -33.5 24.5t-27.5 12.5q-16 0 -23.5 -25.5t6.5 -58.5q-29 -10 -51 -9t-37.5 10 t-24 23.5t-3.5 28.5z" />
<glyph unicode="A&#x323;" horiz-adv-x="901" d="M47 100l342 861q10 27 60 26q20 0 37.5 -7t23.5 -19l342 -861q12 -33 -13.5 -68.5t-72.5 -54.5l-131 338h-371q-33 -82 -65.5 -170t-65.5 -168q-51 18 -74.5 54.5t-11.5 68.5zM297 397h307l-155 400zM356 -162q0 29 27 50.5t68 21.5t66.5 -21.5t25.5 -50.5 q0 -31 -25.5 -52.5t-66.5 -21.5t-68 21.5t-27 52.5z" />
<glyph unicode="a&#x323;" horiz-adv-x="798" d="M78 221q0 49 23.5 92t63.5 75t95.5 50.5t116.5 18.5q100 0 178 -45v63q0 31 -14.5 60.5t-38 51t-56 35t-69.5 13.5q-55 0 -108.5 -44t-86.5 -110q-37 29 -51 67t4 62q41 45 105.5 72t136.5 27q53 0 106.5 -15.5t96.5 -46.5t69.5 -74t26.5 -98v-409q0 -78 -121 -78v43 q-37 -20 -82 -31.5t-96 -11.5q-61 0 -116.5 18.5t-95.5 50t-63.5 73.5t-23.5 91zM201 221q0 -63 50 -110.5t126 -47.5q78 0 128 47.5t50 110.5q0 66 -50 114t-128 48q-76 0 -126 -48t-50 -114zM284 -162q0 29 27 50.5t68 21.5t66.5 -21.5t25.5 -50.5q0 -31 -25.5 -52.5 t-66.5 -21.5t-68 21.5t-27 52.5z" />
<glyph unicode="A&#x309;" horiz-adv-x="901" d="M47 100l342 861q10 27 60 26q20 0 37.5 -7t23.5 -19l342 -861q12 -33 -13.5 -68.5t-72.5 -54.5l-131 338h-371q-33 -82 -65.5 -170t-65.5 -168q-51 18 -74.5 54.5t-11.5 68.5zM297 397h307l-155 400zM317 1229q12 35 49 53.5t82 18.5q53 0 96 -30t43 -79 q0 -33 -23.5 -55.5t-43.5 -36.5q-12 -9 -12 -27q0 -27 -31 -30.5t-82 -3.5v32q0 29 17.5 46.5t39.5 33.5q8 6 15.5 15.5t7.5 25.5t-8.5 29.5t-18.5 13.5t-18 -13t-8 -30q0 -18 2 -28q-53 0 -86 15t-21 50z" />
<glyph unicode="a&#x309;" horiz-adv-x="798" d="M78 221q0 49 23.5 92t63.5 75t95.5 50.5t116.5 18.5q100 0 178 -45v63q0 31 -14.5 60.5t-38 51t-56 35t-69.5 13.5q-55 0 -108.5 -44t-86.5 -110q-37 29 -51 67t4 62q41 45 105.5 72t136.5 27q53 0 106.5 -15.5t96.5 -46.5t69.5 -74t26.5 -98v-409q0 -78 -121 -78v43 q-37 -20 -82 -31.5t-96 -11.5q-61 0 -116.5 18.5t-95.5 50t-63.5 73.5t-23.5 91zM201 221q0 -63 50 -110.5t126 -47.5q78 0 128 47.5t50 110.5q0 66 -50 114t-128 48q-76 0 -126 -48t-50 -114zM264 942q12 35 49 53.5t82 18.5q53 0 96 -30t43 -79q0 -33 -23.5 -55.5 t-43.5 -36.5q-12 -9 -12 -27q0 -27 -31 -30.5t-82 -3.5v32q0 29 17.5 46.5t39.5 33.5q8 6 15.5 15.5t7.5 25.5t-8.5 29.5t-18.5 13.5t-18 -13t-8 -30q0 -18 2 -28q-53 0 -86 15t-21 50z" />
<glyph unicode="&#xc2;&#x301;" horiz-adv-x="901" d="M47 100l342 861q10 27 60 26q20 0 37.5 -7t23.5 -19l342 -861q12 -33 -13.5 -68.5t-72.5 -54.5l-131 338h-371q-33 -82 -65.5 -170t-65.5 -168q-51 18 -74.5 54.5t-11.5 68.5zM232 1069l176 185q12 12 41 12t41 -12l178 -185q-31 -25 -70 -24.5t-61 22.5l-88 92l-88 -92 q-23 -23 -61 -22.5t-68 24.5zM297 397h307l-155 400zM514 1229l119 180q27 39 114 39h72l-168 -184q-23 -20 -53.5 -27.5t-83.5 -7.5z" />
<glyph unicode="&#xe2;&#x301;" horiz-adv-x="798" d="M78 221q0 49 23.5 92t63.5 75t95.5 50.5t116.5 18.5q100 0 178 -45v63q0 31 -14.5 60.5t-38 51t-56 35t-69.5 13.5q-55 0 -108.5 -44t-86.5 -110q-37 29 -51 67t4 62q41 45 105.5 72t136.5 27q53 0 106.5 -15.5t96.5 -46.5t69.5 -74t26.5 -98v-409q0 -78 -121 -78v43 q-37 -20 -82 -31.5t-96 -11.5q-61 0 -116.5 18.5t-95.5 50t-63.5 73.5t-23.5 91zM181 782l176 185q12 12 41 12t41 -12l178 -185q-31 -25 -70 -24.5t-61 22.5l-88 92l-88 -92q-23 -23 -61 -22.5t-68 24.5zM201 221q0 -63 50 -110.5t126 -47.5q78 0 128 47.5t50 110.5 q0 66 -50 114t-128 48q-76 0 -126 -48t-50 -114zM477 942l119 180q27 39 114 39h72l-168 -184q-23 -20 -53.5 -27.5t-83.5 -7.5z" />
<glyph unicode="&#xc2;&#x300;" horiz-adv-x="901" d="M47 100l342 861q10 27 60 26q20 0 37.5 -7t23.5 -19l342 -861q12 -33 -13.5 -68.5t-72.5 -54.5l-131 338h-371q-33 -82 -65.5 -170t-65.5 -168q-51 18 -74.5 54.5t-11.5 68.5zM232 1069l176 185q12 12 41 12t41 -12l178 -185q-31 -25 -70 -24.5t-61 22.5l-88 92l-88 -92 q-23 -23 -61 -22.5t-68 24.5zM297 397h307l-155 400zM391 1448h72q90 0 114 -39l119 -180q-53 0 -84 7t-51 28z" />
<glyph unicode="&#xe2;&#x300;" horiz-adv-x="798" d="M78 221q0 49 23.5 92t63.5 75t95.5 50.5t116.5 18.5q100 0 178 -45v63q0 31 -14.5 60.5t-38 51t-56 35t-69.5 13.5q-55 0 -108.5 -44t-86.5 -110q-37 29 -51 67t4 62q41 45 105.5 72t136.5 27q53 0 106.5 -15.5t96.5 -46.5t69.5 -74t26.5 -98v-409q0 -78 -121 -78v43 q-37 -20 -82 -31.5t-96 -11.5q-61 0 -116.5 18.5t-95.5 50t-63.5 73.5t-23.5 91zM181 782l176 185q12 12 41 12t41 -12l178 -185q-31 -25 -70 -24.5t-61 22.5l-88 92l-88 -92q-23 -23 -61 -22.5t-68 24.5zM201 221q0 -63 50 -110.5t126 -47.5q78 0 128 47.5t50 110.5 q0 66 -50 114t-128 48q-76 0 -126 -48t-50 -114zM336 1161h72q90 0 114 -39l119 -180q-53 0 -84 7t-51 28z" />
<glyph unicode="&#xc2;&#x309;" horiz-adv-x="901" d="M47 100l342 861q10 27 60 26q20 0 37.5 -7t23.5 -19l342 -861q12 -33 -13.5 -68.5t-72.5 -54.5l-131 338h-371q-33 -82 -65.5 -170t-65.5 -168q-51 18 -74.5 54.5t-11.5 68.5zM232 1069l176 185q12 12 41 12t41 -12l178 -185q-31 -25 -70 -24.5t-61 22.5l-88 92l-88 -92 q-23 -23 -61 -22.5t-68 24.5zM297 397h307l-155 400zM481 1413q12 35 49 53.5t82 18.5q53 0 96 -30t43 -79q0 -33 -23.5 -55.5t-43.5 -36.5q-12 -9 -12 -27q0 -27 -31 -30.5t-82 -3.5v32q0 29 17.5 46.5t39.5 33.5q8 6 15.5 15.5t7.5 25.5t-8.5 29.5t-18.5 13.5t-18 -13 t-8 -30q0 -18 2 -28q-53 0 -86 15t-21 50z" />
<glyph unicode="&#xe2;&#x309;" horiz-adv-x="798" d="M78 221q0 49 23.5 92t63.5 75t95.5 50.5t116.5 18.5q100 0 178 -45v63q0 31 -14.5 60.5t-38 51t-56 35t-69.5 13.5q-55 0 -108.5 -44t-86.5 -110q-37 29 -51 67t4 62q41 45 105.5 72t136.5 27q53 0 106.5 -15.5t96.5 -46.5t69.5 -74t26.5 -98v-409q0 -78 -121 -78v43 q-37 -20 -82 -31.5t-96 -11.5q-61 0 -116.5 18.5t-95.5 50t-63.5 73.5t-23.5 91zM181 782l176 185q12 12 41 12t41 -12l178 -185q-31 -25 -70 -24.5t-61 22.5l-88 92l-88 -92q-23 -23 -61 -22.5t-68 24.5zM201 221q0 -63 50 -110.5t126 -47.5q78 0 128 47.5t50 110.5 q0 66 -50 114t-128 48q-76 0 -126 -48t-50 -114zM430 1126q12 35 49 53.5t82 18.5q53 0 96 -30t43 -79q0 -33 -23.5 -55.5t-43.5 -36.5q-12 -9 -12 -27q0 -27 -31 -30.5t-82 -3.5v32q0 29 17.5 46.5t39.5 33.5q8 6 15.5 15.5t7.5 25.5t-8.5 29.5t-18.5 13.5t-18 -13t-8 -30 q0 -18 2 -28q-53 0 -86 15t-21 50z" />
<glyph unicode="&#xc2;&#x303;" horiz-adv-x="901" d="M47 100l342 861q10 27 60 26q20 0 37.5 -7t23.5 -19l342 -861q12 -33 -13.5 -68.5t-72.5 -54.5l-131 338h-371q-33 -82 -65.5 -170t-65.5 -168q-51 18 -74.5 54.5t-11.5 68.5zM232 1069l176 185q12 12 41 12t41 -12l178 -185q-31 -25 -70 -24.5t-61 22.5l-88 92l-88 -92 q-23 -23 -61 -22.5t-68 24.5zM240 1378q6 41 38 68t85 27q43 0 65.5 -12.5t43.5 -28.5h-5l25 -17l2 -2q12 -10 24.5 -19.5t20.5 -9.5q14 0 20.5 24t-8.5 54q53 20 84 0t27 -49q-6 -41 -38 -67.5t-85 -26.5q-43 0 -64.5 12t-43.5 29h4l-21 14l-6 4q-12 10 -24.5 19.5 t-20.5 9.5q-14 0 -21.5 -24.5t9.5 -53.5q-53 -20 -84 0.5t-27 48.5zM297 397h307l-155 400z" />
<glyph unicode="&#xe2;&#x303;" horiz-adv-x="798" d="M78 221q0 49 23.5 92t63.5 75t95.5 50.5t116.5 18.5q100 0 178 -45v63q0 31 -14.5 60.5t-38 51t-56 35t-69.5 13.5q-55 0 -108.5 -44t-86.5 -110q-37 29 -51 67t4 62q41 45 105.5 72t136.5 27q53 0 106.5 -15.5t96.5 -46.5t69.5 -74t26.5 -98v-409q0 -78 -121 -78v43 q-37 -20 -82 -31.5t-96 -11.5q-61 0 -116.5 18.5t-95.5 50t-63.5 73.5t-23.5 91zM181 782l176 185q12 12 41 12t41 -12l178 -185q-31 -25 -70 -24.5t-61 22.5l-88 92l-88 -92q-23 -23 -61 -22.5t-68 24.5zM188 1091q6 41 38 68t85 27q43 0 65.5 -12.5t43.5 -28.5h-5l25 -17 l2 -2q12 -10 24.5 -19.5t20.5 -9.5q14 0 20.5 24t-8.5 54q53 20 84 0t27 -49q-6 -41 -38 -67.5t-85 -26.5q-43 0 -64.5 12t-43.5 29h4l-21 14l-6 4q-12 10 -24.5 19.5t-20.5 9.5q-14 0 -21.5 -24.5t9.5 -53.5q-53 -20 -84 0.5t-27 48.5zM201 221q0 -63 50 -110.5t126 -47.5 q78 0 128 47.5t50 110.5q0 66 -50 114t-128 48q-76 0 -126 -48t-50 -114z" />
<glyph unicode="&#xc2;&#x323;" horiz-adv-x="901" d="M47 100l342 861q10 27 60 26q20 0 37.5 -7t23.5 -19l342 -861q12 -33 -13.5 -68.5t-72.5 -54.5l-131 338h-371q-33 -82 -65.5 -170t-65.5 -168q-51 18 -74.5 54.5t-11.5 68.5zM232 1069l176 185q12 12 41 12t41 -12l178 -185q-31 -25 -70 -24.5t-61 22.5l-88 92l-88 -92 q-23 -23 -61 -22.5t-68 24.5zM297 397h307l-155 400zM356 -162q0 29 27 50.5t68 21.5t66.5 -21.5t25.5 -50.5q0 -31 -25.5 -52.5t-66.5 -21.5t-68 21.5t-27 52.5z" />
<glyph unicode="&#xe2;&#x323;" horiz-adv-x="798" d="M78 221q0 49 23.5 92t63.5 75t95.5 50.5t116.5 18.5q100 0 178 -45v63q0 31 -14.5 60.5t-38 51t-56 35t-69.5 13.5q-55 0 -108.5 -44t-86.5 -110q-37 29 -51 67t4 62q41 45 105.5 72t136.5 27q53 0 106.5 -15.5t96.5 -46.5t69.5 -74t26.5 -98v-409q0 -78 -121 -78v43 q-37 -20 -82 -31.5t-96 -11.5q-61 0 -116.5 18.5t-95.5 50t-63.5 73.5t-23.5 91zM181 782l176 185q12 12 41 12t41 -12l178 -185q-31 -25 -70 -24.5t-61 22.5l-88 92l-88 -92q-23 -23 -61 -22.5t-68 24.5zM201 221q0 -63 50 -110.5t126 -47.5q78 0 128 47.5t50 110.5 q0 66 -50 114t-128 48q-76 0 -126 -48t-50 -114zM284 -162q0 29 27 50.5t68 21.5t66.5 -21.5t25.5 -50.5q0 -31 -25.5 -52.5t-66.5 -21.5t-68 21.5t-27 52.5z" />
<glyph unicode="&#x102;&#x301;" horiz-adv-x="901" d="M47 100l342 861q10 27 60 26q20 0 37.5 -7t23.5 -19l342 -861q12 -33 -13.5 -68.5t-72.5 -54.5l-131 338h-371q-33 -82 -65.5 -170t-65.5 -168q-51 18 -74.5 54.5t-11.5 68.5zM205 1217q-2 23 33 39t84 16q0 -66 35.5 -107.5t91.5 -41.5q57 0 93 42t36 107 q49 0 82.5 -16.5t31.5 -38.5q-2 -41 -25.5 -73t-59 -54.5t-78.5 -33.5t-80 -11t-79 11t-78 33.5t-60.5 54.5t-26.5 73zM297 397h307l-155 400zM381 1250l119 180q27 39 114 39h72l-168 -184q-23 -20 -53.5 -27.5t-83.5 -7.5z" />
<glyph unicode="&#x103;&#x301;" horiz-adv-x="798" d="M78 221q0 49 23.5 92t63.5 75t95.5 50.5t116.5 18.5q100 0 178 -45v63q0 31 -14.5 60.5t-38 51t-56 35t-69.5 13.5q-55 0 -108.5 -44t-86.5 -110q-37 29 -51 67t4 62q41 45 105.5 72t136.5 27q53 0 106.5 -15.5t96.5 -46.5t69.5 -74t26.5 -98v-409q0 -78 -121 -78v43 q-37 -20 -82 -31.5t-96 -11.5q-61 0 -116.5 18.5t-95.5 50t-63.5 73.5t-23.5 91zM154 930q-2 23 33 39t84 16q0 -66 35.5 -107.5t91.5 -41.5q57 0 93 42t36 107q49 0 82.5 -16.5t31.5 -38.5q-2 -41 -25.5 -73t-59 -54.5t-78.5 -33.5t-80 -11t-79 11t-78 33.5t-60.5 54.5 t-26.5 73zM201 221q0 -63 50 -110.5t126 -47.5q78 0 128 47.5t50 110.5q0 66 -50 114t-128 48q-76 0 -126 -48t-50 -114zM332 963l119 180q27 39 114 39h72l-168 -184q-23 -20 -53.5 -27.5t-83.5 -7.5z" />
<glyph unicode="&#x102;&#x300;" horiz-adv-x="901" d="M47 100l342 861q10 27 60 26q20 0 37.5 -7t23.5 -19l342 -861q12 -33 -13.5 -68.5t-72.5 -54.5l-131 338h-371q-33 -82 -65.5 -170t-65.5 -168q-51 18 -74.5 54.5t-11.5 68.5zM205 1217q-2 23 33 39t84 16q0 -66 35.5 -107.5t91.5 -41.5q57 0 93 42t36 107 q49 0 82.5 -16.5t31.5 -38.5q-2 -41 -25.5 -73t-59 -54.5t-78.5 -33.5t-80 -11t-79 11t-78 33.5t-60.5 54.5t-26.5 73zM215 1469h72q90 0 114 -39l119 -180q-53 0 -84 7t-51 28zM297 397h307l-155 400z" />
<glyph unicode="&#x103;&#x300;" horiz-adv-x="798" d="M78 221q0 49 23.5 92t63.5 75t95.5 50.5t116.5 18.5q100 0 178 -45v63q0 31 -14.5 60.5t-38 51t-56 35t-69.5 13.5q-55 0 -108.5 -44t-86.5 -110q-37 29 -51 67t4 62q41 45 105.5 72t136.5 27q53 0 106.5 -15.5t96.5 -46.5t69.5 -74t26.5 -98v-409q0 -78 -121 -78v43 q-37 -20 -82 -31.5t-96 -11.5q-61 0 -116.5 18.5t-95.5 50t-63.5 73.5t-23.5 91zM154 930q-2 23 33 39t84 16q0 -66 35.5 -107.5t91.5 -41.5q57 0 93 42t36 107q49 0 82.5 -16.5t31.5 -38.5q-2 -41 -25.5 -73t-59 -54.5t-78.5 -33.5t-80 -11t-79 11t-78 33.5t-60.5 54.5 t-26.5 73zM164 1182h72q90 0 114 -39l119 -180q-53 0 -84 7t-51 28zM201 221q0 -63 50 -110.5t126 -47.5q78 0 128 47.5t50 110.5q0 66 -50 114t-128 48q-76 0 -126 -48t-50 -114z" />
<glyph unicode="&#x102;&#x309;" horiz-adv-x="901" d="M47 100l342 861q10 27 60 26q20 0 37.5 -7t23.5 -19l342 -861q12 -33 -13.5 -68.5t-72.5 -54.5l-131 338h-371q-33 -82 -65.5 -170t-65.5 -168q-51 18 -74.5 54.5t-11.5 68.5zM205 1217q-2 23 33 39t84 16q0 -66 35.5 -107.5t91.5 -41.5q57 0 93 42t36 107 q49 0 82.5 -16.5t31.5 -38.5q-2 -41 -25.5 -73t-59 -54.5t-78.5 -33.5t-80 -11t-79 11t-78 33.5t-60.5 54.5t-26.5 73zM297 397h307l-155 400zM317 1434q12 35 49 53.5t82 18.5q53 0 96 -30t43 -79q0 -33 -23.5 -55.5t-43.5 -36.5q-12 -9 -12 -27q0 -27 -31 -30.5t-82 -3.5 v32q0 29 17.5 46.5t39.5 33.5q8 6 15.5 15.5t7.5 25.5t-8.5 29.5t-18.5 13.5t-18 -13t-8 -30q0 -18 2 -28q-53 0 -86 15t-21 50z" />
<glyph unicode="&#x103;&#x309;" horiz-adv-x="798" d="M78 221q0 49 23.5 92t63.5 75t95.5 50.5t116.5 18.5q100 0 178 -45v63q0 31 -14.5 60.5t-38 51t-56 35t-69.5 13.5q-55 0 -108.5 -44t-86.5 -110q-37 29 -51 67t4 62q41 45 105.5 72t136.5 27q53 0 106.5 -15.5t96.5 -46.5t69.5 -74t26.5 -98v-409q0 -78 -121 -78v43 q-37 -20 -82 -31.5t-96 -11.5q-61 0 -116.5 18.5t-95.5 50t-63.5 73.5t-23.5 91zM154 930q-2 23 33 39t84 16q0 -66 35.5 -107.5t91.5 -41.5q57 0 93 42t36 107q49 0 82.5 -16.5t31.5 -38.5q-2 -41 -25.5 -73t-59 -54.5t-78.5 -33.5t-80 -11t-79 11t-78 33.5t-60.5 54.5 t-26.5 73zM201 221q0 -63 50 -110.5t126 -47.5q78 0 128 47.5t50 110.5q0 66 -50 114t-128 48q-76 0 -126 -48t-50 -114zM264 1147q12 35 49 53.5t82 18.5q53 0 96 -30t43 -79q0 -33 -23.5 -55.5t-43.5 -36.5q-12 -9 -12 -27q0 -27 -31 -30.5t-82 -3.5v32q0 29 17.5 46.5 t39.5 33.5q8 6 15.5 15.5t7.5 25.5t-8.5 29.5t-18.5 13.5t-18 -13t-8 -30q0 -18 2 -28q-53 0 -86 15t-21 50z" />
<glyph unicode="&#x102;&#x303;" horiz-adv-x="901" d="M47 100l342 861q10 27 60 26q20 0 37.5 -7t23.5 -19l342 -861q12 -33 -13.5 -68.5t-72.5 -54.5l-131 338h-371q-33 -82 -65.5 -170t-65.5 -168q-51 18 -74.5 54.5t-11.5 68.5zM205 1217q-2 23 33 39t84 16q0 -66 35.5 -107.5t91.5 -41.5q57 0 93 42t36 107 q49 0 82.5 -16.5t31.5 -38.5q-2 -41 -25.5 -73t-59 -54.5t-78.5 -33.5t-80 -11t-79 11t-78 33.5t-60.5 54.5t-26.5 73zM240 1358q6 41 38 68t85 27q43 0 65.5 -12.5t43.5 -28.5h-5l25 -17l2 -2q12 -10 24.5 -19.5t20.5 -9.5q14 0 20.5 24t-8.5 54q53 20 84 0t27 -49 q-6 -41 -38 -67.5t-85 -26.5q-43 0 -64.5 12t-43.5 29h4l-21 14l-6 4q-12 10 -24.5 19.5t-20.5 9.5q-14 0 -21.5 -24.5t9.5 -53.5q-53 -20 -84 0.5t-27 48.5zM297 397h307l-155 400z" />
<glyph unicode="&#x103;&#x303;" horiz-adv-x="798" d="M78 221q0 49 23.5 92t63.5 75t95.5 50.5t116.5 18.5q100 0 178 -45v63q0 31 -14.5 60.5t-38 51t-56 35t-69.5 13.5q-55 0 -108.5 -44t-86.5 -110q-37 29 -51 67t4 62q41 45 105.5 72t136.5 27q53 0 106.5 -15.5t96.5 -46.5t69.5 -74t26.5 -98v-409q0 -78 -121 -78v43 q-37 -20 -82 -31.5t-96 -11.5q-61 0 -116.5 18.5t-95.5 50t-63.5 73.5t-23.5 91zM154 930q-2 23 33 39t84 16q0 -66 35.5 -107.5t91.5 -41.5q57 0 93 42t36 107q49 0 82.5 -16.5t31.5 -38.5q-2 -41 -25.5 -73t-59 -54.5t-78.5 -33.5t-80 -11t-79 11t-78 33.5t-60.5 54.5 t-26.5 73zM188 1071q6 41 38 68t85 27q43 0 65.5 -12.5t43.5 -28.5h-5l25 -17l2 -2q12 -10 24.5 -19.5t20.5 -9.5q14 0 20.5 24t-8.5 54q53 20 84 0t27 -49q-6 -41 -38 -67.5t-85 -26.5q-43 0 -64.5 12t-43.5 29h4l-21 14l-6 4q-12 10 -24.5 19.5t-20.5 9.5 q-14 0 -21.5 -24.5t9.5 -53.5q-53 -20 -84 0.5t-27 48.5zM201 221q0 -63 50 -110.5t126 -47.5q78 0 128 47.5t50 110.5q0 66 -50 114t-128 48q-76 0 -126 -48t-50 -114z" />
<glyph unicode="&#x102;&#x323;" horiz-adv-x="901" d="M47 100l342 861q10 27 60 26q20 0 37.5 -7t23.5 -19l342 -861q12 -33 -13.5 -68.5t-72.5 -54.5l-131 338h-371q-33 -82 -65.5 -170t-65.5 -168q-51 18 -74.5 54.5t-11.5 68.5zM205 1217q-2 23 33 39t84 16q0 -66 35.5 -107.5t91.5 -41.5q57 0 93 42t36 107 q49 0 82.5 -16.5t31.5 -38.5q-2 -41 -25.5 -73t-59 -54.5t-78.5 -33.5t-80 -11t-79 11t-78 33.5t-60.5 54.5t-26.5 73zM297 397h307l-155 400zM356 -162q0 29 27 50.5t68 21.5t66.5 -21.5t25.5 -50.5q0 -31 -25.5 -52.5t-66.5 -21.5t-68 21.5t-27 52.5z" />
<glyph unicode="&#x103;&#x323;" horiz-adv-x="798" d="M78 221q0 49 23.5 92t63.5 75t95.5 50.5t116.5 18.5q100 0 178 -45v63q0 31 -14.5 60.5t-38 51t-56 35t-69.5 13.5q-55 0 -108.5 -44t-86.5 -110q-37 29 -51 67t4 62q41 45 105.5 72t136.5 27q53 0 106.5 -15.5t96.5 -46.5t69.5 -74t26.5 -98v-409q0 -78 -121 -78v43 q-37 -20 -82 -31.5t-96 -11.5q-61 0 -116.5 18.5t-95.5 50t-63.5 73.5t-23.5 91zM154 930q-2 23 33 39t84 16q0 -66 35.5 -107.5t91.5 -41.5q57 0 93 42t36 107q49 0 82.5 -16.5t31.5 -38.5q-2 -41 -25.5 -73t-59 -54.5t-78.5 -33.5t-80 -11t-79 11t-78 33.5t-60.5 54.5 t-26.5 73zM201 221q0 -63 50 -110.5t126 -47.5q78 0 128 47.5t50 110.5q0 66 -50 114t-128 48q-76 0 -126 -48t-50 -114zM284 -162q0 29 27 50.5t68 21.5t66.5 -21.5t25.5 -50.5q0 -31 -25.5 -52.5t-66.5 -21.5t-68 21.5t-27 52.5z" />
<glyph unicode="E&#x323;" horiz-adv-x="991" d="M98 309v359q0 74 36 133t94.5 100t130 63.5t145.5 22.5q66 0 130 -16.5t119.5 -48t95.5 -80.5t56 -115q6 -29 -4 -48.5t-29.5 -31.5t-44 -18t-47.5 -6q2 10 2 22v23q0 49 -21.5 92t-59 75.5t-89 51t-108.5 18.5t-107.5 -18.5t-87.5 -51t-58.5 -75.5t-21.5 -92v-138h404 q0 -82 -98 -81h-306v-140q0 -49 21.5 -93t58.5 -75.5t87 -51t108 -19.5q57 0 108.5 19.5t89 51t59 75.5t21.5 93v22.5t-2 22.5q23 0 46.5 -6t42 -18.5t29.5 -31.5t7 -46q-12 -59 -52 -108.5t-95.5 -84t-121 -53t-132.5 -18.5q-72 0 -143.5 21.5t-130 63.5t-95.5 101t-37 135 zM417 -162q0 29 27 50.5t68 21.5t66.5 -21.5t25.5 -50.5q0 -31 -25.5 -52.5t-66.5 -21.5t-68 21.5t-27 52.5z" />
<glyph unicode="e&#x323;" horiz-adv-x="798" d="M98 221v252q0 49 23.5 92t63.5 75t95.5 50.5t116.5 18.5q63 0 117.5 -18.5t94.5 -50.5t63.5 -75t23.5 -92v-74q0 -16 -19.5 -27.5t-41.5 -11.5h-414v-139q0 -63 50.5 -110.5t125.5 -47.5q39 0 72 13.5t56.5 36t36.5 52.5t13 62q16 0 38 -7t38.5 -19.5t23.5 -29.5t-1 -38 q-31 -66 -104.5 -105.5t-172.5 -39.5q-61 0 -116.5 18.5t-95.5 50t-63.5 73.5t-23.5 91zM221 434h354v39q0 66 -50 114t-128 48q-76 0 -126 -48t-50 -114v-39zM305 -162q0 29 27 50.5t68 21.5t66.5 -21.5t25.5 -50.5q0 -31 -25.5 -52.5t-66.5 -21.5t-68 21.5t-27 52.5z" />
<glyph unicode="E&#x309;" horiz-adv-x="991" d="M98 309v359q0 74 36 133t94.5 100t130 63.5t145.5 22.5q66 0 130 -16.5t119.5 -48t95.5 -80.5t56 -115q6 -29 -4 -48.5t-29.5 -31.5t-44 -18t-47.5 -6q2 10 2 22v23q0 49 -21.5 92t-59 75.5t-89 51t-108.5 18.5t-107.5 -18.5t-87.5 -51t-58.5 -75.5t-21.5 -92v-138h404 q0 -82 -98 -81h-306v-140q0 -49 21.5 -93t58.5 -75.5t87 -51t108 -19.5q57 0 108.5 19.5t89 51t59 75.5t21.5 93v22.5t-2 22.5q23 0 46.5 -6t42 -18.5t29.5 -31.5t7 -46q-12 -59 -52 -108.5t-95.5 -84t-121 -53t-132.5 -18.5q-72 0 -143.5 21.5t-130 63.5t-95.5 101t-37 135 zM379 1229q12 35 49 53.5t82 18.5q53 0 96 -30t43 -79q0 -33 -23.5 -55.5t-43.5 -36.5q-12 -9 -12 -27q0 -27 -31 -30.5t-82 -3.5v32q0 29 17.5 46.5t39.5 33.5q8 6 15.5 15.5t7.5 25.5t-8.5 29.5t-18.5 13.5t-18 -13t-8 -30q0 -18 2 -28q-53 0 -86 15t-21 50z" />
<glyph unicode="e&#x309;" horiz-adv-x="798" d="M98 221v252q0 49 23.5 92t63.5 75t95.5 50.5t116.5 18.5q63 0 117.5 -18.5t94.5 -50.5t63.5 -75t23.5 -92v-74q0 -16 -19.5 -27.5t-41.5 -11.5h-414v-139q0 -63 50.5 -110.5t125.5 -47.5q39 0 72 13.5t56.5 36t36.5 52.5t13 62q16 0 38 -7t38.5 -19.5t23.5 -29.5t-1 -38 q-31 -66 -104.5 -105.5t-172.5 -39.5q-61 0 -116.5 18.5t-95.5 50t-63.5 73.5t-23.5 91zM221 434h354v39q0 66 -50 114t-128 48q-76 0 -126 -48t-50 -114v-39zM266 942q12 35 49 53.5t82 18.5q53 0 96 -30t43 -79q0 -33 -23.5 -55.5t-43.5 -36.5q-12 -9 -12 -27 q0 -27 -31 -30.5t-82 -3.5v32q0 29 17.5 46.5t39.5 33.5q8 6 15.5 15.5t7.5 25.5t-8.5 29.5t-18.5 13.5t-18 -13t-8 -30q0 -18 2 -28q-53 0 -86 15t-21 50z" />
<glyph unicode="E&#x303;" horiz-adv-x="991" d="M98 309v359q0 74 36 133t94.5 100t130 63.5t145.5 22.5q66 0 130 -16.5t119.5 -48t95.5 -80.5t56 -115q6 -29 -4 -48.5t-29.5 -31.5t-44 -18t-47.5 -6q2 10 2 22v23q0 49 -21.5 92t-59 75.5t-89 51t-108.5 18.5t-107.5 -18.5t-87.5 -51t-58.5 -75.5t-21.5 -92v-138h404 q0 -82 -98 -81h-306v-140q0 -49 21.5 -93t58.5 -75.5t87 -51t108 -19.5q57 0 108.5 19.5t89 51t59 75.5t21.5 93v22.5t-2 22.5q23 0 46.5 -6t42 -18.5t29.5 -31.5t7 -46q-12 -59 -52 -108.5t-95.5 -84t-121 -53t-132.5 -18.5q-72 0 -143.5 21.5t-130 63.5t-95.5 101t-37 135 zM301 1153q6 41 38 68t85 27q43 0 65.5 -12.5t43.5 -28.5h-5l25 -17l2 -2q12 -10 24.5 -19.5t20.5 -9.5q14 0 20.5 24t-8.5 54q53 20 84 0t27 -49q-6 -41 -38 -67.5t-85 -26.5q-43 0 -64.5 12t-43.5 29h4l-21 14l-6 4q-12 10 -24.5 19.5t-20.5 9.5q-14 0 -21.5 -24.5 t9.5 -53.5q-53 -20 -84 0.5t-27 48.5z" />
<glyph unicode="e&#x303;" horiz-adv-x="798" d="M98 221v252q0 49 23.5 92t63.5 75t95.5 50.5t116.5 18.5q63 0 117.5 -18.5t94.5 -50.5t63.5 -75t23.5 -92v-74q0 -16 -19.5 -27.5t-41.5 -11.5h-414v-139q0 -63 50.5 -110.5t125.5 -47.5q39 0 72 13.5t56.5 36t36.5 52.5t13 62q16 0 38 -7t38.5 -19.5t23.5 -29.5t-1 -38 q-31 -66 -104.5 -105.5t-172.5 -39.5q-61 0 -116.5 18.5t-95.5 50t-63.5 73.5t-23.5 91zM188 866q6 41 38 68t85 27q43 0 65.5 -12.5t43.5 -28.5h-5l25 -17l2 -2q12 -10 24.5 -19.5t20.5 -9.5q14 0 20.5 24t-8.5 54q53 20 84 0t27 -49q-6 -41 -38 -67.5t-85 -26.5 q-43 0 -64.5 12t-43.5 29h4l-21 14l-6 4q-12 10 -24.5 19.5t-20.5 9.5q-14 0 -21.5 -24.5t9.5 -53.5q-53 -20 -84 0.5t-27 48.5zM221 434h354v39q0 66 -50 114t-128 48q-76 0 -126 -48t-50 -114v-39z" />
<glyph unicode="&#xca;&#x301;" horiz-adv-x="991" d="M98 309v359q0 74 36 133t94.5 100t130 63.5t145.5 22.5q66 0 130 -16.5t119.5 -48t95.5 -80.5t56 -115q6 -29 -4 -48.5t-29.5 -31.5t-44 -18t-47.5 -6q2 10 2 22v23q0 49 -21.5 92t-59 75.5t-89 51t-108.5 18.5t-107.5 -18.5t-87.5 -51t-58.5 -75.5t-21.5 -92v-138h404 q0 -82 -98 -81h-306v-140q0 -49 21.5 -93t58.5 -75.5t87 -51t108 -19.5q57 0 108.5 19.5t89 51t59 75.5t21.5 93v22.5t-2 22.5q23 0 46.5 -6t42 -18.5t29.5 -31.5t7 -46q-12 -59 -52 -108.5t-95.5 -84t-121 -53t-132.5 -18.5q-72 0 -143.5 21.5t-130 63.5t-95.5 101t-37 135 zM293 1069l176 185q12 12 41 12t41 -12l178 -185q-31 -25 -70 -24.5t-61 22.5l-88 92l-88 -92q-23 -23 -61 -22.5t-68 24.5zM604 1229l119 180q27 39 114 39h72l-168 -184q-23 -20 -53.5 -27.5t-83.5 -7.5z" />
<glyph unicode="&#xea;&#x301;" horiz-adv-x="798" d="M98 221v252q0 49 23.5 92t63.5 75t95.5 50.5t116.5 18.5q63 0 117.5 -18.5t94.5 -50.5t63.5 -75t23.5 -92v-74q0 -16 -19.5 -27.5t-41.5 -11.5h-414v-139q0 -63 50.5 -110.5t125.5 -47.5q39 0 72 13.5t56.5 36t36.5 52.5t13 62q16 0 38 -7t38.5 -19.5t23.5 -29.5t-1 -38 q-31 -66 -104.5 -105.5t-172.5 -39.5q-61 0 -116.5 18.5t-95.5 50t-63.5 73.5t-23.5 91zM181 782l176 185q12 12 41 12t41 -12l178 -185q-31 -25 -70 -24.5t-61 22.5l-88 92l-88 -92q-23 -23 -61 -22.5t-68 24.5zM221 434h354v39q0 66 -50 114t-128 48q-76 0 -126 -48 t-50 -114v-39zM492 942l119 180q27 39 114 39h72l-168 -184q-23 -20 -53.5 -27.5t-83.5 -7.5z" />
<glyph unicode="&#xca;&#x300;" horiz-adv-x="991" d="M98 309v359q0 74 36 133t94.5 100t130 63.5t145.5 22.5q66 0 130 -16.5t119.5 -48t95.5 -80.5t56 -115q6 -29 -4 -48.5t-29.5 -31.5t-44 -18t-47.5 -6q2 10 2 22v23q0 49 -21.5 92t-59 75.5t-89 51t-108.5 18.5t-107.5 -18.5t-87.5 -51t-58.5 -75.5t-21.5 -92v-138h404 q0 -82 -98 -81h-306v-140q0 -49 21.5 -93t58.5 -75.5t87 -51t108 -19.5q57 0 108.5 19.5t89 51t59 75.5t21.5 93v22.5t-2 22.5q23 0 46.5 -6t42 -18.5t29.5 -31.5t7 -46q-12 -59 -52 -108.5t-95.5 -84t-121 -53t-132.5 -18.5q-72 0 -143.5 21.5t-130 63.5t-95.5 101t-37 135 zM293 1069l176 185q12 12 41 12t41 -12l178 -185q-31 -25 -70 -24.5t-61 22.5l-88 92l-88 -92q-23 -23 -61 -22.5t-68 24.5zM461 1448h72q90 0 114 -39l119 -180q-53 0 -84 7t-51 28z" />
<glyph unicode="&#xea;&#x300;" horiz-adv-x="798" d="M98 221v252q0 49 23.5 92t63.5 75t95.5 50.5t116.5 18.5q63 0 117.5 -18.5t94.5 -50.5t63.5 -75t23.5 -92v-74q0 -16 -19.5 -27.5t-41.5 -11.5h-414v-139q0 -63 50.5 -110.5t125.5 -47.5q39 0 72 13.5t56.5 36t36.5 52.5t13 62q16 0 38 -7t38.5 -19.5t23.5 -29.5t-1 -38 q-31 -66 -104.5 -105.5t-172.5 -39.5q-61 0 -116.5 18.5t-95.5 50t-63.5 73.5t-23.5 91zM181 782l176 185q12 12 41 12t41 -12l178 -185q-31 -25 -70 -24.5t-61 22.5l-88 92l-88 -92q-23 -23 -61 -22.5t-68 24.5zM221 434h354v39q0 66 -50 114t-128 48q-76 0 -126 -48 t-50 -114v-39zM348 1161h72q90 0 114 -39l119 -180q-53 0 -84 7t-51 28z" />
<glyph unicode="&#xca;&#x309;" horiz-adv-x="991" d="M90 309v359q0 74 36 133t94.5 100t130 63.5t145.5 22.5q66 0 130 -16.5t119.5 -48t95.5 -80.5t56 -115q6 -29 -4 -48.5t-29.5 -31.5t-44 -18t-47.5 -6q2 10 2 22v23q0 49 -21.5 92t-59 75.5t-89 51t-108.5 18.5t-107.5 -18.5t-87.5 -51t-58.5 -75.5t-21.5 -92v-138h404 q0 -82 -98 -81h-306v-140q0 -49 21.5 -93t58.5 -75.5t87 -51t108 -19.5q57 0 108.5 19.5t89 51t59 75.5t21.5 93v22.5t-2 22.5q23 0 46.5 -6t42 -18.5t29.5 -31.5t7 -46q-12 -59 -52 -108.5t-95.5 -84t-121 -53t-132.5 -18.5q-72 0 -143.5 21.5t-130 63.5t-95.5 101t-37 135 zM293 1069l176 185q12 12 41 12t41 -12l178 -185q-31 -25 -70 -24.5t-61 22.5l-88 92l-88 -92q-23 -23 -61 -22.5t-68 24.5zM563 1413q12 35 49 53.5t82 18.5q53 0 96 -30t43 -79q0 -33 -23.5 -55.5t-43.5 -36.5q-12 -9 -12 -27q0 -27 -31 -30.5t-82 -3.5v32q0 29 17.5 46.5 t39.5 33.5q8 6 15.5 15.5t7.5 25.5t-8.5 29.5t-18.5 13.5t-18 -13t-8 -30q0 -18 2 -28q-53 0 -86 15t-21 50z" />
<glyph unicode="&#xea;&#x309;" horiz-adv-x="798" d="M98 221v252q0 49 23.5 92t63.5 75t95.5 50.5t116.5 18.5q63 0 117.5 -18.5t94.5 -50.5t63.5 -75t23.5 -92v-74q0 -16 -19.5 -27.5t-41.5 -11.5h-414v-139q0 -63 50.5 -110.5t125.5 -47.5q39 0 72 13.5t56.5 36t36.5 52.5t13 62q16 0 38 -7t38.5 -19.5t23.5 -29.5t-1 -38 q-31 -66 -104.5 -105.5t-172.5 -39.5q-61 0 -116.5 18.5t-95.5 50t-63.5 73.5t-23.5 91zM181 782l176 185q12 12 41 12t41 -12l178 -185q-31 -25 -70 -24.5t-61 22.5l-88 92l-88 -92q-23 -23 -61 -22.5t-68 24.5zM221 434h354v39q0 66 -50 114t-128 48q-76 0 -126 -48 t-50 -114v-39zM450 1126q12 35 49 53.5t82 18.5q53 0 96 -30t43 -79q0 -33 -23.5 -55.5t-43.5 -36.5q-12 -9 -12 -27q0 -27 -31 -30.5t-82 -3.5v32q0 29 17.5 46.5t39.5 33.5q8 6 15.5 15.5t7.5 25.5t-8.5 29.5t-18.5 13.5t-18 -13t-8 -30q0 -18 2 -28q-53 0 -86 15t-21 50z " />
<glyph unicode="&#xca;&#x303;" horiz-adv-x="991" d="M98 309v359q0 74 36 133t94.5 100t130 63.5t145.5 22.5q66 0 130 -16.5t119.5 -48t95.5 -80.5t56 -115q6 -29 -4 -48.5t-29.5 -31.5t-44 -18t-47.5 -6q2 10 2 22v23q0 49 -21.5 92t-59 75.5t-89 51t-108.5 18.5t-107.5 -18.5t-87.5 -51t-58.5 -75.5t-21.5 -92v-138h404 q0 -82 -98 -81h-306v-140q0 -49 21.5 -93t58.5 -75.5t87 -51t108 -19.5q57 0 108.5 19.5t89 51t59 75.5t21.5 93v22.5t-2 22.5q23 0 46.5 -6t42 -18.5t29.5 -31.5t7 -46q-12 -59 -52 -108.5t-95.5 -84t-121 -53t-132.5 -18.5q-72 0 -143.5 21.5t-130 63.5t-95.5 101t-37 135 zM293 1069l176 185q12 12 41 12t41 -12l178 -185q-31 -25 -70 -24.5t-61 22.5l-88 92l-88 -92q-23 -23 -61 -22.5t-68 24.5zM301 1358q6 41 38 68t85 27q43 0 65.5 -12.5t43.5 -28.5h-5l25 -17l2 -2q12 -10 24.5 -19.5t20.5 -9.5q14 0 20.5 24t-8.5 54q53 20 84 0t27 -49 q-6 -41 -38 -67.5t-85 -26.5q-43 0 -64.5 12t-43.5 29h4l-21 14l-6 4q-12 10 -24.5 19.5t-20.5 9.5q-14 0 -21.5 -24.5t9.5 -53.5q-53 -20 -84 0.5t-27 48.5z" />
<glyph unicode="&#xea;&#x303;" horiz-adv-x="798" d="M98 221v252q0 49 23.5 92t63.5 75t95.5 50.5t116.5 18.5q63 0 117.5 -18.5t94.5 -50.5t63.5 -75t23.5 -92v-74q0 -16 -19.5 -27.5t-41.5 -11.5h-414v-139q0 -63 50.5 -110.5t125.5 -47.5q39 0 72 13.5t56.5 36t36.5 52.5t13 62q16 0 38 -7t38.5 -19.5t23.5 -29.5t-1 -38 q-31 -66 -104.5 -105.5t-172.5 -39.5q-61 0 -116.5 18.5t-95.5 50t-63.5 73.5t-23.5 91zM181 782l176 185q12 12 41 12t41 -12l178 -185q-31 -25 -70 -24.5t-61 22.5l-88 92l-88 -92q-23 -23 -61 -22.5t-68 24.5zM188 1071q6 41 38 68t85 27q43 0 65.5 -12.5t43.5 -28.5h-5 l25 -17l2 -2q12 -10 24.5 -19.5t20.5 -9.5q14 0 20.5 24t-8.5 54q53 20 84 0t27 -49q-6 -41 -38 -67.5t-85 -26.5q-43 0 -64.5 12t-43.5 29h4l-21 14l-6 4q-12 10 -24.5 19.5t-20.5 9.5q-14 0 -21.5 -24.5t9.5 -53.5q-53 -20 -84 0.5t-27 48.5zM221 434h354v39q0 66 -50 114 t-128 48q-76 0 -126 -48t-50 -114v-39z" />
<glyph unicode="&#xca;&#x323;" horiz-adv-x="991" d="M98 309v359q0 74 36 133t94.5 100t130 63.5t145.5 22.5q66 0 130 -16.5t119.5 -48t95.5 -80.5t56 -115q6 -29 -4 -48.5t-29.5 -31.5t-44 -18t-47.5 -6q2 10 2 22v23q0 49 -21.5 92t-59 75.5t-89 51t-108.5 18.5t-107.5 -18.5t-87.5 -51t-58.5 -75.5t-21.5 -92v-138h404 q0 -82 -98 -81h-306v-140q0 -49 21.5 -93t58.5 -75.5t87 -51t108 -19.5q57 0 108.5 19.5t89 51t59 75.5t21.5 93v22.5t-2 22.5q23 0 46.5 -6t42 -18.5t29.5 -31.5t7 -46q-12 -59 -52 -108.5t-95.5 -84t-121 -53t-132.5 -18.5q-72 0 -143.5 21.5t-130 63.5t-95.5 101t-37 135 zM293 1069l176 185q12 12 41 12t41 -12l178 -185q-31 -25 -70 -24.5t-61 22.5l-88 92l-88 -92q-23 -23 -61 -22.5t-68 24.5zM417 -162q0 29 27 50.5t68 21.5t66.5 -21.5t25.5 -50.5q0 -31 -25.5 -52.5t-66.5 -21.5t-68 21.5t-27 52.5z" />
<glyph unicode="&#xea;&#x323;" horiz-adv-x="798" d="M98 221v252q0 49 23.5 92t63.5 75t95.5 50.5t116.5 18.5q63 0 117.5 -18.5t94.5 -50.5t63.5 -75t23.5 -92v-74q0 -16 -19.5 -27.5t-41.5 -11.5h-414v-139q0 -63 50.5 -110.5t125.5 -47.5q39 0 72 13.5t56.5 36t36.5 52.5t13 62q16 0 38 -7t38.5 -19.5t23.5 -29.5t-1 -38 q-31 -66 -104.5 -105.5t-172.5 -39.5q-61 0 -116.5 18.5t-95.5 50t-63.5 73.5t-23.5 91zM181 782l176 185q12 12 41 12t41 -12l178 -185q-31 -25 -70 -24.5t-61 22.5l-88 92l-88 -92q-23 -23 -61 -22.5t-68 24.5zM221 434h354v39q0 66 -50 114t-128 48q-76 0 -126 -48 t-50 -114v-39zM305 -162q0 29 27 50.5t68 21.5t66.5 -21.5t25.5 -50.5q0 -31 -25.5 -52.5t-66.5 -21.5t-68 21.5t-27 52.5z" />
<glyph unicode="I&#x309;" horiz-adv-x="368" d="M51 1229q12 35 49 53.5t82 18.5q53 0 96 -30t43 -79q0 -33 -23.5 -55.5t-43.5 -36.5q-12 -9 -12 -27q0 -27 -31 -30.5t-82 -3.5v32q0 29 17.5 46.5t39.5 33.5q8 6 15.5 15.5t7.5 25.5t-8.5 29.5t-18.5 13.5t-18 -13t-8 -30q0 -18 2 -28q-53 0 -86 15t-21 50zM119 -12v913 q0 86 131 86v-913q0 -86 -131 -86z" />
<glyph unicode="i&#x309;" horiz-adv-x="360" d="M47 942q12 35 49 53.5t82 18.5q53 0 96 -30t43 -79q0 -33 -23.5 -55.5t-43.5 -36.5q-12 -9 -12 -27q0 -27 -31 -30.5t-82 -3.5v32q0 29 17.5 46.5t39.5 33.5q8 6 15.5 15.5t7.5 25.5t-8.5 29.5t-18.5 13.5t-18 -13t-8 -30q0 -18 2 -28q-53 0 -86 15t-21 50zM119 -12v645 q0 76 121 76v-643q0 -78 -121 -78z" />
<glyph unicode="I&#x323;" horiz-adv-x="368" d="M90 -162q0 29 27 50.5t68 21.5t66.5 -21.5t25.5 -50.5q0 -31 -25.5 -52.5t-66.5 -21.5t-68 21.5t-27 52.5zM119 -12v913q0 86 131 86v-913q0 -86 -131 -86z" />
<glyph unicode="i&#x323;" horiz-adv-x="360" d="M86 -162q0 29 27 50.5t68 21.5t66.5 -21.5t25.5 -50.5q0 -31 -25.5 -52.5t-66.5 -21.5t-68 21.5t-27 52.5zM86 885q0 29 26.5 50t67.5 21t66.5 -21.5t25.5 -49.5q0 -31 -25.5 -52.5t-66.5 -21.5t-67.5 21.5t-26.5 52.5zM119 -12v645q0 76 121 76v-643q0 -78 -121 -78z " />
<glyph unicode="O&#x323;" horiz-adv-x="1202" d="M80 487q0 104 40 195.5t110.5 159t164.5 106.5t203 39t204 -39t165.5 -106.5t111.5 -158.5t41 -196q0 -104 -41 -195t-111.5 -158.5t-165.5 -106.5t-204 -39t-203 39t-164.5 106.5t-110.5 158.5t-40 195zM209 487q0 -88 30.5 -163.5t83 -132t124 -89t151.5 -32.5 q82 0 152.5 32.5t124 89t84 132t30.5 163.5q0 86 -30.5 163t-84 133.5t-124 89t-152.5 32.5q-80 0 -151.5 -32.5t-124 -89t-83 -133.5t-30.5 -163zM505 -162q0 29 27 50.5t68 21.5t66.5 -21.5t25.5 -50.5q0 -31 -25.5 -52.5t-66.5 -21.5t-68 21.5t-27 52.5z" />
<glyph unicode="o&#x323;" horiz-adv-x="923" d="M80 348q0 74 29.5 139.5t81 114.5t120 78t148.5 29t149.5 -29t121.5 -78t82 -114.5t30 -139.5q0 -76 -30 -141.5t-82 -114.5t-121.5 -76.5t-149.5 -27.5t-148.5 27.5t-120 76.5t-81 114.5t-29.5 141.5zM201 348q0 -59 20.5 -111.5t55 -91.5t82 -60.5t100.5 -21.5 t100 21.5t83 60.5t56.5 91.5t20.5 111.5t-20.5 111.5t-56.5 91.5t-83 61.5t-100 22.5t-100.5 -22.5t-82 -61.5t-55 -91.5t-20.5 -111.5zM366 -162q0 29 27 50.5t68 21.5t66.5 -21.5t25.5 -50.5q0 -31 -25.5 -52.5t-66.5 -21.5t-68 21.5t-27 52.5z" />
<glyph unicode="O&#x309;" horiz-adv-x="1202" d="M80 487q0 104 40 195.5t110.5 159t164.5 106.5t203 39t204 -39t165.5 -106.5t111.5 -158.5t41 -196q0 -104 -41 -195t-111.5 -158.5t-165.5 -106.5t-204 -39t-203 39t-164.5 106.5t-110.5 158.5t-40 195zM209 487q0 -88 30.5 -163.5t83 -132t124 -89t151.5 -32.5 q82 0 152.5 32.5t124 89t84 132t30.5 163.5q0 86 -30.5 163t-84 133.5t-124 89t-152.5 32.5q-80 0 -151.5 -32.5t-124 -89t-83 -133.5t-30.5 -163zM467 1229q12 35 49 53.5t82 18.5q53 0 96 -30t43 -79q0 -33 -23.5 -55.5t-43.5 -36.5q-12 -9 -12 -27q0 -27 -31 -30.5 t-82 -3.5v32q0 29 17.5 46.5t39.5 33.5q8 6 15.5 15.5t7.5 25.5t-8.5 29.5t-18.5 13.5t-18 -13t-8 -30q0 -18 2 -28q-53 0 -86 15t-21 50z" />
<glyph unicode="o&#x309;" horiz-adv-x="923" d="M80 348q0 74 29.5 139.5t81 114.5t120 78t148.5 29t149.5 -29t121.5 -78t82 -114.5t30 -139.5q0 -76 -30 -141.5t-82 -114.5t-121.5 -76.5t-149.5 -27.5t-148.5 27.5t-120 76.5t-81 114.5t-29.5 141.5zM201 348q0 -59 20.5 -111.5t55 -91.5t82 -60.5t100.5 -21.5 t100 21.5t83 60.5t56.5 91.5t20.5 111.5t-20.5 111.5t-56.5 91.5t-83 61.5t-100 22.5t-100.5 -22.5t-82 -61.5t-55 -91.5t-20.5 -111.5zM328 942q12 35 49 53.5t82 18.5q53 0 96 -30t43 -79q0 -33 -23.5 -55.5t-43.5 -36.5q-12 -9 -12 -27q0 -27 -31 -30.5t-82 -3.5v32 q0 29 17.5 46.5t39.5 33.5q8 6 15.5 15.5t7.5 25.5t-8.5 29.5t-18.5 13.5t-18 -13t-8 -30q0 -18 2 -28q-53 0 -86 15t-21 50z" />
<glyph unicode="&#xd4;&#x301;" horiz-adv-x="1202" d="M80 487q0 104 40 195.5t110.5 159t164.5 106.5t203 39t204 -39t165.5 -106.5t111.5 -158.5t41 -196q0 -104 -41 -195t-111.5 -158.5t-165.5 -106.5t-204 -39t-203 39t-164.5 106.5t-110.5 158.5t-40 195zM209 487q0 -88 30.5 -163.5t83 -132t124 -89t151.5 -32.5 q82 0 152.5 32.5t124 89t84 132t30.5 163.5q0 86 -30.5 163t-84 133.5t-124 89t-152.5 32.5q-80 0 -151.5 -32.5t-124 -89t-83 -133.5t-30.5 -163zM381 1069l176 185q12 12 41 12t41 -12l178 -185q-31 -25 -70 -24.5t-61 22.5l-88 92l-88 -92q-23 -23 -61 -22.5t-68 24.5z M692 1229l119 180q27 39 114 39h72l-168 -184q-23 -20 -53.5 -27.5t-83.5 -7.5z" />
<glyph unicode="&#xf4;&#x301;" horiz-adv-x="923" d="M80 348q0 74 29.5 139.5t81 114.5t120 78t148.5 29t149.5 -29t121.5 -78t82 -114.5t30 -139.5q0 -76 -30 -141.5t-82 -114.5t-121.5 -76.5t-149.5 -27.5t-148.5 27.5t-120 76.5t-81 114.5t-29.5 141.5zM201 348q0 -59 20.5 -111.5t55 -91.5t82 -60.5t100.5 -21.5 t100 21.5t83 60.5t56.5 91.5t20.5 111.5t-20.5 111.5t-56.5 91.5t-83 61.5t-100 22.5t-100.5 -22.5t-82 -61.5t-55 -91.5t-20.5 -111.5zM242 782l176 185q12 12 41 12t41 -12l178 -185q-31 -25 -70 -24.5t-61 22.5l-88 92l-88 -92q-23 -23 -61 -22.5t-68 24.5zM553 942 l119 180q27 39 114 39h72l-168 -184q-23 -20 -53.5 -27.5t-83.5 -7.5z" />
<glyph unicode="&#xd4;&#x300;" horiz-adv-x="1202" d="M80 487q0 104 40 195.5t110.5 159t164.5 106.5t203 39t204 -39t165.5 -106.5t111.5 -158.5t41 -196q0 -104 -41 -195t-111.5 -158.5t-165.5 -106.5t-204 -39t-203 39t-164.5 106.5t-110.5 158.5t-40 195zM209 487q0 -88 30.5 -163.5t83 -132t124 -89t151.5 -32.5 q82 0 152.5 32.5t124 89t84 132t30.5 163.5q0 86 -30.5 163t-84 133.5t-124 89t-152.5 32.5q-80 0 -151.5 -32.5t-124 -89t-83 -133.5t-30.5 -163zM381 1069l176 185q12 12 41 12t41 -12l178 -185q-31 -25 -70 -24.5t-61 22.5l-88 92l-88 -92q-23 -23 -61 -22.5t-68 24.5z M528 1448h72q90 0 114 -39l119 -180q-53 0 -84 7t-51 28z" />
<glyph unicode="&#xf4;&#x300;" horiz-adv-x="923" d="M80 348q0 74 29.5 139.5t81 114.5t120 78t148.5 29t149.5 -29t121.5 -78t82 -114.5t30 -139.5q0 -76 -30 -141.5t-82 -114.5t-121.5 -76.5t-149.5 -27.5t-148.5 27.5t-120 76.5t-81 114.5t-29.5 141.5zM201 348q0 -59 20.5 -111.5t55 -91.5t82 -60.5t100.5 -21.5 t100 21.5t83 60.5t56.5 91.5t20.5 111.5t-20.5 111.5t-56.5 91.5t-83 61.5t-100 22.5t-100.5 -22.5t-82 -61.5t-55 -91.5t-20.5 -111.5zM242 782l176 185q12 12 41 12t41 -12l178 -185q-31 -25 -70 -24.5t-61 22.5l-88 92l-88 -92q-23 -23 -61 -22.5t-68 24.5zM389 1161h72 q90 0 114 -39l119 -180q-53 0 -84 7t-51 28z" />
<glyph unicode="&#xd4;&#x309;" horiz-adv-x="1202" d="M80 487q0 104 40 195.5t110.5 159t164.5 106.5t203 39t204 -39t165.5 -106.5t111.5 -158.5t41 -196q0 -104 -41 -195t-111.5 -158.5t-165.5 -106.5t-204 -39t-203 39t-164.5 106.5t-110.5 158.5t-40 195zM209 487q0 -88 30.5 -163.5t83 -132t124 -89t151.5 -32.5 q82 0 152.5 32.5t124 89t84 132t30.5 163.5q0 86 -30.5 163t-84 133.5t-124 89t-152.5 32.5q-80 0 -151.5 -32.5t-124 -89t-83 -133.5t-30.5 -163zM381 1069l176 185q12 12 41 12t41 -12l178 -185q-31 -25 -70 -24.5t-61 22.5l-88 92l-88 -92q-23 -23 -61 -22.5t-68 24.5z M618 1413q12 35 49 53.5t82 18.5q53 0 96 -30t43 -79q0 -33 -23.5 -55.5t-43.5 -36.5q-12 -9 -12 -27q0 -27 -31 -30.5t-82 -3.5v32q0 29 17.5 46.5t39.5 33.5q8 6 15.5 15.5t7.5 25.5t-8.5 29.5t-18.5 13.5t-18 -13t-8 -30q0 -18 2 -28q-53 0 -86 15t-21 50z" />
<glyph unicode="&#xf4;&#x309;" horiz-adv-x="923" d="M80 348q0 74 29.5 139.5t81 114.5t120 78t148.5 29t149.5 -29t121.5 -78t82 -114.5t30 -139.5q0 -76 -30 -141.5t-82 -114.5t-121.5 -76.5t-149.5 -27.5t-148.5 27.5t-120 76.5t-81 114.5t-29.5 141.5zM201 348q0 -59 20.5 -111.5t55 -91.5t82 -60.5t100.5 -21.5 t100 21.5t83 60.5t56.5 91.5t20.5 111.5t-20.5 111.5t-56.5 91.5t-83 61.5t-100 22.5t-100.5 -22.5t-82 -61.5t-55 -91.5t-20.5 -111.5zM242 782l176 185q12 12 41 12t41 -12l178 -185q-31 -25 -70 -24.5t-61 22.5l-88 92l-88 -92q-23 -23 -61 -22.5t-68 24.5zM477 1126 q12 35 49 53.5t82 18.5q53 0 96 -30t43 -79q0 -33 -23.5 -55.5t-43.5 -36.5q-12 -9 -12 -27q0 -27 -31 -30.5t-82 -3.5v32q0 29 17.5 46.5t39.5 33.5q8 6 15.5 15.5t7.5 25.5t-8.5 29.5t-18.5 13.5t-18 -13t-8 -30q0 -18 2 -28q-53 0 -86 15t-21 50z" />
<glyph unicode="&#xd4;&#x303;" horiz-adv-x="1202" d="M80 487q0 104 40 195.5t110.5 159t164.5 106.5t203 39t204 -39t165.5 -106.5t111.5 -158.5t41 -196q0 -104 -41 -195t-111.5 -158.5t-165.5 -106.5t-204 -39t-203 39t-164.5 106.5t-110.5 158.5t-40 195zM209 487q0 -88 30.5 -163.5t83 -132t124 -89t151.5 -32.5 q82 0 152.5 32.5t124 89t84 132t30.5 163.5q0 86 -30.5 163t-84 133.5t-124 89t-152.5 32.5q-80 0 -151.5 -32.5t-124 -89t-83 -133.5t-30.5 -163zM381 1069l176 185q12 12 41 12t41 -12l178 -185q-31 -25 -70 -24.5t-61 22.5l-88 92l-88 -92q-23 -23 -61 -22.5t-68 24.5z M389 1358q6 41 38 68t85 27q43 0 65.5 -12.5t43.5 -28.5h-5l25 -17l2 -2q12 -10 24.5 -19.5t20.5 -9.5q14 0 20.5 24t-8.5 54q53 20 84 0t27 -49q-6 -41 -38 -67.5t-85 -26.5q-43 0 -64.5 12t-43.5 29h4l-21 14l-6 4q-12 10 -24.5 19.5t-20.5 9.5q-14 0 -21.5 -24.5 t9.5 -53.5q-53 -20 -84 0.5t-27 48.5z" />
<glyph unicode="&#xf4;&#x303;" horiz-adv-x="923" d="M80 348q0 74 29.5 139.5t81 114.5t120 78t148.5 29t149.5 -29t121.5 -78t82 -114.5t30 -139.5q0 -76 -30 -141.5t-82 -114.5t-121.5 -76.5t-149.5 -27.5t-148.5 27.5t-120 76.5t-81 114.5t-29.5 141.5zM201 348q0 -59 20.5 -111.5t55 -91.5t82 -60.5t100.5 -21.5 t100 21.5t83 60.5t56.5 91.5t20.5 111.5t-20.5 111.5t-56.5 91.5t-83 61.5t-100 22.5t-100.5 -22.5t-82 -61.5t-55 -91.5t-20.5 -111.5zM242 782l176 185q12 12 41 12t41 -12l178 -185q-31 -25 -70 -24.5t-61 22.5l-88 92l-88 -92q-23 -23 -61 -22.5t-68 24.5zM250 1071 q6 41 38 68t85 27q43 0 65.5 -12.5t43.5 -28.5h-5l25 -17l2 -2q12 -10 24.5 -19.5t20.5 -9.5q14 0 20.5 24t-8.5 54q53 20 84 0t27 -49q-6 -41 -38 -67.5t-85 -26.5q-43 0 -64.5 12t-43.5 29h4l-21 14l-6 4q-12 10 -24.5 19.5t-20.5 9.5q-14 0 -21.5 -24.5t9.5 -53.5 q-53 -20 -84 0.5t-27 48.5z" />
<glyph unicode="&#xd4;&#x323;" horiz-adv-x="1202" d="M80 487q0 104 40 195.5t110.5 159t164.5 106.5t203 39t204 -39t165.5 -106.5t111.5 -158.5t41 -196q0 -104 -41 -195t-111.5 -158.5t-165.5 -106.5t-204 -39t-203 39t-164.5 106.5t-110.5 158.5t-40 195zM209 487q0 -88 30.5 -163.5t83 -132t124 -89t151.5 -32.5 q82 0 152.5 32.5t124 89t84 132t30.5 163.5q0 86 -30.5 163t-84 133.5t-124 89t-152.5 32.5q-80 0 -151.5 -32.5t-124 -89t-83 -133.5t-30.5 -163zM381 1069l176 185q12 12 41 12t41 -12l178 -185q-31 -25 -70 -24.5t-61 22.5l-88 92l-88 -92q-23 -23 -61 -22.5t-68 24.5z M505 -162q0 29 27 50.5t68 21.5t66.5 -21.5t25.5 -50.5q0 -31 -25.5 -52.5t-66.5 -21.5t-68 21.5t-27 52.5z" />
<glyph unicode="&#xf4;&#x323;" horiz-adv-x="923" d="M80 348q0 74 29.5 139.5t81 114.5t120 78t148.5 29t149.5 -29t121.5 -78t82 -114.5t30 -139.5q0 -76 -30 -141.5t-82 -114.5t-121.5 -76.5t-149.5 -27.5t-148.5 27.5t-120 76.5t-81 114.5t-29.5 141.5zM201 348q0 -59 20.5 -111.5t55 -91.5t82 -60.5t100.5 -21.5 t100 21.5t83 60.5t56.5 91.5t20.5 111.5t-20.5 111.5t-56.5 91.5t-83 61.5t-100 22.5t-100.5 -22.5t-82 -61.5t-55 -91.5t-20.5 -111.5zM242 782l176 185q12 12 41 12t41 -12l178 -185q-31 -25 -70 -24.5t-61 22.5l-88 92l-88 -92q-23 -23 -61 -22.5t-68 24.5zM366 -162 q0 29 27 50.5t68 21.5t66.5 -21.5t25.5 -50.5q0 -31 -25.5 -52.5t-66.5 -21.5t-68 21.5t-27 52.5z" />
<glyph unicode="&#x1a0;&#x301;" horiz-adv-x="1202" d="M80 487q0 104 40 195.5t110.5 159t164.5 106.5t203 39t204 -39t165.5 -106.5t111.5 -158.5t41 -196q0 -104 -41 -195t-111.5 -158.5t-165.5 -106.5t-204 -39t-203 39t-164.5 106.5t-110.5 158.5t-40 195zM209 487q0 -88 30.5 -163.5t83 -132t124 -89t151.5 -32.5 q82 0 152.5 32.5t124 89t84 132t30.5 163.5q0 86 -30.5 163t-84 133.5t-124 89t-152.5 32.5q-80 0 -151.5 -32.5t-124 -89t-83 -133.5t-30.5 -163zM528 1045l119 180q27 39 114 39h72l-168 -184q-23 -20 -53.5 -27.5t-83.5 -7.5zM944 741q78 10 103.5 75t25.5 171 q127 0 127 -84q0 -31 -11 -63.5t-37 -62t-68 -54.5t-101 -39z" />
<glyph unicode="&#x1a1;&#x301;" horiz-adv-x="923" d="M80 348q0 74 29.5 139.5t81 114.5t120 78t148.5 29t149.5 -29t121.5 -78t82 -114.5t30 -139.5q0 -76 -30 -141.5t-82 -114.5t-121.5 -76.5t-149.5 -27.5t-148.5 27.5t-120 76.5t-81 114.5t-29.5 141.5zM201 348q0 -59 20.5 -111.5t55 -91.5t82 -60.5t100.5 -21.5 t100 21.5t83 60.5t56.5 91.5t20.5 111.5t-20.5 111.5t-56.5 91.5t-83 61.5t-100 22.5t-100.5 -22.5t-82 -61.5t-55 -91.5t-20.5 -111.5zM389 758l119 180q27 39 114 39h72l-168 -184q-23 -20 -53.5 -27.5t-83.5 -7.5zM715 489q68 10 90 67.5t22 152.5q117 0 117 -74 q0 -27 -10 -56.5t-32.5 -57t-58.5 -49t-89 -34.5z" />
<glyph unicode="&#x1a0;&#x300;" horiz-adv-x="1202" d="M80 487q0 104 40 195.5t110.5 159t164.5 106.5t203 39t204 -39t165.5 -106.5t111.5 -158.5t41 -196q0 -104 -41 -195t-111.5 -158.5t-165.5 -106.5t-204 -39t-203 39t-164.5 106.5t-110.5 158.5t-40 195zM209 487q0 -88 30.5 -163.5t83 -132t124 -89t151.5 -32.5 q82 0 152.5 32.5t124 89t84 132t30.5 163.5q0 86 -30.5 163t-84 133.5t-124 89t-152.5 32.5q-80 0 -151.5 -32.5t-124 -89t-83 -133.5t-30.5 -163zM365 1264h72q90 0 114 -39l119 -180q-53 0 -84 7t-51 28zM944 741q78 10 103.5 75t25.5 171q127 0 127 -84q0 -31 -11 -63.5 t-37 -62t-68 -54.5t-101 -39z" />
<glyph unicode="&#x1a1;&#x300;" horiz-adv-x="923" d="M80 348q0 74 29.5 139.5t81 114.5t120 78t148.5 29t149.5 -29t121.5 -78t82 -114.5t30 -139.5q0 -76 -30 -141.5t-82 -114.5t-121.5 -76.5t-149.5 -27.5t-148.5 27.5t-120 76.5t-81 114.5t-29.5 141.5zM201 348q0 -59 20.5 -111.5t55 -91.5t82 -60.5t100.5 -21.5 t100 21.5t83 60.5t56.5 91.5t20.5 111.5t-20.5 111.5t-56.5 91.5t-83 61.5t-100 22.5t-100.5 -22.5t-82 -61.5t-55 -91.5t-20.5 -111.5zM225 977h72q90 0 114 -39l119 -180q-53 0 -84 7t-51 28zM715 489q68 10 90 67.5t22 152.5q117 0 117 -74q0 -27 -10 -56.5t-32.5 -57 t-58.5 -49t-89 -34.5z" />
<glyph unicode="&#x1a0;&#x309;" horiz-adv-x="1202" d="M80 487q0 104 40 195.5t110.5 159t164.5 106.5t203 39t204 -39t165.5 -106.5t111.5 -158.5t41 -196q0 -104 -41 -195t-111.5 -158.5t-165.5 -106.5t-204 -39t-203 39t-164.5 106.5t-110.5 158.5t-40 195zM209 487q0 -88 30.5 -163.5t83 -132t124 -89t151.5 -32.5 q82 0 152.5 32.5t124 89t84 132t30.5 163.5q0 86 -30.5 163t-84 133.5t-124 89t-152.5 32.5q-80 0 -151.5 -32.5t-124 -89t-83 -133.5t-30.5 -163zM467 1229q12 35 49 53.5t82 18.5q53 0 96 -30t43 -79q0 -33 -23.5 -55.5t-43.5 -36.5q-12 -9 -12 -27q0 -27 -31 -30.5 t-82 -3.5v32q0 29 17.5 46.5t39.5 33.5q8 6 15.5 15.5t7.5 25.5t-8.5 29.5t-18.5 13.5t-18 -13t-8 -30q0 -18 2 -28q-53 0 -86 15t-21 50zM944 741q78 10 103.5 75t25.5 171q127 0 127 -84q0 -31 -11 -63.5t-37 -62t-68 -54.5t-101 -39z" />
<glyph unicode="&#x1a1;&#x309;" horiz-adv-x="923" d="M80 348q0 74 29.5 139.5t81 114.5t120 78t148.5 29t149.5 -29t121.5 -78t82 -114.5t30 -139.5q0 -76 -30 -141.5t-82 -114.5t-121.5 -76.5t-149.5 -27.5t-148.5 27.5t-120 76.5t-81 114.5t-29.5 141.5zM201 348q0 -59 20.5 -111.5t55 -91.5t82 -60.5t100.5 -21.5 t100 21.5t83 60.5t56.5 91.5t20.5 111.5t-20.5 111.5t-56.5 91.5t-83 61.5t-100 22.5t-100.5 -22.5t-82 -61.5t-55 -91.5t-20.5 -111.5zM328 942q12 35 49 53.5t82 18.5q53 0 96 -30t43 -79q0 -33 -23.5 -55.5t-43.5 -36.5q-12 -9 -12 -27q0 -27 -31 -30.5t-82 -3.5v32 q0 29 17.5 46.5t39.5 33.5q8 6 15.5 15.5t7.5 25.5t-8.5 29.5t-18.5 13.5t-18 -13t-8 -30q0 -18 2 -28q-53 0 -86 15t-21 50zM715 489q68 10 90 67.5t22 152.5q117 0 117 -74q0 -27 -10 -56.5t-32.5 -57t-58.5 -49t-89 -34.5z" />
<glyph unicode="&#x1a0;&#x303;" horiz-adv-x="1202" d="M80 487q0 104 40 195.5t110.5 159t164.5 106.5t203 39t204 -39t165.5 -106.5t111.5 -158.5t41 -196q0 -104 -41 -195t-111.5 -158.5t-165.5 -106.5t-204 -39t-203 39t-164.5 106.5t-110.5 158.5t-40 195zM209 487q0 -88 30.5 -163.5t83 -132t124 -89t151.5 -32.5 q82 0 152.5 32.5t124 89t84 132t30.5 163.5q0 86 -30.5 163t-84 133.5t-124 89t-152.5 32.5q-80 0 -151.5 -32.5t-124 -89t-83 -133.5t-30.5 -163zM389 1153q6 41 38 68t85 27q43 0 65.5 -12.5t43.5 -28.5h-5l25 -17l2 -2q12 -10 24.5 -19.5t20.5 -9.5q14 0 20.5 24t-8.5 54 q53 20 84 0t27 -49q-6 -41 -38 -67.5t-85 -26.5q-43 0 -64.5 12t-43.5 29h4l-21 14l-6 4q-12 10 -24.5 19.5t-20.5 9.5q-14 0 -21.5 -24.5t9.5 -53.5q-53 -20 -84 0.5t-27 48.5zM944 741q78 10 103.5 75t25.5 171q127 0 127 -84q0 -31 -11 -63.5t-37 -62t-68 -54.5t-101 -39 z" />
<glyph unicode="&#x1a1;&#x303;" horiz-adv-x="923" d="M80 348q0 74 29.5 139.5t81 114.5t120 78t148.5 29t149.5 -29t121.5 -78t82 -114.5t30 -139.5q0 -76 -30 -141.5t-82 -114.5t-121.5 -76.5t-149.5 -27.5t-148.5 27.5t-120 76.5t-81 114.5t-29.5 141.5zM201 348q0 -59 20.5 -111.5t55 -91.5t82 -60.5t100.5 -21.5 t100 21.5t83 60.5t56.5 91.5t20.5 111.5t-20.5 111.5t-56.5 91.5t-83 61.5t-100 22.5t-100.5 -22.5t-82 -61.5t-55 -91.5t-20.5 -111.5zM250 866q6 41 38 68t85 27q43 0 65.5 -12.5t43.5 -28.5h-5l25 -17l2 -2q12 -10 24.5 -19.5t20.5 -9.5q14 0 20.5 24t-8.5 54q53 20 84 0 t27 -49q-6 -41 -38 -67.5t-85 -26.5q-43 0 -64.5 12t-43.5 29h4l-21 14l-6 4q-12 10 -24.5 19.5t-20.5 9.5q-14 0 -21.5 -24.5t9.5 -53.5q-53 -20 -84 0.5t-27 48.5zM715 489q68 10 90 67.5t22 152.5q117 0 117 -74q0 -27 -10 -56.5t-32.5 -57t-58.5 -49t-89 -34.5z" />
<glyph unicode="&#x1a0;&#x323;" horiz-adv-x="1202" d="M80 487q0 104 40 195.5t110.5 159t164.5 106.5t203 39t204 -39t165.5 -106.5t111.5 -158.5t41 -196q0 -104 -41 -195t-111.5 -158.5t-165.5 -106.5t-204 -39t-203 39t-164.5 106.5t-110.5 158.5t-40 195zM209 487q0 -88 30.5 -163.5t83 -132t124 -89t151.5 -32.5 q82 0 152.5 32.5t124 89t84 132t30.5 163.5q0 86 -30.5 163t-84 133.5t-124 89t-152.5 32.5q-80 0 -151.5 -32.5t-124 -89t-83 -133.5t-30.5 -163zM505 -162q0 29 27 50.5t68 21.5t66.5 -21.5t25.5 -50.5q0 -31 -25.5 -52.5t-66.5 -21.5t-68 21.5t-27 52.5zM944 741 q78 10 103.5 75t25.5 171q127 0 127 -84q0 -31 -11 -63.5t-37 -62t-68 -54.5t-101 -39z" />
<glyph unicode="&#x1a1;&#x323;" horiz-adv-x="923" d="M80 348q0 74 29.5 139.5t81 114.5t120 78t148.5 29t149.5 -29t121.5 -78t82 -114.5t30 -139.5q0 -76 -30 -141.5t-82 -114.5t-121.5 -76.5t-149.5 -27.5t-148.5 27.5t-120 76.5t-81 114.5t-29.5 141.5zM201 348q0 -59 20.5 -111.5t55 -91.5t82 -60.5t100.5 -21.5 t100 21.5t83 60.5t56.5 91.5t20.5 111.5t-20.5 111.5t-56.5 91.5t-83 61.5t-100 22.5t-100.5 -22.5t-82 -61.5t-55 -91.5t-20.5 -111.5zM366 -162q0 29 27 50.5t68 21.5t66.5 -21.5t25.5 -50.5q0 -31 -25.5 -52.5t-66.5 -21.5t-68 21.5t-27 52.5zM715 489q68 10 90 67.5 t22 152.5q117 0 117 -74q0 -27 -10 -56.5t-32.5 -57t-58.5 -49t-89 -34.5z" />
<glyph unicode="U&#x323;" horiz-adv-x="1052" d="M119 309v592q0 86 131 86v-678q0 -49 21.5 -93t58.5 -75.5t87 -51t107 -19.5t107.5 19.5t88.5 51t59.5 75.5t21.5 93v592q0 86 129 86v-678q0 -76 -37 -135t-95.5 -101t-130 -63.5t-143.5 -21.5t-143.5 21.5t-129.5 63.5t-95 101t-37 135zM432 -162q0 29 27 50.5t68 21.5 t66.5 -21.5t25.5 -50.5q0 -31 -25.5 -52.5t-66.5 -21.5t-68 21.5t-27 52.5z" />
<glyph unicode="u&#x323;" horiz-adv-x="839" d="M119 223v410q0 76 123 76v-486q0 -66 50 -113t126 -47q78 0 128 47.5t50 112.5v410q0 76 121 76v-643q0 -78 -121 -78v43q-37 -20 -82 -31.5t-96 -11.5q-61 0 -116.5 18.5t-95.5 51t-63.5 74.5t-23.5 91zM325 -162q0 29 27 50.5t68 21.5t66.5 -21.5t25.5 -50.5 q0 -31 -25.5 -52.5t-66.5 -21.5t-68 21.5t-27 52.5z" />
<glyph unicode="U&#x309;" horiz-adv-x="1052" d="M119 309v592q0 86 131 86v-678q0 -49 21.5 -93t58.5 -75.5t87 -51t107 -19.5t107.5 19.5t88.5 51t59.5 75.5t21.5 93v592q0 86 129 86v-678q0 -76 -37 -135t-95.5 -101t-130 -63.5t-143.5 -21.5t-143.5 21.5t-129.5 63.5t-95 101t-37 135zM391 1229q12 35 49 53.5 t82 18.5q53 0 96 -30t43 -79q0 -33 -23.5 -55.5t-43.5 -36.5q-12 -9 -12 -27q0 -27 -31 -30.5t-82 -3.5v32q0 29 17.5 46.5t39.5 33.5q8 6 15.5 15.5t7.5 25.5t-8.5 29.5t-18.5 13.5t-18 -13t-8 -30q0 -18 2 -28q-53 0 -86 15t-21 50z" />
<glyph unicode="u&#x309;" horiz-adv-x="839" d="M119 223v410q0 76 123 76v-486q0 -66 50 -113t126 -47q78 0 128 47.5t50 112.5v410q0 76 121 76v-643q0 -78 -121 -78v43q-37 -20 -82 -31.5t-96 -11.5q-61 0 -116.5 18.5t-95.5 51t-63.5 74.5t-23.5 91zM285 942q12 35 49 53.5t82 18.5q53 0 96 -30t43 -79 q0 -33 -23.5 -55.5t-43.5 -36.5q-12 -9 -12 -27q0 -27 -31 -30.5t-82 -3.5v32q0 29 17.5 46.5t39.5 33.5q8 6 15.5 15.5t7.5 25.5t-8.5 29.5t-18.5 13.5t-18 -13t-8 -30q0 -18 2 -28q-53 0 -86 15t-21 50z" />
<glyph unicode="&#x1af;&#x301;" horiz-adv-x="1052" d="M121 309v592q0 86 129 86v-678q0 -49 21.5 -93t58.5 -75.5t87 -51t107 -19.5t107.5 19.5t88.5 51t59.5 75.5t21.5 93v592q0 86 129 86v-678q0 -76 -37 -135t-95.5 -101t-130 -63.5t-143.5 -21.5t-143.5 21.5t-128.5 63.5t-94 101t-37 135zM455 1045l119 180q27 39 114 39 h72l-168 -184q-23 -20 -53.5 -27.5t-83.5 -7.5zM862 741q76 10 101.5 75t25.5 171q127 0 127 -84q0 -31 -11 -63.5t-37 -62t-68 -54.5t-101 -39z" />
<glyph unicode="&#x1b0;&#x301;" horiz-adv-x="839" d="M121 223v410q0 76 121 76v-486q0 -66 50 -113t126 -47q78 0 128 47.5t50 112.5v410q0 76 121 76v-643q0 -78 -121 -78v43q-37 -20 -82 -31.5t-96 -11.5q-61 0 -115.5 18.5t-94.5 51t-63.5 74.5t-23.5 91zM348 758l119 180q27 39 114 39h72l-168 -184q-23 -20 -53.5 -27.5 t-83.5 -7.5zM659 489q66 10 88.5 67.5t22.5 152.5q119 0 119 -74q0 -27 -10.5 -56.5t-33 -57t-59 -49t-90.5 -34.5z" />
<glyph unicode="&#x1af;&#x300;" horiz-adv-x="1052" d="M121 309v592q0 86 129 86v-678q0 -49 21.5 -93t58.5 -75.5t87 -51t107 -19.5t107.5 19.5t88.5 51t59.5 75.5t21.5 93v592q0 86 129 86v-678q0 -76 -37 -135t-95.5 -101t-130 -63.5t-143.5 -21.5t-143.5 21.5t-128.5 63.5t-94 101t-37 135zM373 1264h72q90 0 114 -39 l119 -180q-53 0 -84 7t-51 28zM862 741q76 10 101.5 75t25.5 171q127 0 127 -84q0 -31 -11 -63.5t-37 -62t-68 -54.5t-101 -39z" />
<glyph unicode="&#x1b0;&#x300;" horiz-adv-x="839" d="M121 223v410q0 76 121 76v-486q0 -66 50 -113t126 -47q78 0 128 47.5t50 112.5v410q0 76 121 76v-643q0 -78 -121 -78v43q-37 -20 -82 -31.5t-96 -11.5q-61 0 -115.5 18.5t-94.5 51t-63.5 74.5t-23.5 91zM184 977h72q90 0 114 -39l119 -180q-53 0 -84 7t-51 28zM659 489 q66 10 88.5 67.5t22.5 152.5q119 0 119 -74q0 -27 -10.5 -56.5t-33 -57t-59 -49t-90.5 -34.5z" />
<glyph unicode="&#x1af;&#x309;" horiz-adv-x="1052" d="M121 309v592q0 86 129 86v-678q0 -49 21.5 -93t58.5 -75.5t87 -51t107 -19.5t107.5 19.5t88.5 51t59.5 75.5t21.5 93v592q0 86 129 86v-678q0 -76 -37 -135t-95.5 -101t-130 -63.5t-143.5 -21.5t-143.5 21.5t-128.5 63.5t-94 101t-37 135zM391 1229q12 35 49 53.5 t82 18.5q53 0 96 -30t43 -79q0 -33 -23.5 -55.5t-43.5 -36.5q-12 -9 -12 -27q0 -27 -31 -30.5t-82 -3.5v32q0 29 17.5 46.5t39.5 33.5q8 6 15.5 15.5t7.5 25.5t-8.5 29.5t-18.5 13.5t-18 -13t-8 -30q0 -18 2 -28q-53 0 -86 15t-21 50zM862 741q76 10 101.5 75t25.5 171 q127 0 127 -84q0 -31 -11 -63.5t-37 -62t-68 -54.5t-101 -39z" />
<glyph unicode="&#x1b0;&#x309;" horiz-adv-x="839" d="M121 223v410q0 76 121 76v-486q0 -66 50 -113t126 -47q78 0 128 47.5t50 112.5v410q0 76 121 76v-643q0 -78 -121 -78v43q-37 -20 -82 -31.5t-96 -11.5q-61 0 -115.5 18.5t-94.5 51t-63.5 74.5t-23.5 91zM285 942q12 35 49 53.5t82 18.5q53 0 96 -30t43 -79 q0 -33 -23.5 -55.5t-43.5 -36.5q-12 -9 -12 -27q0 -27 -31 -30.5t-82 -3.5v32q0 29 17.5 46.5t39.5 33.5q8 6 15.5 15.5t7.5 25.5t-8.5 29.5t-18.5 13.5t-18 -13t-8 -30q0 -18 2 -28q-53 0 -86 15t-21 50zM659 489q66 10 88.5 67.5t22.5 152.5q119 0 119 -74 q0 -27 -10.5 -56.5t-33 -57t-59 -49t-90.5 -34.5z" />
<glyph unicode="&#x1af;&#x303;" horiz-adv-x="1052" d="M121 309v592q0 86 129 86v-678q0 -49 21.5 -93t58.5 -75.5t87 -51t107 -19.5t107.5 19.5t88.5 51t59.5 75.5t21.5 93v592q0 86 129 86v-678q0 -76 -37 -135t-95.5 -101t-130 -63.5t-143.5 -21.5t-143.5 21.5t-128.5 63.5t-94 101t-37 135zM315 1153q6 41 38 68t85 27 q43 0 65.5 -12.5t43.5 -28.5h-5l25 -17l2 -2q12 -10 24.5 -19.5t20.5 -9.5q14 0 20.5 24t-8.5 54q53 20 84 0t27 -49q-6 -41 -38 -67.5t-85 -26.5q-43 0 -64.5 12t-43.5 29h4l-21 14l-6 4q-12 10 -24.5 19.5t-20.5 9.5q-14 0 -21.5 -24.5t9.5 -53.5q-53 -20 -84 0.5 t-27 48.5zM862 741q76 10 101.5 75t25.5 171q127 0 127 -84q0 -31 -11 -63.5t-37 -62t-68 -54.5t-101 -39z" />
<glyph unicode="&#x1b0;&#x303;" horiz-adv-x="839" d="M121 223v410q0 76 121 76v-486q0 -66 50 -113t126 -47q78 0 128 47.5t50 112.5v410q0 76 121 76v-643q0 -78 -121 -78v43q-37 -20 -82 -31.5t-96 -11.5q-61 0 -115.5 18.5t-94.5 51t-63.5 74.5t-23.5 91zM209 866q6 41 38 68t85 27q43 0 65.5 -12.5t43.5 -28.5h-5l25 -17 l2 -2q12 -10 24.5 -19.5t20.5 -9.5q14 0 20.5 24t-8.5 54q53 20 84 0t27 -49q-6 -41 -38 -67.5t-85 -26.5q-43 0 -64.5 12t-43.5 29h4l-21 14l-6 4q-12 10 -24.5 19.5t-20.5 9.5q-14 0 -21.5 -24.5t9.5 -53.5q-53 -20 -84 0.5t-27 48.5zM659 489q66 10 88.5 67.5t22.5 152.5 q119 0 119 -74q0 -27 -10.5 -56.5t-33 -57t-59 -49t-90.5 -34.5z" />
<glyph unicode="&#x1af;&#x323;" horiz-adv-x="1052" d="M121 309v592q0 86 129 86v-678q0 -49 21.5 -93t58.5 -75.5t87 -51t107 -19.5t107.5 19.5t88.5 51t59.5 75.5t21.5 93v592q0 86 129 86v-678q0 -76 -37 -135t-95.5 -101t-130 -63.5t-143.5 -21.5t-143.5 21.5t-128.5 63.5t-94 101t-37 135zM432 -162q0 29 27 50.5t68 21.5 t66.5 -21.5t25.5 -50.5q0 -31 -25.5 -52.5t-66.5 -21.5t-68 21.5t-27 52.5zM862 741q76 10 101.5 75t25.5 171q127 0 127 -84q0 -31 -11 -63.5t-37 -62t-68 -54.5t-101 -39z" />
<glyph unicode="&#x1b0;&#x323;" horiz-adv-x="839" d="M121 223v410q0 76 121 76v-486q0 -66 50 -113t126 -47q78 0 128 47.5t50 112.5v410q0 76 121 76v-643q0 -78 -121 -78v43q-37 -20 -82 -31.5t-96 -11.5q-61 0 -115.5 18.5t-94.5 51t-63.5 74.5t-23.5 91zM325 -162q0 29 27 50.5t68 21.5t66.5 -21.5t25.5 -50.5 q0 -31 -25.5 -52.5t-66.5 -21.5t-68 21.5t-27 52.5zM659 489q66 10 88.5 67.5t22.5 152.5q119 0 119 -74q0 -27 -10.5 -56.5t-33 -57t-59 -49t-90.5 -34.5z" />
<glyph unicode="Y&#x300;" horiz-adv-x="860" d="M23 971q41 29 81.5 21.5t63.5 -40.5l260 -360l262 360q25 33 65 40t81 -21l-342 -469v-428q0 -86 -129 -86v514zM195 1264h72q90 0 114 -39l119 -180q-53 0 -84 7t-51 28z" />
<glyph unicode="y&#x300;" horiz-adv-x="729" d="M29 -221q25 0 40 1t29 5q115 31 176 168l31 72l-274 671q47 20 83 9t48 -41l200 -504l203 504q10 31 46 42t85 -10l-313 -768q-37 -88 -92.5 -139t-147.5 -74q-104 -25 -114 64zM129 977h72q90 0 114 -39l119 -180q-53 0 -84 7t-51 28z" />
<glyph unicode="Y&#x323;" horiz-adv-x="860" d="M23 971q41 29 81.5 21.5t63.5 -40.5l260 -360l262 360q25 33 65 40t81 -21l-342 -469v-428q0 -86 -129 -86v514zM335 -162q0 29 27 50.5t68 21.5t66.5 -21.5t25.5 -50.5q0 -31 -25.5 -52.5t-66.5 -21.5t-68 21.5t-27 52.5z" />
<glyph unicode="y&#x323;" horiz-adv-x="729" d="M29 -221q25 0 40 1t29 5q115 31 176 168l31 72l-274 671q47 20 83 9t48 -41l200 -504l203 504q10 31 46 42t85 -10l-313 -768q-37 -88 -92.5 -139t-147.5 -74q-104 -25 -114 64zM270 -303q0 29 27 50.5t68 21.5t66.5 -21.5t25.5 -50.5q0 -31 -25.5 -52.5t-66.5 -21.5 t-68 21.5t-27 52.5z" />
<glyph unicode="Y&#x309;" horiz-adv-x="860" d="M23 971q41 29 81.5 21.5t63.5 -40.5l260 -360l262 360q25 33 65 40t81 -21l-342 -469v-428q0 -86 -129 -86v514zM295 1229q12 35 49 53.5t82 18.5q53 0 96 -30t43 -79q0 -33 -23.5 -55.5t-43.5 -36.5q-12 -9 -12 -27q0 -27 -31 -30.5t-82 -3.5v32q0 29 17.5 46.5 t39.5 33.5q8 6 15.5 15.5t7.5 25.5t-8.5 29.5t-18.5 13.5t-18 -13t-8 -30q0 -18 2 -28q-53 0 -86 15t-21 50z" />
<glyph unicode="y&#x309;" horiz-adv-x="729" d="M29 -221q25 0 40 1t29 5q115 31 176 168l31 72l-274 671q47 20 83 9t48 -41l200 -504l203 504q10 31 46 42t85 -10l-313 -768q-37 -88 -92.5 -139t-147.5 -74q-104 -25 -114 64zM231 942q12 35 49 53.5t82 18.5q53 0 96 -30t43 -79q0 -33 -23.5 -55.5t-43.5 -36.5 q-12 -9 -12 -27q0 -27 -31 -30.5t-82 -3.5v32q0 29 17.5 46.5t39.5 33.5q8 6 15.5 15.5t7.5 25.5t-8.5 29.5t-18.5 13.5t-18 -13t-8 -30q0 -18 2 -28q-53 0 -86 15t-21 50z" />
<glyph unicode="Y&#x303;" horiz-adv-x="860" d="M23 971q41 29 81.5 21.5t63.5 -40.5l260 -360l262 360q25 33 65 40t81 -21l-342 -469v-428q0 -86 -129 -86v514zM219 1153q6 41 38 68t85 27q43 0 65.5 -12.5t43.5 -28.5h-5l25 -17l2 -2q12 -10 24.5 -19.5t20.5 -9.5q14 0 20.5 24t-8.5 54q53 20 84 0t27 -49 q-6 -41 -38 -67.5t-85 -26.5q-43 0 -64.5 12t-43.5 29h4l-21 14l-6 4q-12 10 -24.5 19.5t-20.5 9.5q-14 0 -21.5 -24.5t9.5 -53.5q-53 -20 -84 0.5t-27 48.5z" />
<glyph unicode="y&#x303;" horiz-adv-x="729" d="M29 -221q25 0 40 1t29 5q115 31 176 168l31 72l-274 671q47 20 83 9t48 -41l200 -504l203 504q10 31 46 42t85 -10l-313 -768q-37 -88 -92.5 -139t-147.5 -74q-104 -25 -114 64zM153 866q6 41 38 68t85 27q43 0 65.5 -12.5t43.5 -28.5h-5l25 -17l2 -2q12 -10 24.5 -19.5 t20.5 -9.5q14 0 20.5 24t-8.5 54q53 20 84 0t27 -49q-6 -41 -38 -67.5t-85 -26.5q-43 0 -64.5 12t-43.5 29h4l-21 14l-6 4q-12 10 -24.5 19.5t-20.5 9.5q-14 0 -21.5 -24.5t9.5 -53.5q-53 -20 -84 0.5t-27 48.5z" />
<glyph unicode="&#xe4f;&#x22;" horiz-adv-x="978" d="M123 336q0 137 106 244q106 102 260 102q152 0 258 -102q111 -111 111 -244q0 -139 -111 -246q-102 -102 -258 -102q-158 0 -260 102q-106 104 -106 246zM215 336q0 -115 81 -196t193 -81q115 0 195 82t80 195q0 115 -80 194.5t-195 79.5q-113 0 -193.5 -79.5 t-80.5 -194.5zM264 336q0 43 17.5 80t48 64.5t71.5 44t88 16.5t88 -16.5t72 -44t48.5 -64.5t17.5 -80t-17.5 -81t-48.5 -66.5t-71.5 -45t-88.5 -16.5q-47 0 -88 16.5t-71.5 45t-48 66.5t-17.5 81zM309 983q-4 51 36 75.5t112 24.5l-13 -219q-4 -29 -36.5 -55.5t-85.5 -26.5z M358 336q0 -55 38 -93t93 -38t93 38t38 93q0 53 -37.5 92t-93.5 39q-55 0 -93 -39t-38 -92zM526 983q-4 51 36 75.5t112 24.5l-12 -219q-4 -29 -37 -55.5t-86 -26.5z" />
<glyph unicode="&#xe24;&#xe32;" horiz-adv-x="1310" d="M80 551q0 61 30.5 111.5t80 87t112 56t125.5 19.5q74 0 148.5 -27.5t125.5 -78.5q35 51 91.5 78.5t124.5 27.5q55 0 104 -19.5t86 -55t57.5 -87t20.5 -112.5v-789q0 -39 -37 -64.5t-90 -25.5v879q0 84 -40 140.5t-101 56.5q-59 0 -101.5 -57.5t-42.5 -145.5v-783 q0 -39 -37 -64.5t-88 -25.5v879q0 39 -17.5 73.5t-48 62.5t-70.5 44.5t-85 16.5t-84 -15.5t-69.5 -41t-49 -59.5t-20.5 -71q2 -6 14 -27.5t25 -46.5q14 -29 32 -61l7 -20v-160q6 2 24 2q63 0 106.5 -38t43.5 -91t-43 -92t-107 -39q-63 0 -106 39t-43 92v276q-2 4 -13.5 25.5 t-23.5 46.5q-16 29 -35 63q-6 12 -6 21zM242 119q0 -29 18.5 -47.5t46.5 -18.5q29 0 47.5 18.5t18.5 47.5t-18.5 47t-47.5 18t-47 -18t-18 -47z" />
<glyph unicode="&#xe26;&#xe32;" horiz-adv-x="1347" d="M59 119q0 53 44 91t106 38q16 0 24 -2v145q-4 6 -22 29.5t-39 50.5q-23 31 -53 68q-2 0 -2 12q0 61 30.5 112.5t79.5 87t111 55t125 19.5q76 0 150.5 -27.5t123.5 -78.5q35 51 92.5 78.5t124.5 27.5q55 0 104.5 -19.5t86.5 -55t57.5 -87t20.5 -112.5v-789 q0 -39 -37 -64.5t-90 -25.5v879q0 84 -40 140.5t-102 56.5q-57 0 -100 -56.5t-43 -140.5v-789q0 -39 -37 -64.5t-88 -25.5v879q0 39 -17.5 73.5t-48 62.5t-71.5 44.5t-86 16.5q-43 0 -83 -15.5t-69.5 -41t-48 -59.5t-20.5 -71q4 -6 19 -27.5t34 -44.5q23 -27 49 -59 q6 -8 11 -15t5 -12v-284q0 -53 -44 -92t-107 -39q-61 0 -105.5 39t-44.5 92zM143 119q0 -29 18.5 -47.5t47.5 -18.5t47 18.5t18 47.5t-18 47t-47 18t-47.5 -18t-18.5 -47z" />
<glyph unicode="fi" horiz-adv-x="770" d="M18 623q0 74 91 73h26v101q0 78 60.5 133t164.5 55q51 0 71 -31.5t1 -66.5q-51 23 -72 22q-49 0 -75.5 -32.5t-26.5 -79.5v-101h389v-630q0 -78 -121 -78v635h-268v-557q0 -78 -123 -78v635h-117zM492 885q0 -31 26.5 -52.5t67.5 -21.5t66.5 21.5t25.5 52.5 q0 29 -25.5 50t-66.5 21t-67.5 -21t-26.5 -50z" />
<glyph unicode="fl" horiz-adv-x="843" d="M18 623q0 74 91 73h26v101q0 78 60.5 133t164.5 55q68 0 148 -18.5t139 -63.5v-727q0 -47 26.5 -80t78.5 -33q23 0 71 25q18 -35 -1 -67.5t-70 -32.5q-104 0 -165 55t-61 133v705q-86 29 -166 28q-49 0 -75.5 -32.5t-26.5 -79.5v-101h127q0 -74 -90 -73h-37v-557 q0 -78 -123 -78v635h-117z" />
<glyph unicode="KtwoDesign&#x28;c&#x29;" horiz-adv-x="1415" d="M119 -2v152h33v-62l59 62h41l-59 -60l65 -92h-41l-47 70l-18 -21v-49h-33zM119 174v1464h1177v-1464h-368l-234 299q29 33 49.5 71t20.5 85q0 78 -54.5 126t-138.5 48q-39 0 -71 -12l-103 131l262 241h-75l-340 -313v313h-56v-989h-69zM244 174v606l112 105l95 -121 q-78 -61 -78 -182h55q0 31 8 62.5t24.5 56t44 40t64.5 15.5q53 0 96.5 -34t43.5 -93q0 -53 -33 -95t-76 -71q-39 -27 -81 -54.5t-77.5 -61.5t-58.5 -76t-25 -97h-114zM258 88v21h18v32h31v-32h21v-21h-21v-55q0 -8 4 -10.5t8 -2.5q6 0 9 3v-25h-31q-20 0 -21 25v65h-18z M332 109h33l18 -74h2l18 74h29l19 -74h2l18 74h31l-33 -111h-33l-18 74l-19 -74h-32zM422 227q6 35 26.5 60.5t47 46t56.5 38t56 36.5q27 14 47 30l205 -264h-92v53h-346zM512 53q0 29 17 43.5t40 14.5q29 0 42.5 -17.5t13.5 -40.5q0 -27 -16.5 -42t-39.5 -15 q-27 0 -42 17.5t-15 39.5zM543 53q-1 -35 26 -35q16 0 21.5 12.5t5.5 22.5q0 35 -27 35q-16 0 -21 -12.5t-5 -22.5zM641 55q0 23 13.5 39.5t33.5 16.5q25 0 33 -17v56h31v-152h-29v14q-10 -16 -33 -16q-27 0 -38 18.5t-11 40.5zM670 53q0 -14 7 -24.5t19 -10.5 q16 0 21.5 12.5t5.5 22.5q0 35 -27 35q-16 0 -21 -11t-5 -24zM770 53q0 29 16.5 43.5t38.5 14.5q29 0 41.5 -20.5t12.5 -43.5h-80q-1 -29 26 -29q8 0 16.5 4.5t8.5 10.5h27q-12 -37 -52 -37q-27 0 -41 17.5t-14 39.5zM799 66h49q0 10 -7.5 16t-15.5 6q-12 0 -19 -7t-7 -15z M809 563q0 -41 12.5 -84t37 -77.5t63.5 -56t92 -21.5q49 0 95 25.5t67 72.5v-86h51v827h-58v-458q-12 47 -59 72.5t-96 25.5t-87 -19.5t-63.5 -52.5t-40 -77t-14.5 -91zM864 563q0 31 8.5 66t27 62.5t46 46t66.5 18.5q76 0 117.5 -57.5t41.5 -135.5q0 -35 -9 -69.5 t-28.5 -62.5t-50 -45t-71.5 -17q-37 0 -64.5 17t-46 45t-28 62.5t-9.5 69.5zM891 35h29q0 -10 8 -14.5t14 -4.5q20 0 21 15q0 8 -11.5 10t-24 5t-23.5 9t-11 21q0 23 16.5 29t32.5 6q20 0 33.5 -9.5t13.5 -25.5h-28q0 10 -7.5 12t-13.5 2q-16 0 -16 -10q0 -8 11 -11 t23.5 -6.5t23.5 -8.5t11 -19q0 -23 -17.5 -31t-33.5 -8q-23 0 -37 11t-14 28zM1012 -2v111h28v-111h-28zM1012 125v25h28v-25h-28zM1061 57q0 23 13 38.5t34 15.5q23 0 33 -17v15h28v-103q0 -27 -16 -38t-39 -11q-18 0 -33.5 10t-15.5 25h31q0 -8 8 -11.5t14 -3.5 q23 0 23 27v14q-4 -10 -14.5 -13t-18.5 -3q-25 0 -36 17.5t-11 37.5zM1092 57q0 -33 24 -32q14 0 19.5 10t5.5 20q0 18 -8.5 25.5t-16.5 7.5q-14 0 -19 -10t-5 -21zM1194 -2v111h29v-17q12 18 34 19q23 0 31 -14.5t8 -30.5v-68h-28v63q0 27 -21 27q-14 0 -18 -11t-4 -22v-57 h-31z" />
<glyph unicode="&#xd;" horiz-adv-x="452" />
<glyph unicode=" "  horiz-adv-x="819" />
<glyph unicode="&#x09;" horiz-adv-x="819" />
<glyph unicode="&#xa0;" horiz-adv-x="819" />
<glyph unicode="!" horiz-adv-x="342" d="M70 68q0 35 28.5 57t71.5 22q41 0 70.5 -22.5t29.5 -56.5q0 -35 -29.5 -57.5t-70.5 -22.5q-43 0 -71.5 22.5t-28.5 57.5zM90 870q-2 53 42 84t124 31l-25 -709q-2 -39 -29.5 -60t-90.5 -21z" />
<glyph unicode="&#x22;" horiz-adv-x="557" d="M98 885q-4 51 36 75.5t112 24.5l-13 -219q-4 -29 -36.5 -55.5t-85.5 -26.5zM315 885q-4 51 36 75.5t112 24.5l-12 -219q-4 -29 -37 -55.5t-86 -26.5z" />
<glyph unicode="#" horiz-adv-x="886" d="M61 299q0 74 89 74h100l26 217h-182q0 72 88 72h103l30 258q8 78 125 63l-39 -321h119l31 258q8 78 125 63l-39 -321h186q0 -72 -90 -72h-104l-25 -217h187q0 -74 -91 -74h-104q-6 -63 -14.5 -125.5t-14.5 -122.5q-10 -78 -127 -61l37 309h-119q-4 -63 -12 -125.5 t-14 -122.5q-10 -78 -127 -61l37 309h-181zM367 373h118l27 217h-119z" />
<glyph unicode="$" horiz-adv-x="968" d="M82 252q-6 27 4 46t28.5 31.5t43 18.5t49.5 6q-2 -4 -2 -11v-13v-21q0 -43 16.5 -81t45 -69.5t68.5 -53t87 -29.5v393q-72 14 -127 32.5t-92 44t-57.5 60.5t-24.5 86q-6 51 13.5 100.5t58 88.5t97 65.5t132.5 34.5v33q0 74 119 73v-106q129 -16 204.5 -87t92.5 -173 q4 -27 -7.5 -45.5t-31 -30.5t-44 -17t-46.5 -5q2 10 2 21v22q0 86 -44 150.5t-126 80.5v-362q74 -14 135 -30t106 -40.5t73 -61t32 -92.5q2 -59 -23.5 -113.5t-74 -97.5t-112 -71.5t-136.5 -36.5v-33q0 -74 -119 -74v107q-66 8 -122 30.5t-101 56.5t-76 78t-41 95zM250 700 q4 -59 46 -90.5t126 -52.5v340q-43 -8 -76 -27.5t-56.5 -46t-33.5 -58.5t-6 -65zM541 76q45 8 86 30.5t69.5 53t45 68.5t14.5 77q-6 61 -63.5 90t-151.5 51v-370z" />
<glyph unicode="%" horiz-adv-x="1202" d="M86 580v237q0 33 17.5 62.5t48 52t72.5 35t89 12.5t88 -12.5t72 -35t48.5 -52t17.5 -62.5v-237q0 -35 -17.5 -65t-48.5 -51.5t-72 -34.5t-88 -13t-89 13t-72.5 34.5t-48 51.5t-17.5 65zM201 580q0 -41 32.5 -69t79.5 -28q45 0 78 28t33 69v237q0 41 -33 67.5t-78 26.5 q-47 0 -79.5 -26.5t-32.5 -67.5v-237zM274 -31l510 1014q20 37 55 46t87 -17l-510 -1014q-39 -82 -142 -29zM659 156v237q0 70 66 117t162 47q94 0 159.5 -47t65.5 -117v-237q0 -33 -17.5 -63t-48 -51.5t-71.5 -34.5t-88 -13t-89 13t-73 34.5t-48.5 51.5t-17.5 63zM774 156 q0 -39 33 -67t80 -28q45 0 76.5 28t31.5 67v237q0 41 -31.5 68.5t-76.5 27.5q-47 0 -80 -27.5t-33 -68.5v-237z" />
<glyph unicode="&#x26;" horiz-adv-x="921" d="M45 260q0 100 58.5 173t144.5 118q-41 53 -64.5 103.5t-23.5 97.5q0 45 17.5 88t51 74.5t82.5 51t115 19.5q100 0 163.5 -52t63.5 -142q0 -78 -64.5 -147t-180.5 -122q78 -88 149.5 -167t118.5 -124q33 39 51 86.5t18 131.5q63 0 91 -21.5t28 -56.5q0 -49 -33.5 -102.5 t-78.5 -104.5l14 -12q31 -31 65.5 -67t71.5 -67q-29 -31 -67.5 -34.5t-73.5 28.5l-80 80q-70 -49 -156 -76.5t-164 -27.5q-66 0 -124 20.5t-101 56t-67.5 86t-24.5 109.5zM174 270q0 -98 58.5 -149t144.5 -51q70 0 129 25.5t106 64.5q-23 23 -58.5 59.5t-76.5 79.5t-85 90 t-83 92q-23 -14 -46 -32.5t-43.5 -45t-33 -59.5t-12.5 -74zM291 760q0 -59 22.5 -96t46.5 -72q72 37 119 79.5t47 110.5q0 47 -24.5 85t-83.5 38t-93 -43t-34 -102z" />
<glyph unicode="'" horiz-adv-x="339" d="M98 885q-4 51 36 75.5t110 24.5l-13 -219q-4 -29 -35.5 -55.5t-84.5 -26.5z" />
<glyph unicode="(" horiz-adv-x="432" d="M92 418q0 96 17.5 179t45 152.5t64.5 129t76 108.5q25 33 60.5 31t58.5 -33q-90 -109 -140.5 -245t-50.5 -322t50.5 -321.5t140.5 -243.5q-23 -31 -59 -33t-60 30q-39 49 -76 108.5t-64.5 129.5t-45 152t-17.5 178z" />
<glyph unicode=")" horiz-adv-x="438" d="M24 -147q90 109 140.5 245t50.5 322t-50.5 321.5t-140.5 243.5q23 31 59 33t60 -30q39 -49 76 -108.5t64.5 -129.5t45 -152t17.5 -178t-17.5 -179t-45 -152.5t-64.5 -129t-76 -108.5q-25 -33 -60.5 -31t-58.5 33z" />
<glyph unicode="*" horiz-adv-x="630" d="M39 721v90l209 -16q-10 16 -24.5 31.5t-24.5 31.5l-78 103l112 67l80 -158l23 45q10 23 27.5 57t27.5 56l111 -65l-127 -168l80 6q27 2 65.5 5t65.5 7v-92l-209 12q14 -20 29.5 -38.5t29.5 -39.5h-2q16 -20 33.5 -41.5t34.5 -42.5l-115 -61l-82 164q-4 -10 -10 -22.5 t-10 -22.5l-66 -119l-98 63l123 164l-76 -6q-27 -4 -67 -6t-62 -4z" />
<glyph unicode="+" horiz-adv-x="860" d="M59 369q0 76 93 75h213v230q0 82 127 82v-312h307q0 -76 -94 -75h-213v-232q0 -80 -127 -80v312h-306z" />
<glyph unicode="," horiz-adv-x="303" d="M53 68q0 35 29 57t72 22t71.5 -22.5t28.5 -56.5q0 -59 -10.5 -102.5t-26.5 -73t-36.5 -50t-39.5 -37.5q-14 -10 -35.5 -9t-33.5 14q80 70 82 178q-43 0 -72 22.5t-29 57.5z" />
<glyph unicode="-" horiz-adv-x="522" d="M57 367q0 80 95 79h311q0 -80 -94 -79h-312z" />
<glyph unicode="." horiz-adv-x="309" d="M53 68q0 35 29 57t72 22t71.5 -22.5t28.5 -56.5q0 -35 -28.5 -57.5t-71.5 -22.5t-72 22.5t-29 57.5z" />
<glyph unicode="/" horiz-adv-x="612" d="M-20 -35l509 1014q20 37 55.5 46t86.5 -17l-510 -1014q-39 -82 -141 -29z" />
<glyph unicode="0" horiz-adv-x="983" d="M113 266v441q0 57 29.5 108t80.5 89t120 59.5t146 21.5q78 0 148 -21.5t121 -59.5t80.5 -89t29.5 -108v-441q0 -57 -29.5 -108.5t-80.5 -89t-121 -59t-148 -21.5t-146.5 21.5t-119.5 59t-80.5 89t-29.5 108.5zM242 266q0 -41 19.5 -76.5t53 -62.5t78.5 -42t96 -15 t96.5 15t79 42t53 62.5t19.5 76.5v441q0 41 -19.5 76.5t-53 62t-78.5 42t-97 15.5q-51 0 -96 -15.5t-78.5 -42t-53 -62t-19.5 -76.5v-441z" />
<glyph unicode="1" horiz-adv-x="983" d="M303 973h229q29 0 46.5 -13.5t17.5 -29.5v-856q0 -86 -131 -86v905h-66q-96 0 -96 80z" />
<glyph unicode="2" horiz-adv-x="983" d="M117 37q0 117 85 221t249 180l47 21q37 16 80 36.5t78.5 48t59 62.5t23.5 82q0 43 -19.5 83t-53 68.5t-78.5 46t-96 17.5t-96.5 -17.5t-79 -46t-54 -68.5t-20.5 -83v-21.5t4 -23.5q-49 0 -87 27.5t-40 58.5q10 59 47 106.5t88 81t113.5 51t124.5 17.5q63 0 129.5 -19.5 t122 -57.5t90 -93t34.5 -127q0 -59 -32.5 -106t-85 -86t-118 -71t-128.5 -60q-111 -53 -176.5 -126t-79.5 -157h516q47 0 75.5 -20.5t28.5 -61.5h-692q-23 0 -41 10t-18 27z" />
<glyph unicode="3" horiz-adv-x="983" d="M119 238q-4 41 24.5 64.5t102.5 21.5q-2 -10 -3 -20.5t-1 -24.5q0 -43 19.5 -82t53 -67t78.5 -44t96 -16t96.5 16t79 44t53 67t19.5 82t-19.5 80.5t-53 66.5t-78.5 45t-97 16q-29 0 -47 12.5t-18 30.5t18.5 29.5t46.5 11.5q80 0 136.5 48.5t56.5 117.5q0 70 -56.5 118 t-136.5 48q-39 0 -73.5 -13t-61 -36t-42 -52.5t-15.5 -64.5v-19t4 -24q-27 -2 -52.5 2t-45 15.5t-28.5 27.5t-5 39q6 37 31.5 75t66.5 66.5t97.5 47t123.5 18.5q68 0 126.5 -19.5t102.5 -53t69.5 -79t25.5 -96.5q0 -61 -39 -114.5t-104 -90.5q92 -37 145 -105.5t53 -147.5 q0 -59 -29.5 -112.5t-80.5 -93.5t-121 -62.5t-148 -22.5t-144 22.5t-115.5 58t-78 80t-32.5 89.5z" />
<glyph unicode="4" horiz-adv-x="983" d="M83 264.5q-17 22.5 1 44.5l561 662q14 16 33.5 21t36 0t29 -17t14.5 -33v-618h164q0 -82 -97 -82h-67v-168q0 -86 -129 -86v254h-498q-31 0 -48 22.5zM231 324h398v464z" />
<glyph unicode="5" horiz-adv-x="983" d="M119 305q-4 41 24.5 63.5t102.5 20.5q-4 -20 -4 -43q0 -57 19.5 -107.5t53 -88t78.5 -59t96 -21.5t96.5 21.5t79 59t53 88t19.5 107.5t-19.5 107.5t-53 88.5t-78.5 59.5t-97 21.5q-57 0 -103 -26t-81 -67q-18 -18 -41.5 -24t-43 -1t-31 20.5t-3.5 39.5l127 375l-2 -2 q4 16 22.5 25.5t41.5 9.5h428q0 -80 -98 -80h-285l-68 -215q57 25 137 24q78 0 148 -27.5t121 -76.5t80.5 -113.5t29.5 -138.5t-29.5 -139.5t-80.5 -114.5t-121 -76.5t-148 -27.5t-144 25.5t-114.5 69.5t-78 101.5t-33.5 120.5z" />
<glyph unicode="6" horiz-adv-x="983" d="M113 346q0 70 31.5 136.5t80.5 119.5l332 354q66 70 141 2l-239 -258q10 2 30 2q78 0 148 -27.5t121 -76.5t80.5 -113.5t29.5 -138.5t-29.5 -139.5t-80.5 -114.5t-121 -76.5t-148 -27.5t-146.5 27.5t-119.5 76.5t-80.5 114.5t-29.5 139.5zM242 346q0 -57 19.5 -107.5 t53 -88t78.5 -59t96 -21.5t96.5 21.5t79 59t53 88t19.5 107.5t-19.5 107.5t-53 88.5t-78.5 59.5t-97 21.5q-51 0 -96 -21.5t-78.5 -59.5t-53 -88.5t-19.5 -107.5z" />
<glyph unicode="7" horiz-adv-x="983" d="M127 973h688q29 0 49.5 -20.5t9.5 -45.5l-452 -876q-41 -76 -143 -25l452 887h-508q-96 0 -96 80z" />
<glyph unicode="8" horiz-adv-x="983" d="M113 279q0 78 54 146.5t140 106.5q-66 37 -103.5 91.5t-37.5 113.5q0 51 25.5 96.5t69.5 79t102.5 53t125.5 19.5q68 0 126.5 -19.5t102.5 -53t69.5 -79t25.5 -96.5q0 -61 -39 -114.5t-104 -90.5q92 -37 145 -105.5t53 -147.5q0 -59 -29.5 -112.5t-80.5 -93.5t-121 -62.5 t-148 -22.5t-146.5 22.5t-119.5 62.5t-80.5 93t-29.5 113zM242 279q0 -43 19.5 -82t53 -67t78.5 -44t96 -16t96.5 16t79 44t53 67t19.5 82t-19.5 80.5t-53 66.5t-78.5 45t-97 16q-51 0 -96 -16t-78.5 -45t-53 -66.5t-19.5 -80.5zM297 737q0 -70 56.5 -118t135.5 -48 q80 0 136.5 48.5t56.5 117.5q0 70 -56.5 118t-136.5 48t-136 -48t-56 -118z" />
<glyph unicode="9" horiz-adv-x="983" d="M113 629q0 74 29.5 138t80.5 113.5t120 77t146 27.5q78 0 148 -27.5t121 -77t80.5 -114t29.5 -137.5q0 -72 -32.5 -137.5t-81.5 -118.5l-332 -357q-63 -70 -141 -2l237 256h-29q-78 0 -146.5 28t-119.5 77t-80.5 114.5t-29.5 139.5zM242 629q0 -57 19.5 -107.5t53 -88.5 t78.5 -59.5t96 -21.5t96.5 21.5t79 59.5t53 88t19.5 108q0 57 -19.5 107t-53 87t-78.5 58.5t-97 21.5q-51 0 -96 -21.5t-78.5 -58.5t-53 -87t-19.5 -107z" />
<glyph unicode=":" horiz-adv-x="309" d="M53 68q0 35 29 57t72 22t71.5 -22.5t28.5 -56.5q0 -35 -28.5 -57.5t-71.5 -22.5t-72 22.5t-29 57.5zM53 590q0 35 29 57t72 22t71.5 -22.5t28.5 -56.5q0 -35 -28.5 -57.5t-71.5 -22.5t-72 22.5t-29 57.5z" />
<glyph unicode=";" horiz-adv-x="309" d="M53 68q0 35 29 57t72 22t71.5 -22.5t28.5 -56.5q0 -59 -10.5 -102.5t-26.5 -73t-36.5 -50t-39.5 -37.5q-14 -10 -35.5 -9t-33.5 14q80 70 82 178q-43 0 -72 22.5t-29 57.5zM53 590q0 35 29 57t72 22t71.5 -22.5t28.5 -56.5q0 -35 -28.5 -57.5t-71.5 -22.5t-72 22.5 t-29 57.5z" />
<glyph unicode="&#x3c;" horiz-adv-x="860" d="M63 406q0 14 29 30l690 381q16 -37 9 -67.5t-35 -47.5l-541 -296q135 -74 270.5 -148t270.5 -147q29 -16 36 -47t-10 -68l-690 381q-29 12 -29 29z" />
<glyph unicode="=" horiz-adv-x="860" d="M59 246q0 78 93 78h647q0 -78 -94 -78h-646zM59 489q0 78 93 78h647q0 -78 -94 -78h-646z" />
<glyph unicode="&#x3e;" horiz-adv-x="860" d="M74 749q-7 31 10 68l690 -381q29 -12 29 -29q0 -14 -29 -30l-690 -381q-16 37 -9 67.5t35 47.5l541 296q-135 74 -270.5 148t-270.5 147q-29 16 -36 47z" />
<glyph unicode="?" horiz-adv-x="724" d="M47 752q10 49 38 92t68 73.5t91 49t108 18.5q61 0 117.5 -18.5t99.5 -54t68 -86t25 -113.5q0 -45 -13.5 -81t-35 -64.5t-48 -53.5t-53.5 -47q-39 -31 -67.5 -62.5t-28.5 -85.5v-43q0 -82 -125 -81v124q2 70 42 116t89 87q43 35 79 77t36 114q0 86 -52.5 140t-132.5 54 q-74 0 -128 -52t-54 -142v-22.5t2 -20.5q-47 0 -85 25.5t-40 56.5zM254 68q0 35 28.5 57t69.5 22q43 0 73 -22.5t30 -56.5q0 -35 -30 -57.5t-73 -22.5q-41 0 -69.5 22.5t-28.5 57.5z" />
<glyph unicode="@" horiz-adv-x="1191" d="M100 492q0 100 41 190t112 157.5t164 106.5t197 39q98 0 185.5 -30.5t151 -86t100 -131t36.5 -164.5q0 -82 -30.5 -152.5t-77.5 -122.5t-104.5 -83t-112.5 -31q-80 0 -109 62q-33 -25 -74.5 -43.5t-86.5 -18.5q-49 0 -88 16.5t-65 44t-40 63.5t-14 75q0 74 25.5 146.5 t71.5 129t110.5 91t144.5 34.5q41 0 78 -13t63 -52l15 39h116l-129 -398l-6 -18q-4 -12 -8 -25.5t-4 -29.5q0 -33 14 -33q33 0 68 28.5t62.5 73.5t45 102.5t17.5 116.5q0 78 -29 141.5t-77 107.5t-112.5 69t-134.5 25q-86 0 -158.5 -35t-125.5 -94.5t-84 -139.5t-31 -168 q0 -86 31 -163.5t85 -135t128 -91.5t157 -34q94 0 183.5 48.5t148.5 134.5q27 37 54.5 33.5t56.5 -37.5q-66 -113 -183.5 -180.5t-259.5 -67.5q-111 0 -205 40t-163.5 108.5t-109.5 160.5t-40 195zM418 391q0 -59 24.5 -96t67.5 -37t79 34t63.5 84t43 107.5t15.5 102.5 q0 47 -22.5 85t-57.5 38q-47 0 -87 -31t-67.5 -78t-43 -103.5t-15.5 -105.5z" />
<glyph unicode="A" horiz-adv-x="901" d="M47 100l342 861q10 26 56 26h4q20 0 37.5 -7t23.5 -19l342 -861q4 -11 4 -21q0 -23 -18 -47q-26 -36 -72 -55l-131 338h-371q-33 -82 -65.5 -170t-65.5 -168q-51 19 -75 55q-16 24 -15 46q0 11 4 22zM297 397h307l-155 400z" />
<glyph unicode="B" horiz-adv-x="993" d="M119 45v885q0 20 18.5 32.5t46.5 12.5h398q57 0 106 -21.5t85 -58.5t56.5 -84t20.5 -98q0 -53 -28.5 -110.5t-86.5 -88.5q92 -27 144.5 -94.5t52.5 -153.5q0 -53 -18.5 -101t-52.5 -85t-84 -58.5t-113 -21.5h-480q-29 0 -47 13.5t-18 31.5zM250 82h414q59 0 99 49t40 135 t-40 134.5t-99 48.5h-414v-367zM250 530h332q29 0 54.5 16.5t43.5 42t29.5 58.5t11.5 66t-11.5 64.5t-29.5 58t-44 43t-54 16.5h-332v-365z" />
<glyph unicode="C" horiz-adv-x="991" d="M98 309v359q0 74 36 133t94.5 100t130 63.5t145.5 22.5q66 0 130 -16.5t119.5 -48t95.5 -80.5t56 -115q6 -29 -4 -48.5t-29.5 -31.5t-44 -18t-47.5 -6q2 10 2 22v23q0 49 -21.5 92t-59 75.5t-89 51t-108.5 18.5t-107.5 -18.5t-87.5 -51t-58.5 -75.5t-21.5 -92v-359 q0 -49 21.5 -93t58.5 -75.5t87 -51t108 -19.5q57 0 108.5 19.5t89 51t59 75.5t21.5 93v22.5t-2 22.5q23 0 46.5 -6t42 -18.5t29.5 -31.5t7 -46q-12 -59 -52 -108.5t-95.5 -84t-121 -53t-132.5 -18.5q-72 0 -143.5 21.5t-130 63.5t-95.5 101t-37 135z" />
<glyph unicode="D" horiz-adv-x="1032" d="M119 45v885q0 20 18.5 32.5t46.5 12.5h340q72 0 143.5 -21.5t130 -61.5t95.5 -100.5t37 -136.5v-333q0 -74 -36 -133.5t-93.5 -101.5t-130 -64.5t-146.5 -22.5h-340q-29 0 -47 13.5t-18 31.5zM250 82h274q57 0 107.5 19.5t88.5 51t60.5 75.5t22.5 94v333q0 49 -22.5 93.5 t-60.5 76t-88 51t-108 19.5h-274v-813z" />
<glyph unicode="E" horiz-adv-x="991" d="M98 309v359q0 74 36 133t94.5 100t130 63.5t145.5 22.5q66 0 130 -16.5t119.5 -48t95.5 -80.5t56 -115q6 -29 -4 -48.5t-29.5 -31.5t-44 -18t-47.5 -6q2 10 2 22v23q0 49 -21.5 92t-59 75.5t-89 51t-108.5 18.5t-107.5 -18.5t-87.5 -51t-58.5 -75.5t-21.5 -92v-138h404 q0 -81 -96 -81h-2h-306v-140q0 -49 21.5 -93t58.5 -75.5t87 -51t108 -19.5q57 0 108.5 19.5t89 51t59 75.5t21.5 93v22.5t-2 22.5q23 0 46.5 -6t42 -18.5t29.5 -31.5t7 -46q-12 -59 -52 -108.5t-95.5 -84t-121 -53t-132.5 -18.5q-72 0 -143.5 21.5t-130 63.5t-95.5 101 t-37 135z" />
<glyph unicode="F" horiz-adv-x="991" d="M98 -12v680q0 74 36 133t94.5 100t130 63.5t145.5 22.5q66 0 129 -16.5t117.5 -48t95.5 -80.5t59 -115q6 -29 -4 -48.5t-29.5 -31.5t-44 -18t-47.5 -6q2 10 2 22v23q0 49 -21.5 92t-59 75.5t-89 51t-108.5 18.5t-107.5 -18.5t-87.5 -51t-58.5 -75.5t-21.5 -92v-138h404 q0 -81 -96 -81h-2h-306v-375q0 -86 -131 -86z" />
<glyph unicode="G" horiz-adv-x="1011" d="M98 309v359q0 74 36 133t94.5 100t130 63.5t145.5 22.5q66 0 130 -16.5t119.5 -48t95.5 -80.5t56 -115q6 -29 -4 -48.5t-29.5 -31.5t-44 -18t-47.5 -6q2 10 2 22v23q0 49 -21.5 92t-59 75.5t-89 51t-108.5 18.5t-107.5 -18.5t-87.5 -51t-58.5 -75.5t-21.5 -92v-359 q0 -49 21.5 -93t58.5 -75.5t87 -51t108 -19.5q57 0 107.5 19.5t88 51t59 75.5t21.5 93v140h-299q0 81 97 81h2h264q29 0 47 -13t18 -32v-176q0 -76 -36.5 -135t-95 -101t-130.5 -63.5t-143 -21.5q-72 0 -143.5 21.5t-130 63.5t-95.5 101t-37 135z" />
<glyph unicode="H" horiz-adv-x="1052" d="M119 -12v913q0 86 131 86v-457h551v371q0 86 129 86v-913q0 -86 -129 -86v461h-551v-375q0 -86 -131 -86z" />
<glyph unicode="I" horiz-adv-x="368" d="M119 -12v913q0 86 131 86v-913q0 -86 -131 -86z" />
<glyph unicode="J" horiz-adv-x="911" d="M84 252q-2 10 -2 19q0 40 36 59q44 24 95 24q-2 -10 -3 -21.5t-1 -23.5q0 -49 18.5 -93t51 -75.5t74.5 -51t91 -19.5t91.5 19.5t75 51t51 75.5t18.5 93v586h-168q-98 0 -98 80h334q27 0 44 -12.5t17 -32.5v-621q0 -66 -28.5 -124t-78 -102t-116 -69.5t-142.5 -25.5 q-68 0 -129 20.5t-108 55t-79 84t-44 104.5z" />
<glyph unicode="K" horiz-adv-x="970" d="M119 -12v913q0 86 131 86v-481q129 123 260 250t258 245q38 -39 38 -72q0 -27 -24 -50l-311 -297l-14 -7q6 2 13 2.5t13 0.5q76 0 142.5 -26t116 -69t78 -101t28.5 -126v-182q0 -86 -129 -86v268q0 49 -18.5 93t-51.5 77t-75 52.5t-91 19.5q-47 0 -90 -19.5t-74.5 -52.5 t-50 -77t-18.5 -93v-182q0 -86 -131 -86z" />
<glyph unicode="L" horiz-adv-x="888" d="M119 45v856q0 86 131 86v-905h502q96 0 96 -82h-664q-29 0 -47 13.5t-18 31.5z" />
<glyph unicode="M" horiz-adv-x="1204" d="M121 -12v913q0 86 127 86l352 -813l352 813q129 0 129 -86v-827q0 -86 -131 -86v700l-291 -672q-6 -10 -21 -19t-38 -9t-38 9t-21 19l-291 672v-614q0 -86 -129 -86z" />
<glyph unicode="N" horiz-adv-x="1052" d="M119 -12v913q0 86 131 86l551 -770v770q129 0 129 -86v-827q0 -86 -107 -86l-573 796v-710q0 -86 -131 -86z" />
<glyph unicode="O" horiz-adv-x="1202" d="M80 487q0 104 40 195.5t110.5 159t164.5 106.5t203 39t204 -39t165.5 -106.5t111.5 -158.5t41 -196q0 -104 -41 -195t-111.5 -158.5t-165.5 -106.5t-204 -39t-203 39t-164.5 106.5t-110.5 158.5t-40 195zM209 487q0 -88 30.5 -163.5t83 -132t124 -89t151.5 -32.5 q82 0 152.5 32.5t124 89t84 132t30.5 163.5q0 86 -30.5 163t-84 133.5t-124 89t-152.5 32.5q-80 0 -151.5 -32.5t-124 -89t-83 -133.5t-30.5 -163z" />
<glyph unicode="P" horiz-adv-x="1011" d="M119 -12v942q0 20 18.5 32.5t46.5 12.5h478q55 0 104 -21.5t86 -58.5t57.5 -84t20.5 -98t-20.5 -99.5t-57.5 -85t-86 -58t-104 -21.5h-412v-375q0 -86 -131 -86zM250 530h412q29 0 54 16.5t43.5 42t30 58.5t11.5 66t-11.5 64.5t-30 58t-44 43t-53.5 16.5h-412v-365z" />
<glyph unicode="Q" horiz-adv-x="1202" d="M80 487q0 104 40 195.5t110.5 159t164.5 106.5t203 39t204 -39t165.5 -106.5t111.5 -158.5t41 -196q0 -109 -43 -201.5t-119 -160.5q37 -29 71 -47.5t67 -18.5l24 -4q0 -49 -32 -65q-14 -6 -34 -6q-24 0 -57 10q-35 10 -65.5 27.5t-57.5 39.5q-59 -35 -129.5 -54 t-146.5 -19q-109 0 -203 39t-164.5 106.5t-110.5 158.5t-40 195zM209 487q0 -27 2 -51t8 -47q84 23 162 23q86 0 173 -26t159 -69q49 -31 80.5 -54t54.5 -46l18 -16l11 -8q53 55 82.5 130.5t29.5 163.5q0 86 -30.5 163t-84 133.5t-124 89t-152.5 32.5q-80 0 -151.5 -32.5 t-124 -89t-83 -133.5t-30.5 -163zM248 301q47 -104 140 -167.5t210 -63.5q111 0 203 57l-13 12v-2q-35 31 -73.5 60.5t-69.5 50.5h2q-63 39 -132 60.5t-134 21.5q-61 0 -133 -29z" />
<glyph unicode="R" horiz-adv-x="1034" d="M119 -12v942q0 20 18.5 32.5t46.5 12.5h478q55 0 104 -21.5t86 -58.5t57.5 -84t20.5 -98q0 -31 -11.5 -64t-30 -63.5t-43 -56t-50.5 -44.5q61 -33 99 -93t38 -126v-192q0 -86 -129 -86v278q0 86 -41 134.5t-100 48.5h-412v-375q0 -86 -131 -86zM250 530h412q29 0 54 16.5 t43.5 42t30 58.5t11.5 66t-11.5 64.5t-30 58t-44 43t-53.5 16.5h-412v-365z" />
<glyph unicode="S" horiz-adv-x="970" d="M80 252q-4 27 6 46t28.5 31.5t43 18.5t49.5 6q-2 -10 -2 -21.5v-23.5q0 -49 21.5 -92t59.5 -75.5t88 -52t107 -19.5t108.5 19.5t90.5 52.5q40 32 60 75q19 39 18 80v8q-4 37 -26.5 61.5t-61.5 42t-90.5 30t-110.5 24.5q-84 16 -146.5 33.5t-106.5 43t-67.5 62.5t-29.5 92 q-1 11 -1 22q0 46 20 88q24 52 71 93t116.5 65.5t155.5 24.5q154 0 246 -75.5t111 -188.5q-2 -45 -43 -72.5t-84 -27.5q2 10 2 22v23q0 49 -15.5 92t-45 74.5t-72.5 51t-99 19.5q-55 0 -99 -17.5t-75 -46t-46 -64.5q-12 -28 -12 -59q0 -8 1 -16q6 -72 66.5 -103.5 t177.5 -55.5q80 -14 150.5 -30.5t122.5 -41.5t84 -62.5t36 -97.5v-14q0 -55 -27 -107q-31 -58 -87 -103.5t-132 -72t-160 -26.5q-76 0 -143.5 20.5t-120.5 55t-89 84t-48 104.5z" />
<glyph unicode="T" horiz-adv-x="804" d="M-2 895q0 80 96 80h711q0 -80 -96 -80h-242v-821q0 -86 -129 -86v907h-340z" />
<glyph unicode="U" horiz-adv-x="1052" d="M119 309v592q0 86 131 86v-678q0 -49 21.5 -93t58.5 -75.5t87 -51t107 -19.5t107.5 19.5t88.5 51t59.5 75.5t21.5 93v592q0 86 129 86v-678q0 -76 -37 -135t-95.5 -101t-130 -63.5t-143.5 -21.5t-143.5 21.5t-129.5 63.5t-95 101t-37 135z" />
<glyph unicode="V" horiz-adv-x="925" d="M20 977q28 12 54 12q18 0 36 -6q44 -14 60 -49l289 -756q74 193 148.5 379t146.5 377q16 35 59 49q18 6 36 6q26 0 54 -12l-381 -963q-14 -26 -58 -26h-3q-47 0 -60 26z" />
<glyph unicode="W" horiz-adv-x="1347" d="M20 981q25 8 49 8q23 0 45 -7q44 -15 54 -52l233 -717l207 653q10 29 62 29q51 0 61 -29l207 -653q57 180 115.5 358.5t117.5 358.5q11 37 55 52q21 7 44 7q24 0 49 -8l-305 -924q-10 -35 -40 -52t-87 -17l-217 680l-217 -680q-57 0 -87 17.5t-40 51.5z" />
<glyph unicode="X" horiz-adv-x="901" d="M23 6l360 496l-340 469q33 23 65 23l17 -2q41 -8 63 -40l261 -360l262 360q25 33 65 40q8 1 15 1q32 0 65 -22l-342 -469l363 -496q-32 -24 -63 -24q-8 0 -17 2q-39 8 -66 43l-282 385l-281 -385q-25 -35 -65 -43q-8 -2 -16 -1z" />
<glyph unicode="Y" horiz-adv-x="860" d="M23 971q33 23 65 23q8 0 16 -2q41 -7 64 -40l260 -360l262 360q25 33 65 40q8 1 16 1q32 0 65 -22l-342 -469v-428q0 -86 -129 -86v514z" />
<glyph unicode="Z" horiz-adv-x="901" d="M39 975h756q33 0 50 -24.5t1 -45.5l-651 -823h569q96 0 96 -82h-758q-33 0 -50 24.5t-1 45.5l651 825h-567q-96 0 -96 80z" />
<glyph unicode="[" horiz-adv-x="432" d="M119 -174v1184h325q0 -82 -98 -82h-100v-1022h100q98 0 98 -80h-325z" />
<glyph unicode="\" horiz-adv-x="612" d="M-20 1008q100 51 141 -29l510 -1014q-47 -25 -84 -15.5t-58 44.5z" />
<glyph unicode="]" horiz-adv-x="432" d="M-4 -174q0 82 98 82h100v1022h-100q-98 0 -98 80h325v-1184h-325z" />
<glyph unicode="^" horiz-adv-x="913" d="M98 291l297 663q14 25 62 25q43 -4 57 -25q74 -166 149.5 -331.5t149.5 -331.5q-39 -20 -82 -12t-57 36q-53 125 -107.5 246t-111.5 250q-55 -125 -110.5 -249t-108.5 -247q-16 -29 -58.5 -37t-79.5 13z" />
<glyph unicode="_" horiz-adv-x="782" d="M0 -307h780v-74h-780v74z" />
<glyph unicode="`" horiz-adv-x="483" d="M84 977h72q90 0 114 -39l119 -180q-53 0 -84 7t-51 28z" />
<glyph unicode="a" horiz-adv-x="798" d="M78 221q0 49 23.5 92t63.5 75t95.5 50.5t116.5 18.5q100 0 178 -45v63q0 31 -14.5 60.5t-38 51t-56 35t-69.5 13.5q-55 0 -108.5 -44t-86.5 -110q-37 29 -51 67q-6 17 -6 31q0 18 10 31q41 45 105.5 72t136.5 27q53 0 106.5 -15.5t96.5 -46.5t69.5 -74t26.5 -98v-409 q0 -78 -121 -78v43q-37 -20 -82 -31.5t-96 -11.5q-61 0 -116.5 18.5t-95.5 50t-63.5 73.5t-23.5 91zM201 221q0 -63 50 -110.5t126 -47.5q78 0 128 47.5t50 110.5q0 66 -50 114t-128 48q-76 0 -126 -48t-50 -114z" />
<glyph unicode="b" horiz-adv-x="819" d="M119 -12v919q0 78 123 78v-321q78 45 176 45q63 0 117.5 -18.5t94.5 -49.5t63.5 -74t23.5 -92v-252q0 -49 -23.5 -91t-63.5 -74.5t-94.5 -51t-117.5 -18.5q-104 0 -180 47q-8 -23 -35 -35t-84 -12zM242 223q0 -66 50 -113t126 -47q78 0 128 47.5t50 112.5v252 q0 63 -50 111.5t-128 48.5q-76 0 -126 -48t-50 -112v-252z" />
<glyph unicode="c" horiz-adv-x="745" d="M98 221v252q0 49 23.5 92t63.5 75t95.5 50.5t116.5 18.5q98 0 172 -40t105 -106q8 -20 1 -37.5t-23.5 -30t-38 -19.5t-38.5 -7q0 33 -13 62.5t-36.5 53t-56.5 37t-72 13.5q-76 0 -126 -48t-50 -114v-252q0 -63 50.5 -110.5t125.5 -47.5q39 0 72 13.5t56.5 36t36.5 52.5 t13 62q16 0 38 -7t38.5 -19.5t23.5 -29.5t-1 -38q-31 -66 -104.5 -105.5t-172.5 -39.5q-61 0 -116.5 18.5t-95.5 50t-63.5 73.5t-23.5 91z" />
<glyph unicode="d" horiz-adv-x="819" d="M98 221v252q0 49 23.5 92t63.5 75t95.5 50.5t116.5 18.5q100 0 178 -45v243q0 78 121 78v-919q0 -78 -121 -78v43q-37 -20 -81.5 -31.5t-96.5 -11.5q-61 0 -116.5 18.5t-95.5 50t-63.5 73.5t-23.5 91zM221 221q0 -63 50.5 -110.5t125.5 -47.5q78 0 128 47.5t50 110.5v252 q0 66 -50 114t-128 48q-76 0 -126 -48t-50 -114v-252z" />
<glyph unicode="e" horiz-adv-x="798" d="M98 221v252q0 49 23.5 92t63.5 75t95.5 50.5t116.5 18.5q63 0 117.5 -18.5t94.5 -50.5t63.5 -75t23.5 -92v-74q0 -16 -19.5 -27.5t-41.5 -11.5h-414v-139q0 -63 50.5 -110.5t125.5 -47.5q39 0 72 13.5t56.5 36t36.5 52.5t13 62q16 0 38 -7t38.5 -19.5t23.5 -29.5t-1 -38 q-31 -66 -104.5 -105.5t-172.5 -39.5q-61 0 -116.5 18.5t-95.5 50t-63.5 73.5t-23.5 91zM221 434h354v39q0 66 -50 114t-128 48q-76 0 -126 -48t-50 -114v-39z" />
<glyph unicode="f" horiz-adv-x="450" d="M16 623q0 73 91 73h2h26v101q0 78 60.5 133t164.5 55q51 0 71 -31q10 -17 10 -34q0 -16 -9 -33q-49 22 -70 22h-2q-51 0 -77.5 -32.5t-26.5 -79.5v-101h129q0 -73 -90 -73h-2h-37v-557q0 -78 -121 -78v635h-119z" />
<glyph unicode="g" horiz-adv-x="819" d="M98 221v252q0 49 23.5 92t63.5 75t95.5 50.5t116.5 18.5q51 0 97.5 -12.5t83.5 -34.5q8 23 34.5 35t83.5 12v-764q0 -49 -23.5 -91t-63.5 -74t-94 -50.5t-118 -18.5q-98 0 -171.5 41t-104.5 107q-10 18 -2 35.5t25.5 30t38 19.5t38.5 7q0 -66 50.5 -115t125.5 -49 q78 0 128 48t50 110v86q-37 -20 -81.5 -31.5t-96.5 -11.5q-61 0 -116.5 18.5t-95.5 50t-63.5 73.5t-23.5 91zM221 221q0 -63 50.5 -110.5t125.5 -47.5q78 0 128 47.5t50 110.5v252q0 66 -50 114t-128 48q-76 0 -126 -48t-50 -114v-252z" />
<glyph unicode="h" horiz-adv-x="839" d="M119 -12v919q0 78 123 78v-321q78 45 176 45q63 0 117.5 -18.5t94.5 -50.5t63.5 -75t23.5 -92v-407q0 -78 -121 -78v485q0 66 -50 114t-128 48q-76 0 -126 -48t-50 -114v-407q0 -78 -123 -78z" />
<glyph unicode="i" horiz-adv-x="360" d="M86 885q0 29 26.5 50t67.5 21t66.5 -21.5t25.5 -49.5q0 -31 -25.5 -52.5t-66.5 -21.5t-67.5 21.5t-26.5 52.5zM119 -12v645q0 76 121 76v-643q0 -78 -121 -78z" />
<glyph unicode="j" horiz-adv-x="360" d="M-57 -188q49 -25 71 -25q51 0 78 33t27 80v733q0 76 121 76v-809q0 -78 -60.5 -133.5t-165.5 -55.5q-51 0 -70 33q-9 17 -9 35q0 16 8 33zM86 885q0 29 26.5 50t67.5 21t66.5 -21.5t25.5 -49.5q0 -31 -25.5 -52.5t-66.5 -21.5t-67.5 21.5t-26.5 52.5z" />
<glyph unicode="k" horiz-adv-x="819" d="M119 -12v919q0 78 123 78v-528l415 264q19 -33 19 -60q0 -39 -41 -63l-160 -102h-20q55 -6 103 -25.5t84 -51.5t55.5 -72t19.5 -85v-196q0 -78 -121 -78v274q0 66 -50 113t-128 47q-76 0 -126 -47t-50 -113v-196q0 -78 -123 -78z" />
<glyph unicode="l" horiz-adv-x="434" d="M119 176v731q0 78 123 78v-809q0 -47 25.5 -80t76.5 -33q23 0 72 25q9 -17 9 -33q-1 -19 -11 -35q-20 -32 -70 -32q-104 0 -164.5 55t-60.5 133z" />
<glyph unicode="m" horiz-adv-x="1110" d="M121 -12v645q0 76 121 76v-25q51 25 125 25q53 0 100 -17.5t82 -48.5q72 66 188 66q51 0 97.5 -14.5t79 -40t52 -60.5t19.5 -74v-454q0 -78 -121 -78v532q0 47 -36.5 81t-90.5 34q-51 0 -87 -34t-36 -81v-454q0 -78 -122 -78v532q0 47 -37 81t-88 34q-53 0 -89 -34 t-36 -81v-454q0 -78 -121 -78z" />
<glyph unicode="n" horiz-adv-x="839" d="M119 -12v645q0 76 123 76v-45q78 45 176 45q63 0 117.5 -18.5t94.5 -50.5t63.5 -75t23.5 -92v-407q0 -78 -121 -78v485q0 66 -50 114t-128 48q-76 0 -126 -48t-50 -114v-407q0 -78 -123 -78z" />
<glyph unicode="o" horiz-adv-x="923" d="M80 348q0 74 29.5 139.5t81 114.5t120 78t148.5 29t149.5 -29t121.5 -78t82 -114.5t30 -139.5q0 -76 -30 -141.5t-82 -114.5t-121.5 -76.5t-149.5 -27.5t-148.5 27.5t-120 76.5t-81 114.5t-29.5 141.5zM201 348q0 -59 20.5 -111.5t55 -91.5t82 -60.5t100.5 -21.5 t100 21.5t83 60.5t56.5 91.5t20.5 111.5t-20.5 111.5t-56.5 91.5t-83 61.5t-100 22.5t-100.5 -22.5t-82 -61.5t-55 -91.5t-20.5 -111.5z" />
<glyph unicode="p" horiz-adv-x="819" d="M119 -289v922q0 76 123 76v-45q78 45 176 45q63 0 117.5 -18.5t94.5 -50.5t63.5 -75t23.5 -92v-252q0 -49 -23.5 -91t-63.5 -73.5t-94.5 -50t-117.5 -18.5q-51 0 -95 11t-81 32v-242q0 -78 -123 -78zM242 221q0 -63 50 -110.5t126 -47.5q78 0 128 47.5t50 110.5v252 q0 66 -50 114t-128 48q-76 0 -126 -48t-50 -114v-252z" />
<glyph unicode="q" horiz-adv-x="819" d="M98 221v252q0 49 23.5 92t63.5 75t95.5 50.5t116.5 18.5q51 0 97.5 -12.5t83.5 -34.5q8 23 34.5 35t83.5 12v-920q0 -78 -121 -78v320q-37 -20 -81.5 -31.5t-96.5 -11.5q-61 0 -116.5 18.5t-95.5 50t-63.5 73.5t-23.5 91zM221 221q0 -63 50.5 -110.5t125.5 -47.5 q78 0 128 47.5t50 110.5v252q0 66 -50 114t-128 48q-76 0 -126 -48t-50 -114v-252z" />
<glyph unicode="r" horiz-adv-x="555" d="M119 -12v645q0 76 123 76v-47q76 47 176 47q23 0 43 -2t37 -7l18 -4q-4 -35 -32 -49q-24 -12 -58 -12h-10q-74 -4 -124 -51t-50 -111v-407q0 -78 -123 -78z" />
<glyph unicode="s" horiz-adv-x="714" d="M61 182q-1 6 -1 12q0 30 25 48q24 18 69 17q12 0 26 -1q-4 -18 -4 -35q0 -22 6 -42q12 -36 39 -62.5t62.5 -41t70.5 -14.5q37 0 71 13.5t58.5 35t38 49t10.5 56.5q-4 47 -58 67.5t-130 37.5q-61 12 -107.5 24t-79 30.5t-50 46.5t-21.5 69q-1 7 -1 14q-1 34 15 66 q18 38 53 69t86.5 49.5t114.5 18.5q119 0 186 -55.5t81 -141.5q1 -6 1 -11q0 -33 -31 -51q-26 -16 -63 -16q-14 0 -28 2q4 20 4 39q0 17 -3 34q-7 36 -27.5 63.5t-51.5 45t-68 17.5q-68 0 -108 -43q-37 -39 -38 -83q0 -4 1 -9q4 -49 41 -68.5t115 -36.5q63 -12 114 -23.5 t89 -29.5t59.5 -47t25.5 -74q1 -7 1 -13q0 -38 -20 -74q-24 -42 -65 -74.5t-97 -52t-118 -19.5q-55 0 -104 14t-89 41t-66.5 62.5t-33.5 76.5z" />
<glyph unicode="t" horiz-adv-x="450" d="M16 623q0 73 91 73h2h26v215q0 78 123 78v-293h127q0 -73 -90 -73h-2h-35v-443q0 -47 25.5 -79.5t76.5 -32.5q23 0 72 24q9 -17 9 -33q-1 -19 -11 -35q-20 -32 -70 -32q-104 0 -164.5 55t-60.5 133v443h-119z" />
<glyph unicode="u" horiz-adv-x="839" d="M119 223v410q0 76 123 76v-486q0 -66 50 -113t126 -47q78 0 128 47.5t50 112.5v410q0 76 121 76v-643q0 -78 -121 -78v43q-37 -20 -82 -31.5t-96 -11.5q-61 0 -116.5 18.5t-95.5 51t-63.5 74.5t-23.5 91z" />
<glyph unicode="v" horiz-adv-x="729" d="M31 696q30 13 56 13q14 0 27 -4q36 -11 48 -41l200 -504l203 504q10 31 46 42q12 4 26 4q27 0 59 -14l-278 -684q-4 -10 -21 -17t-35 -7t-32.5 8t-20.5 16q-68 170 -140.5 342t-137.5 342z" />
<glyph unicode="w" horiz-adv-x="1032" d="M31 698q32 11 57 11q54 0 72 -52q37 -113 80 -233.5t84 -237.5l133 422q4 14 20.5 21.5t36.5 7.5t36.5 -7t20.5 -22l134 -424l163 473q20 51 74 51q24 0 55 -10l-223 -653q-10 -29 -35.5 -43t-79.5 -14l-145 448l-145 -448q-53 0 -79 14t-36 43z" />
<glyph unicode="x" horiz-adv-x="733" d="M33 12l268 359l-235 317q35 27 66 27q37 0 67 -39l166 -221l165 221q30 39 68 39q31 0 68 -27l-238 -317l270 -359q-38 -31 -69 -31q-36 0 -64 39l-200 267l-199 -267q-28 -35 -60 -39h-7q-29 0 -66 31z" />
<glyph unicode="y" horiz-adv-x="729" d="M29 -221q25 0 40 1t29 5q115 31 176 168l31 72l-274 671q30 13 56 13q14 0 27 -4q36 -11 48 -41l200 -504l203 504q10 31 46 42q12 4 26 4q27 0 59 -14l-313 -768q-37 -88 -92.5 -139t-147.5 -74q-23 -5 -41 -5q-65 0 -73 69z" />
<glyph unicode="z" horiz-adv-x="659" d="M29 696h538q14 0 25.5 -7t20 -16t9.5 -21.5t-8 -20.5l-442 -555h367q90 0 90 -76h-541q-29 0 -45 23.5t0 44.5l440 555h-364q-90 0 -90 73z" />
<glyph unicode="{" horiz-adv-x="432" d="M45 418q0 14 13.5 22.5t35.5 8.5q41 0 55.5 31.5t14.5 90.5v258q0 86 41 133.5t119 47.5h120q0 -74 -90 -74h-12q-20 0 -34.5 -17.5t-14.5 -70.5v-262q0 -72 -25.5 -111t-79.5 -57q59 -16 82 -52t23 -114v-262q0 -53 14.5 -71.5t34.5 -18.5h12q90 0 90 -72h-120 q-78 0 -119 46t-41 134v258q0 59 -14.5 90t-55.5 31q-23 0 -36 8.5t-13 22.5z" />
<glyph unicode="|" horiz-adv-x="356" d="M119 -211v1217q0 74 117 73v-1216q0 -74 -117 -74z" />
<glyph unicode="}" horiz-adv-x="432" d="M-4 -172q0 74 90 74h12q20 0 34.5 17.5t14.5 70.5v262q0 72 25.5 111t79.5 57q-59 16 -82 52t-23 114v262q0 53 -14.5 71.5t-34.5 18.5h-12q-90 0 -90 72h120q78 0 119 -46t41 -134v-258q0 -59 14.5 -90t55.5 -31q23 0 36 -8.5t13 -22.5t-13.5 -22.5t-35.5 -8.5 q-41 0 -55.5 -31.5t-14.5 -90.5v-258q0 -86 -41 -133.5t-119 -47.5h-120z" />
<glyph unicode="~" horiz-adv-x="927" d="M72.5 420q5.5 29 42.5 49q55 27 147 27q98 0 209 -52q113 -49 166 -49q86 0 174 103q39 -29 45 -63t-25 -56h3q-39 -33 -88.5 -47.5t-108.5 -14.5q-88 0 -219 56q-90 41 -156 41q-43 0 -81 -17.5t-79 -52.5q-35 47 -29.5 76z" />
<glyph unicode="&#xa1;" horiz-adv-x="342" d="M72 631q0 33 29.5 55.5t72.5 22.5q41 0 69.5 -22.5t28.5 -55.5q0 -35 -28.5 -58.5t-69.5 -23.5q-43 0 -72.5 23.5t-29.5 58.5zM86 -289l25 709q2 39 30.5 60.5t89.5 21.5l21 -674q2 -55 -41 -86t-125 -31z" />
<glyph unicode="&#xa2;" horiz-adv-x="745" d="M100 225v252q0 86 68 149.5t170 80.5v30q0 39 27.5 56.5t91.5 17.5v-102q78 -10 135 -49t84 -93q8 -20 1 -37.5t-23.5 -30t-38 -19.5t-37.5 -7q0 53 -34 96t-87 60v-553q53 16 87 59t34 96q16 0 37.5 -7t38 -19t23.5 -29.5t-1 -38.5q-27 -55 -84 -93t-135 -48v-37 q0 -39 -28 -56.5t-91 -17.5v113q-104 16 -171 78.5t-67 148.5zM223 225q0 -49 31 -91t84 -58v553q-53 -18 -84 -59.5t-31 -92.5v-252z" />
<glyph unicode="&#xa3;" horiz-adv-x="823" d="M82 446q0 82 96 82h74q-6 45 -10 87t-4 90q0 61 21.5 113t60 89t92 57.5t118.5 20.5q59 0 103.5 -12t66.5 -33q23 -18 16 -47t-30 -49q-70 61 -162 61q-80 0 -119.5 -52t-39.5 -151q0 -31 3 -77.5t7 -96.5h237q0 -82 -96 -82h-133q4 -45 8 -79.5t4 -51.5 q0 -86 -26.5 -138t-85.5 -95h379q98 0 98 -82h-660q0 53 45 84q20 12 43 32.5t41.5 48.5t30.5 61.5t12 74.5q0 37 -3 74t-7 71h-180z" />
<glyph unicode="&#xa4;" horiz-adv-x="1050" d="M121 487q0 59 21.5 121t64.5 115l-80 84l78 82l86 -84q49 37 108.5 52t122.5 15q133 0 236 -71l92 90l74 -84l-82 -84q43 -51 63.5 -111.5t20.5 -124.5q0 -59 -20.5 -118.5t-61.5 -112.5l80 -86l-78 -78l-86 86q-49 -39 -110.5 -55.5t-127.5 -16.5t-123 14.5t-108 55.5 l-84 -86l-80 80l78 86q-84 104 -84 231zM250 487q0 -61 21.5 -116.5t58.5 -97.5t87 -65.5t105 -23.5t105.5 23.5t87.5 65.5t58.5 97.5t21.5 116.5t-21.5 116.5t-58.5 97.5t-87 66t-106 24q-55 0 -105 -24t-87 -66t-58.5 -97.5t-21.5 -116.5z" />
<glyph unicode="&#xa5;" horiz-adv-x="860" d="M25 975q41 29 81.5 21.5t63.5 -40.5l260 -360l262 360q25 33 65 40.5t81 -21.5l-260 -354h167q0 -82 -98 -82h-129l-22 -33v-70h249q0 -80 -98 -80h-151v-278q0 -86 -129 -86v364h-256q0 80 98 80h158v70l-25 33h-231q0 82 98 82h74z" />
<glyph unicode="&#xa6;" horiz-adv-x="356" d="M119 -211v504q0 74 117 74v-504q0 -74 -117 -74zM119 502v504q0 74 117 73v-504q0 -74 -117 -73z" />
<glyph unicode="&#xa7;" horiz-adv-x="845" d="M119 545q0 33 20.5 70.5t73.5 78.5q-23 23 -33 48.5t-10 52.5q0 86 77 138t197 52q53 0 102.5 -10t76.5 -31q16 -12 14 -42t-19 -52q-35 23 -86 43t-98 20q-57 0 -97 -28.5t-40 -77.5q0 -57 50 -85t136 -50q51 -16 94.5 -35t76 -42.5t51 -54t18.5 -71.5q0 -47 -22.5 -86 t-63.5 -78q16 -20 32.5 -50t16.5 -65q0 -96 -82 -149t-207 -53q-53 0 -104 12t-82 31q-23 16 -25 47t21 67q39 -35 88 -57t106 -22q72 0 117 29.5t45 86.5q0 53 -40 88t-140 66q-127 37 -195.5 84t-68.5 125zM246 549q0 -37 31.5 -73t130.5 -64q63 -23 95 -31t56 -23 q16 20 25.5 46t9.5 55q0 43 -32 75.5t-107 59.5q-37 12 -81 26.5t-77 28.5q-23 -23 -37 -50.5t-14 -49.5z" />
<glyph unicode="&#xa8;" horiz-adv-x="481" d="M12 891q0 29 27 50.5t67 21.5q41 0 68 -21.5t27 -50.5q0 -31 -27 -52.5t-68 -21.5t-67.5 21.5t-26.5 52.5zM279 891q0 29 26.5 50.5t67.5 21.5t67.5 -21.5t26.5 -50.5q0 -31 -26.5 -52.5t-67.5 -21.5t-67.5 21.5t-26.5 52.5z" />
<glyph unicode="&#xa9;" horiz-adv-x="1161" d="M59 485q0 104 40 195.5t111 159t165 106.5t203 39t202.5 -39t164.5 -106.5t112 -158.5t41 -196q0 -104 -41 -194t-112 -157.5t-165 -106.5t-202 -39q-109 0 -203 39t-165 106.5t-111 157.5t-40 194zM180 483q0 -88 32 -164.5t86 -134t126 -90.5t154 -33t154.5 33 t125.5 90.5t85 134t32 164.5t-32 167t-85 136.5t-126 91t-154 33.5q-82 0 -154 -33.5t-126 -91t-86 -136.5t-32 -167zM332 383v209q0 43 22.5 78t58.5 60.5t81 38.5t90 13q39 0 76.5 -8t71.5 -24.5t58.5 -41t36.5 -57.5q12 -41 -21.5 -59.5t-86.5 -9.5q0 51 -40 92t-95 41 t-94 -38t-39 -85v-209q0 -49 38.5 -86t94.5 -37q55 0 95 40t40 93q53 8 87 -10t21 -59q-12 -33 -36.5 -57.5t-58.5 -42t-72.5 -26t-75.5 -8.5q-43 0 -88 13.5t-81 38t-59.5 60.5t-23.5 81z" />
<glyph unicode="&#xaa;" horiz-adv-x="598" d="M16 602q0 37 18.5 71t51.5 59.5t77 40.5t95 15q63 0 121 -26v35q0 45 -35 78.5t-86 33.5q-39 0 -79 -34.5t-66 -83.5q-37 25 -50.5 56.5t0.5 51.5q31 39 83.5 59.5t111.5 20.5q43 0 85 -13.5t77 -37t56.5 -57t21.5 -74.5v-314q0 -66 -119 -65v24q-53 -25 -121 -24 q-51 0 -95 14t-77 39t-51.5 58.5t-18.5 72.5zM135 602q0 -45 35 -80t88 -35t87 35t34 80q0 47 -34 82t-87 35t-88 -35t-35 -82z" />
<glyph unicode="&#xab;" horiz-adv-x="655" d="M49 406q0 10 14 28l199 225q29 35 67 34t66 -36l-219 -251q55 -61 109.5 -126t109.5 -126q-29 -35 -66.5 -35t-66.5 33l-199 227q-14 15 -14 27zM266 406q0 10 14 28l199 225q29 35 67 34t66 -36l-219 -251q55 -61 109.5 -126t109.5 -126q-29 -35 -66.5 -35t-66.5 33 l-199 227q-14 15 -14 27z" />
<glyph unicode="&#xac;" horiz-adv-x="860" d="M59 489q0 78 93 78h647v-248q0 -74 -119 -73v243h-621z" />
<glyph unicode="&#xad;" horiz-adv-x="522" d="M57 367q0 80 95 79h311q0 -80 -94 -79h-312z" />
<glyph unicode="&#xae;" horiz-adv-x="1159" d="M59 485q0 104 40 195.5t111 159t165 106.5t203 39t202.5 -39t164.5 -106.5t112 -158.5t41 -196q0 -104 -41 -194t-112 -157.5t-165 -106.5t-202 -39q-109 0 -203 39t-165 106.5t-111 157.5t-40 194zM180 483q0 -88 32 -164.5t86 -134t126 -90.5t154 -33t154.5 33 t125.5 90.5t85 134t32 164.5t-32 167t-85 136.5t-126 91t-154 33.5q-82 0 -154 -33.5t-126 -91t-86 -136.5t-32 -167zM338 193v542q0 14 15.5 24.5t43.5 10.5h269q74 0 123 -47t49 -111q0 -33 -18.5 -67.5t-51.5 -59.5q33 -23 53.5 -56.5t20.5 -68.5v-108q0 -29 -32 -44 t-87 -15v167q0 43 -17.5 67t-39.5 24h-211v-199q0 -29 -31 -44t-86 -15zM455 520h211q23 0 39 31t16 61q0 31 -16.5 60.5t-38.5 29.5h-211v-182z" />
<glyph unicode="&#xaf;" horiz-adv-x="483" d="M53 858v72h373v-72h-373z" />
<glyph unicode="&#xb0;" horiz-adv-x="483" d="M27 797q0 39 16 73.5t45 60t68 40t84 14.5q43 0 81.5 -14.5t67.5 -40t45.5 -60t16.5 -73.5t-16.5 -74t-45.5 -60.5t-67.5 -40t-81.5 -14.5q-45 0 -84 14.5t-68 40t-45 60.5t-16 74zM127 797q0 -51 33 -86t80 -35t79.5 34.5t32.5 86.5q0 51 -32.5 86t-79.5 35t-80 -35 t-33 -86z" />
<glyph unicode="&#xb1;" horiz-adv-x="860" d="M59 369q0 76 93 75h215v177q0 76 122 75v-252h310q0 -76 -94 -75h-216v-176q0 -76 -122 -76v252h-308zM61 2q0 35 26 57.5t71 22.5h643q0 -37 -26.5 -58.5t-72.5 -21.5h-641z" />
<glyph unicode="&#xb2;" horiz-adv-x="610" d="M78 455q0 66 49 127t147 102q27 12 51.5 24.5t45 27t33 31.5t12.5 40q0 41 -33 72.5t-80 31.5q-45 0 -77.5 -31.5t-32.5 -72.5v-13.5t4 -23.5q-23 0 -44.5 5t-38 14.5t-26.5 19.5t-8 20q6 33 28.5 61t53.5 48t67.5 30.5t73.5 10.5q39 0 80 -11.5t73.5 -34t53 -54 t20.5 -72.5q0 -35 -17 -62.5t-47 -49t-68 -40t-79 -34.5q-102 -45 -120 -129h254q35 0 56 -17.5t21 -52.5h-395q-23 0 -40 8t-17 25z" />
<glyph unicode="&#xb3;" horiz-adv-x="610" d="M80 563q-4 59 115 60q-2 -10 -2 -18.5v-18.5q0 -43 32.5 -73t77.5 -30t78 30t33 73q0 41 -33 70.5t-78 29.5q-23 0 -40 9.5t-17 23.5q0 16 17.5 25.5t39.5 9.5q35 0 58.5 23.5t23.5 56.5t-23.5 55t-58.5 22q-33 0 -56.5 -22.5t-23.5 -54.5q0 -4 1 -12.5t5 -18.5 q-53 -8 -90.5 6t-29.5 49q6 43 59 82t135 39q39 0 76 -11.5t63.5 -32t43 -46t16.5 -55.5q0 -29 -19.5 -59t-48.5 -52q41 -25 68.5 -61.5t27.5 -75.5q0 -72 -65.5 -121t-161.5 -49q-47 0 -88 13t-69.5 34.5t-46 47.5t-19.5 52z" />
<glyph unicode="&#xb4;" horiz-adv-x="475" d="M84 758l119 180q27 39 114 39h72l-168 -184q-23 -20 -53.5 -27.5t-83.5 -7.5z" />
<glyph unicode="&#xb5;" horiz-adv-x="839" d="M119 -289v922q0 76 123 76v-486q0 -66 50 -113t126 -47q78 0 128 47.5t50 112.5v410q0 76 121 76v-643q0 -78 -121 -78v43q-37 -20 -82 -31.5t-96 -11.5t-95 11t-81 32v-242q0 -78 -123 -78z" />
<glyph unicode="&#xb6;" horiz-adv-x="841" d="M47 659q0 55 18.5 113.5t67.5 106t134 77t218 29.5q70 0 135.5 -4t98.5 -10v-1082q0 -37 -33 -56t-92 -19v1097h-90v-1022q0 -37 -34 -56t-93 -19v553q-59 2 -117.5 21.5t-106 56t-77 90t-29.5 124.5z" />
<glyph unicode="&#xb7;" horiz-adv-x="512" d="M98 406q0 57 46 97t112 40t111 -40t45 -97q0 -55 -45 -95.5t-111 -40.5t-112 40.5t-46 95.5z" />
<glyph unicode="&#xb8;" horiz-adv-x="399" d="M51 -224.5q-4 21.5 19 52.5q63 -49 106 -49q18 0 35.5 14t17.5 39q0 33 -44 46t-99 9l90 136h103l-56 -80q53 -6 90 -35t37 -66q0 -31 -15.5 -54.5t-40 -39.5t-56 -24.5t-62.5 -8.5q-61 0 -96 23q-25 16 -29 37.5z" />
<glyph unicode="&#xb9;" horiz-adv-x="610" d="M197 973h137q29 0 46 -11.5t17 -27.5v-445q0 -74 -116 -73v487q-39 0 -61.5 19.5t-22.5 50.5z" />
<glyph unicode="&#xba;" horiz-adv-x="643" d="M-2 696q0 57 23.5 109.5t64.5 90.5t95.5 60.5t115.5 22.5q63 0 119.5 -22.5t97.5 -60.5t64.5 -90t23.5 -110q0 -55 -23.5 -106t-64.5 -89t-97.5 -60.5t-119.5 -22.5q-61 0 -115.5 22.5t-95.5 60.5t-64.5 89t-23.5 106zM115 696q0 -43 14 -82t40 -66.5t58.5 -44 t69.5 -16.5q39 0 74 16.5t60.5 44t39.5 66.5t14 82q0 45 -14 84t-39.5 68t-60.5 45t-74 16q-37 0 -69.5 -16t-58.5 -45t-40 -68t-14 -84z" />
<glyph unicode="&#xbb;" horiz-adv-x="655" d="M58 156l219 251q-55 61 -109.5 126t-109.5 126q29 35 66.5 35t66.5 -33l199 -227q14 -15 14 -27q0 -10 -14 -28l-199 -225q-29 -35 -67 -34t-66 36zM275 156l219 251q-55 61 -109.5 126t-109.5 126q29 35 66.5 35t66.5 -33l199 -227q14 -15 14 -27q0 -10 -14 -28 l-199 -225q-29 -35 -67 -34t-66 36z" />
<glyph unicode="&#xbc;" horiz-adv-x="1202" d="M207 973h137q29 0 46.5 -11.5t17.5 -27.5v-445q0 -74 -119 -73v487q-39 0 -60.5 19.5t-21.5 50.5zM274 -31l510 1014q20 37 55 46t87 -17l-510 -1014q-39 -82 -142 -29zM639 186l295 344q16 16 35.5 23.5t36 6.5t27.5 -11t14 -29v-321h88q0 -70 -76 -70h-12v-76 q0 -59 -117 -59v135h-244q-29 0 -46 18.5t-1 38.5zM770 199h160v184q-41 -47 -80 -92t-80 -92z" />
<glyph unicode="&#xbd;" horiz-adv-x="1202" d="M207 973h137q29 0 46.5 -11.5t17.5 -27.5v-445q0 -74 -119 -73v487q-39 0 -60.5 19.5t-21.5 50.5zM274 -31l510 1014q20 37 55 46t87 -17l-510 -1014q-39 -82 -142 -29zM659 33q0 66 48.5 127t146.5 102q53 25 97 50.5t44 70.5q0 41 -31.5 73.5t-78.5 32.5t-80 -32.5 t-33 -73.5v-11t4 -24q-20 0 -41.5 5t-38 14.5t-27 18.5t-7.5 20q14 70 80.5 110.5t142.5 40.5q39 0 79 -11t72.5 -34t53 -55.5t20.5 -73.5q0 -35 -17.5 -61.5t-47 -49t-67.5 -41t-77 -34.5q-104 -45 -123 -127h254q35 0 56.5 -17.5t21.5 -52.5h-393q-23 0 -40.5 8t-17.5 25z " />
<glyph unicode="&#xbe;" horiz-adv-x="1202" d="M90 563q-4 59 113 60q-2 -10 -2 -18.5v-18.5q0 -43 32.5 -73t79.5 -30q45 0 78 30t33 73q0 41 -33 70.5t-78 29.5q-23 0 -41 9.5t-18 23.5q0 16 18.5 25.5t40.5 9.5q35 0 58.5 23.5t23.5 56.5t-23.5 55t-58.5 22t-58.5 -22.5t-23.5 -54.5q0 -4 1 -12.5t6 -18.5 q-51 -8 -89 6t-30 49q6 43 58 82t136 39q39 0 75 -11.5t63.5 -32t43 -46t15.5 -55.5q0 -29 -19.5 -59t-46.5 -52q41 -25 68 -61.5t27 -75.5q0 -72 -64.5 -121t-161.5 -49q-47 0 -88 13t-69.5 34.5t-46 47.5t-19.5 52zM274 -31l510 1014q20 37 55 46t87 -17l-510 -1014 q-39 -82 -142 -29zM639 186l295 344q16 16 34.5 23.5t35 6.5t28.5 -11t15 -29v-321h88q0 -70 -76 -70h-12v-76q0 -59 -117 -59v135h-244q-29 0 -46 18.5t-1 38.5zM770 199h160v184q-41 -47 -80 -92t-80 -92z" />
<glyph unicode="&#xbf;" horiz-adv-x="724" d="M61 -16q0 45 13.5 80.5t35 64.5t48 53.5t53.5 46.5q39 31 67.5 64t28.5 86v41q0 82 125 82v-123q-2 -72 -43 -119t-88 -86q-43 -35 -79 -77t-36 -113q0 -86 52.5 -140.5t130.5 -54.5q76 0 130 53.5t54 141.5v22t-2 21q47 0 85 -26t40 -56q-10 -49 -38 -91t-69 -74 t-92 -50.5t-108 -18.5q-61 0 -116.5 18.5t-98.5 54.5t-68 86t-25 114zM268 631q0 33 30 55.5t71 22.5q43 0 71.5 -22.5t28.5 -55.5q0 -35 -28.5 -58.5t-71.5 -23.5q-41 0 -71 23.5t-30 58.5z" />
<glyph unicode="&#xc2;" horiz-adv-x="901" d="M47 100l342 861q10 27 60 26q20 0 37.5 -7t23.5 -19l342 -861q12 -33 -13.5 -68.5t-72.5 -54.5l-131 338h-371q-33 -82 -65.5 -170t-65.5 -168q-51 18 -74.5 54.5t-11.5 68.5zM232 1069l176 185q12 12 41 12t41 -12l178 -185q-31 -25 -70 -24.5t-61 22.5l-88 92l-88 -92 q-23 -23 -61 -22.5t-68 24.5zM297 397h307l-155 400z" />
<glyph unicode="&#xc4;" horiz-adv-x="901" d="M47 100l342 861q10 27 60 26q20 0 37.5 -7t23.5 -19l342 -861q12 -33 -13.5 -68.5t-72.5 -54.5l-131 338h-371q-33 -82 -65.5 -170t-65.5 -168q-51 18 -74.5 54.5t-11.5 68.5zM223 1178q0 29 27 50.5t67 21.5q41 0 68 -21.5t27 -50.5q0 -31 -27 -52.5t-68 -21.5 t-67.5 21.5t-26.5 52.5zM297 397h307l-155 400zM490 1178q0 29 26.5 50.5t67.5 21.5t67.5 -21.5t26.5 -50.5q0 -31 -26.5 -52.5t-67.5 -21.5t-67.5 21.5t-26.5 52.5z" />
<glyph unicode="&#xc5;" horiz-adv-x="901" d="M47 100l342 861q10 27 60 26q20 0 37.5 -7t23.5 -19l342 -861q12 -33 -13.5 -68.5t-72.5 -54.5l-131 338h-371q-33 -82 -65.5 -170t-65.5 -168q-51 18 -74.5 54.5t-11.5 68.5zM288 1227q0 49 44 93t116 44t116 -44t44 -93q0 -59 -44 -98t-116 -39q-66 0 -113 40t-47 97z M297 397h307l-155 400zM389 1227q0 -35 17.5 -57.5t41.5 -22.5q27 0 44.5 22.5t17.5 57.5q0 29 -16.5 54.5t-45.5 25.5t-44 -25.5t-15 -54.5z" />
<glyph unicode="&#xc6;" horiz-adv-x="1275" d="M28.5 30.5q-14.5 35.5 8.5 69.5l592 875h508q96 0 96 -80h-483l43 -365h401q0 -82 -98 -81h-293l43 -367h407q0 -82 -96 -82h-440l-33 315h-371q-55 -82 -113.5 -170t-111.5 -168q-45 18 -59.5 53.5zM369 397h307l-45 398z" />
<glyph unicode="&#xc7;" horiz-adv-x="991" d="M98 309v359q0 74 36 133t94.5 100t130 63.5t145.5 22.5q66 0 130 -16.5t119.5 -48t95.5 -80.5t56 -115q6 -29 -4 -48.5t-29.5 -31.5t-44 -18t-47.5 -6q2 10 2 22v23q0 49 -21.5 92t-59 75.5t-89 51t-108.5 18.5t-107.5 -18.5t-87.5 -51t-58.5 -75.5t-21.5 -92v-359 q0 -49 21.5 -93t58.5 -75.5t87 -51t108 -19.5q57 0 108.5 19.5t89 51t59 75.5t21.5 93v22.5t-2 22.5q23 0 46.5 -6t42 -18.5t29.5 -31.5t7 -46q-12 -59 -52 -108.5t-95.5 -84t-121 -53t-132.5 -18.5q-72 0 -143.5 21.5t-130 63.5t-95.5 101t-37 135zM370 -224.5 q-4 21.5 19 52.5q63 -49 106 -49q18 0 35.5 14t17.5 39q0 33 -44 46t-99 9l90 136h103l-56 -80q53 -6 90 -35t37 -66q0 -31 -15.5 -54.5t-40 -39.5t-56 -24.5t-62.5 -8.5q-61 0 -96 23q-25 16 -29 37.5z" />
<glyph unicode="&#xca;" horiz-adv-x="995" d="M98 309v359q0 74 36 133t94.5 100t130 63.5t145.5 22.5q66 0 130 -16.5t119.5 -48t95.5 -80.5t56 -115q6 -29 -4 -48.5t-29.5 -31.5t-44 -18t-47.5 -6q2 10 2 22v23q0 49 -21.5 92t-59 75.5t-89 51t-108.5 18.5t-107.5 -18.5t-87.5 -51t-58.5 -75.5t-21.5 -92v-138h404 q0 -82 -98 -81h-306v-140q0 -49 21.5 -93t58.5 -75.5t87 -51t108 -19.5q57 0 108.5 19.5t89 51t59 75.5t21.5 93v22.5t-2 22.5q23 0 46.5 -6t42 -18.5t29.5 -31.5t7 -46q-12 -59 -52 -108.5t-95.5 -84t-121 -53t-132.5 -18.5q-72 0 -143.5 21.5t-130 63.5t-95.5 101t-37 135 zM293 1069l176 185q12 12 41 12t41 -12l178 -185q-31 -25 -70 -24.5t-61 22.5l-88 92l-88 -92q-23 -23 -61 -22.5t-68 24.5z" />
<glyph unicode="&#xcb;" horiz-adv-x="991" d="M98 309v359q0 74 36 133t94.5 100t130 63.5t145.5 22.5q66 0 130 -16.5t119.5 -48t95.5 -80.5t56 -115q6 -29 -4 -48.5t-29.5 -31.5t-44 -18t-47.5 -6q2 10 2 22v23q0 49 -21.5 92t-59 75.5t-89 51t-108.5 18.5t-107.5 -18.5t-87.5 -51t-58.5 -75.5t-21.5 -92v-138h404 q0 -82 -98 -81h-306v-140q0 -49 21.5 -93t58.5 -75.5t87 -51t108 -19.5q57 0 108.5 19.5t89 51t59 75.5t21.5 93v22.5t-2 22.5q23 0 46.5 -6t42 -18.5t29.5 -31.5t7 -46q-12 -59 -52 -108.5t-95.5 -84t-121 -53t-132.5 -18.5q-72 0 -143.5 21.5t-130 63.5t-95.5 101t-37 135 zM284 1178q0 29 27 50.5t67 21.5q41 0 68 -21.5t27 -50.5q0 -31 -27 -52.5t-68 -21.5t-67.5 21.5t-26.5 52.5zM551 1178q0 29 26.5 50.5t67.5 21.5t67.5 -21.5t26.5 -50.5q0 -31 -26.5 -52.5t-67.5 -21.5t-67.5 21.5t-26.5 52.5z" />
<glyph unicode="&#xce;" horiz-adv-x="368" d="M-32 1069l176 185q12 12 41 12t41 -12l178 -185q-31 -25 -70 -24.5t-61 22.5l-88 92l-88 -92q-23 -23 -61 -22.5t-68 24.5zM119 -12v913q0 86 131 86v-913q0 -86 -131 -86z" />
<glyph unicode="&#xcf;" horiz-adv-x="368" d="M-41 1178q0 29 27 50.5t67 21.5q41 0 68 -21.5t27 -50.5q0 -31 -27 -52.5t-68 -21.5t-67.5 21.5t-26.5 52.5zM119 -12v913q0 86 131 86v-913q0 -86 -131 -86zM226 1178q0 29 26.5 50.5t67.5 21.5t67.5 -21.5t26.5 -50.5q0 -31 -26.5 -52.5t-67.5 -21.5t-67.5 21.5 t-26.5 52.5z" />
<glyph unicode="&#xd0;" horiz-adv-x="1032" d="M-2 451q0 78 92 77h389q0 -78 -92 -77h-389zM121 49v885q0 20 18.5 32.5t46.5 12.5h340q72 0 143.5 -21.5t130 -61.5t95.5 -100.5t37 -136.5v-333q0 -74 -36 -133.5t-93.5 -101.5t-130 -64.5t-146.5 -22.5h-340q-29 0 -47 13.5t-18 31.5zM252 86h274q57 0 107.5 19.5 t88.5 51t60.5 75.5t22.5 94v333q0 49 -22.5 93.5t-60.5 76t-88 51t-108 19.5h-274v-813z" />
<glyph unicode="&#xd1;" horiz-adv-x="1052" d="M119 -12v913q0 86 131 86l551 -770v770q129 0 129 -86v-827q0 -86 -107 -86l-573 796v-710q0 -86 -131 -86zM315 1153q6 41 38 68t85 27q43 0 65.5 -12.5t43.5 -28.5h-5l25 -17l2 -2q12 -10 24.5 -19.5t20.5 -9.5q14 0 20.5 24t-8.5 54q53 20 84 0t27 -49 q-6 -41 -38 -67.5t-85 -26.5q-43 0 -64.5 12t-43.5 29h4l-21 14l-6 4q-12 10 -24.5 19.5t-20.5 9.5q-14 0 -21.5 -24.5t9.5 -53.5q-53 -20 -84 0.5t-27 48.5z" />
<glyph unicode="&#xd4;" horiz-adv-x="1202" d="M80 487q0 104 40 195.5t110.5 159t164.5 106.5t203 39t204 -39t165.5 -106.5t111.5 -158.5t41 -196q0 -104 -41 -195t-111.5 -158.5t-165.5 -106.5t-204 -39t-203 39t-164.5 106.5t-110.5 158.5t-40 195zM209 487q0 -88 30.5 -163.5t83 -132t124 -89t151.5 -32.5 q82 0 152.5 32.5t124 89t84 132t30.5 163.5q0 86 -30.5 163t-84 133.5t-124 89t-152.5 32.5q-80 0 -151.5 -32.5t-124 -89t-83 -133.5t-30.5 -163zM381 1069l176 185q12 12 41 12t41 -12l178 -185q-31 -25 -70 -24.5t-61 22.5l-88 92l-88 -92q-23 -23 -61 -22.5t-68 24.5z " />
<glyph unicode="&#xd6;" horiz-adv-x="1202" d="M80 487q0 104 40 195.5t110.5 159t164.5 106.5t203 39t204 -39t165.5 -106.5t111.5 -158.5t41 -196q0 -104 -41 -195t-111.5 -158.5t-165.5 -106.5t-204 -39t-203 39t-164.5 106.5t-110.5 158.5t-40 195zM209 487q0 -88 30.5 -163.5t83 -132t124 -89t151.5 -32.5 q82 0 152.5 32.5t124 89t84 132t30.5 163.5q0 86 -30.5 163t-84 133.5t-124 89t-152.5 32.5q-80 0 -151.5 -32.5t-124 -89t-83 -133.5t-30.5 -163zM372 1178q0 29 27 50.5t67 21.5q41 0 68 -21.5t27 -50.5q0 -31 -27 -52.5t-68 -21.5t-67.5 21.5t-26.5 52.5zM639 1178 q0 29 26.5 50.5t67.5 21.5t67.5 -21.5t26.5 -50.5q0 -31 -26.5 -52.5t-67.5 -21.5t-67.5 21.5t-26.5 52.5z" />
<glyph unicode="&#xd7;" horiz-adv-x="860" d="M111 156l247 247l-247 250q33 29 68.5 30t64.5 -28l182 -184l184 184q63 63 133 -2l-249 -250l249 -247q-70 -63 -133 -2l-184 182l-182 -182q-63 -61 -133 2z" />
<glyph unicode="&#xd8;" horiz-adv-x="1202" d="M80 487q0 104 40 195.5t110.5 159t164.5 106.5t203 39t204 -39t165.5 -106.5t111.5 -158.5t41 -196q0 -104 -41 -195t-111.5 -158.5t-165.5 -106.5t-204 -39t-203 39t-164.5 106.5t-110.5 158.5t-40 195zM209 487q0 -88 30.5 -163.5t83 -132t124 -89t151.5 -32.5 q82 0 152.5 32.5t124 89t84 132t30.5 163.5q0 86 -30.5 163t-84 133.5t-124 89t-152.5 32.5q-80 0 -151.5 -32.5t-124 -89t-83 -133.5t-30.5 -163zM275 -35l509 1014q20 37 55.5 46t86.5 -17l-510 -1014q-39 -82 -141 -29z" />
<glyph unicode="&#xdb;" horiz-adv-x="1052" d="M119 309v592q0 86 131 86v-678q0 -49 21.5 -93t58.5 -75.5t87 -51t107 -19.5t107.5 19.5t88.5 51t59.5 75.5t21.5 93v592q0 86 129 86v-678q0 -76 -37 -135t-95.5 -101t-130 -63.5t-143.5 -21.5t-143.5 21.5t-129.5 63.5t-95 101t-37 135zM308 1069l176 185q12 12 41 12 t41 -12l178 -185q-31 -25 -70 -24.5t-61 22.5l-88 92l-88 -92q-23 -23 -61 -22.5t-68 24.5z" />
<glyph unicode="&#xdc;" horiz-adv-x="1052" d="M119 309v592q0 86 131 86v-678q0 -49 21.5 -93t58.5 -75.5t87 -51t107 -19.5t107.5 19.5t88.5 51t59.5 75.5t21.5 93v592q0 86 129 86v-678q0 -76 -37 -135t-95.5 -101t-130 -63.5t-143.5 -21.5t-143.5 21.5t-129.5 63.5t-95 101t-37 135zM299 1178q0 29 27 50.5t67 21.5 q41 0 68 -21.5t27 -50.5q0 -31 -27 -52.5t-68 -21.5t-67.5 21.5t-26.5 52.5zM566 1178q0 29 26.5 50.5t67.5 21.5t67.5 -21.5t26.5 -50.5q0 -31 -26.5 -52.5t-67.5 -21.5t-67.5 21.5t-26.5 52.5z" />
<glyph unicode="&#xde;" horiz-adv-x="849" d="M119 -12v913q0 39 34.5 61.5t94.5 22.5v-176q35 4 77 6t70 2q199 0 293 -88q43 -41 64.5 -88t21.5 -94q0 -72 -29.5 -129.5t-85 -98t-132 -62t-169.5 -21.5h-54.5t-55.5 4v-168q0 -41 -35 -62.5t-94 -21.5zM231 723l17 4v-405q29 -4 58.5 -6.5t55.5 -2.5q137 0 211 60 t74 164q0 57 -20.5 96t-55 63.5t-81 34.5t-95.5 10t-94 -5t-70 -13z" />
<glyph unicode="&#xdf;" horiz-adv-x="800" d="M119 -186v909q0 119 64.5 190.5t199.5 71.5q117 0 186.5 -69.5t69.5 -178.5q0 -133 -127 -202q92 -35 139 -100.5t47 -158.5q0 -135 -64.5 -211.5t-191.5 -76.5q-27 0 -46 3t-29 7q-29 16 -39.5 43t8.5 61q29 -16 60.5 -28.5t52.5 -12.5q123 0 122 205q0 119 -61 169 t-184 50v72q86 4 134 44t48 140q0 80 -34 125t-105 45q-37 0 -59.5 -16t-37 -42t-19.5 -58.5t-5 -65.5v-831q0 -84 -129 -84z" />
<glyph unicode="&#xe2;" horiz-adv-x="798" d="M78 221q0 49 23.5 92t63.5 75t95.5 50.5t116.5 18.5q100 0 178 -45v63q0 31 -14.5 60.5t-38 51t-56 35t-69.5 13.5q-55 0 -108.5 -44t-86.5 -110q-37 29 -51 67t4 62q41 45 105.5 72t136.5 27q53 0 106.5 -15.5t96.5 -46.5t69.5 -74t26.5 -98v-409q0 -78 -121 -78v43 q-37 -20 -82 -31.5t-96 -11.5q-61 0 -116.5 18.5t-95.5 50t-63.5 73.5t-23.5 91zM181 782l176 185q12 12 41 12t41 -12l178 -185q-31 -25 -70 -24.5t-61 22.5l-88 92l-88 -92q-23 -23 -61 -22.5t-68 24.5zM201 221q0 -63 50 -110.5t126 -47.5q78 0 128 47.5t50 110.5 q0 66 -50 114t-128 48q-76 0 -126 -48t-50 -114z" />
<glyph unicode="&#xe4;" horiz-adv-x="798" d="M78 221q0 49 23.5 92t63.5 75t95.5 50.5t116.5 18.5q100 0 178 -45v63q0 31 -14.5 60.5t-38 51t-56 35t-69.5 13.5q-55 0 -108.5 -44t-86.5 -110q-37 29 -51 67t4 62q41 45 105.5 72t136.5 27q53 0 106.5 -15.5t96.5 -46.5t69.5 -74t26.5 -98v-409q0 -78 -121 -78v43 q-37 -20 -82 -31.5t-96 -11.5q-61 0 -116.5 18.5t-95.5 50t-63.5 73.5t-23.5 91zM172 891q0 29 27 50.5t67 21.5q41 0 68 -21.5t27 -50.5q0 -31 -27 -52.5t-68 -21.5t-67.5 21.5t-26.5 52.5zM201 221q0 -63 50 -110.5t126 -47.5q78 0 128 47.5t50 110.5q0 66 -50 114 t-128 48q-76 0 -126 -48t-50 -114zM439 891q0 29 26.5 50.5t67.5 21.5t67.5 -21.5t26.5 -50.5q0 -31 -26.5 -52.5t-67.5 -21.5t-67.5 21.5t-26.5 52.5z" />
<glyph unicode="&#xe5;" horiz-adv-x="798" d="M78 221q0 49 23.5 92t63.5 75t95.5 50.5t116.5 18.5q100 0 178 -45v63q0 31 -14.5 60.5t-38 51t-56 35t-69.5 13.5q-55 0 -108.5 -44t-86.5 -110q-37 29 -51 67t4 62q41 45 105.5 72t136.5 27q53 0 106.5 -15.5t96.5 -46.5t69.5 -74t26.5 -98v-409q0 -78 -121 -78v43 q-37 -20 -82 -31.5t-96 -11.5q-61 0 -116.5 18.5t-95.5 50t-63.5 73.5t-23.5 91zM201 221q0 -63 50 -110.5t126 -47.5q78 0 128 47.5t50 110.5q0 66 -50 114t-128 48q-76 0 -126 -48t-50 -114zM239 940q0 49 44 93t116 44t116 -44t44 -93q0 -59 -44 -98t-116 -39 q-66 0 -113 40t-47 97zM340 940q0 -35 17.5 -57.5t41.5 -22.5q27 0 44.5 22.5t17.5 57.5q0 29 -16.5 54.5t-45.5 25.5t-44 -25.5t-15 -54.5z" />
<glyph unicode="&#xe6;" horiz-adv-x="1257" d="M80 211q0 49 23.5 90t63.5 70.5t94 46t118 16.5h176v41q0 31 -14.5 60.5t-38 51t-55 35t-68.5 13.5q-57 0 -110.5 -44t-84.5 -110q-37 29 -51 67t4 62q41 45 104.5 72t137.5 27q66 0 132.5 -23.5t106.5 -67.5q39 41 100.5 66t135.5 25q61 0 116.5 -18.5t95.5 -50.5 t63.5 -75t23.5 -92v-74q0 -16 -19.5 -27.5t-41.5 -11.5h-414v-139q0 -63 49 -110.5t127 -47.5t127 49.5t49 114.5q18 0 39 -7t38 -19.5t24.5 -29.5t-1.5 -38q-31 -66 -104.5 -105.5t-171.5 -39.5q-74 0 -135.5 25.5t-100.5 66.5q-41 -47 -106.5 -69.5t-132.5 -22.5 q-63 0 -117.5 16t-94.5 46t-63.5 71t-23.5 90zM201 211q0 -63 50 -105.5t128 -42.5q76 0 126 47.5t50 110.5v139h-176q-78 0 -128 -42t-50 -107zM678 434h352v39q0 66 -49 114t-127 48q-74 0 -125 -48t-51 -114v-39z" />
<glyph unicode="&#xe7;" horiz-adv-x="745" d="M98 221v252q0 49 23.5 92t63.5 75t95.5 50.5t116.5 18.5q98 0 172 -40t105 -106q8 -20 1 -37.5t-23.5 -30t-38 -19.5t-38.5 -7q0 33 -13 62.5t-36.5 53t-56.5 37t-72 13.5q-76 0 -126 -48t-50 -114v-252q0 -63 50.5 -110.5t125.5 -47.5q39 0 72 13.5t56.5 36t36.5 52.5 t13 62q16 0 38 -7t38.5 -19.5t23.5 -29.5t-1 -38q-31 -66 -104.5 -105.5t-172.5 -39.5q-61 0 -116.5 18.5t-95.5 50t-63.5 73.5t-23.5 91zM258 -224.5q-4 21.5 19 52.5q63 -49 106 -49q18 0 35.5 14t17.5 39q0 33 -44 46t-99 9l90 136h103l-56 -80q53 -6 90 -35t37 -66 q0 -31 -15.5 -54.5t-40 -39.5t-56 -24.5t-62.5 -8.5q-61 0 -96 23q-25 16 -29 37.5z" />
<glyph unicode="&#xea;" horiz-adv-x="798" d="M98 221v252q0 49 23.5 92t63.5 75t95.5 50.5t116.5 18.5q63 0 117.5 -18.5t94.5 -50.5t63.5 -75t23.5 -92v-74q0 -16 -19.5 -27.5t-41.5 -11.5h-414v-139q0 -63 50.5 -110.5t125.5 -47.5q39 0 72 13.5t56.5 36t36.5 52.5t13 62q16 0 38 -7t38.5 -19.5t23.5 -29.5t-1 -38 q-31 -66 -104.5 -105.5t-172.5 -39.5q-61 0 -116.5 18.5t-95.5 50t-63.5 73.5t-23.5 91zM181 782l176 185q12 12 41 12t41 -12l178 -185q-31 -25 -70 -24.5t-61 22.5l-88 92l-88 -92q-23 -23 -61 -22.5t-68 24.5zM221 434h354v39q0 66 -50 114t-128 48q-76 0 -126 -48 t-50 -114v-39z" />
<glyph unicode="&#xeb;" horiz-adv-x="798" d="M98 221v252q0 49 23.5 92t63.5 75t95.5 50.5t116.5 18.5q63 0 117.5 -18.5t94.5 -50.5t63.5 -75t23.5 -92v-74q0 -16 -19.5 -27.5t-41.5 -11.5h-414v-139q0 -63 50.5 -110.5t125.5 -47.5q39 0 72 13.5t56.5 36t36.5 52.5t13 62q16 0 38 -7t38.5 -19.5t23.5 -29.5t-1 -38 q-31 -66 -104.5 -105.5t-172.5 -39.5q-61 0 -116.5 18.5t-95.5 50t-63.5 73.5t-23.5 91zM172 891q0 29 27 50.5t67 21.5q41 0 68 -21.5t27 -50.5q0 -31 -27 -52.5t-68 -21.5t-67.5 21.5t-26.5 52.5zM221 434h354v39q0 66 -50 114t-128 48q-76 0 -126 -48t-50 -114v-39z M439 891q0 29 26.5 50.5t67.5 21.5t67.5 -21.5t26.5 -50.5q0 -31 -26.5 -52.5t-67.5 -21.5t-67.5 21.5t-26.5 52.5z" />
<glyph unicode="&#xee;" horiz-adv-x="360" d="M-35 782l176 185q12 12 41 12t41 -12l178 -185q-31 -25 -70 -24.5t-61 22.5l-88 92l-88 -92q-23 -23 -61 -22.5t-68 24.5zM119 -12v645q0 76 121 76v-643q0 -78 -121 -78z" />
<glyph unicode="&#xef;" horiz-adv-x="360" d="M-45 891q0 29 27 50.5t67 21.5q41 0 68 -21.5t27 -50.5q0 -31 -27 -52.5t-68 -21.5t-67.5 21.5t-26.5 52.5zM119 -12v645q0 76 121 76v-643q0 -78 -121 -78zM222 891q0 29 26.5 50.5t67.5 21.5t67.5 -21.5t26.5 -50.5q0 -31 -26.5 -52.5t-67.5 -21.5t-67.5 21.5 t-26.5 52.5z" />
<glyph unicode="&#xf0;" horiz-adv-x="897" d="M80 338q0 86 31.5 154.5t83 116.5t118 74t133.5 26q47 0 90.5 -11.5t81.5 -31.5q-66 102 -165 176l-234 -109q-35 78 39 113l109 49q-41 25 -80 43t-78 35l37 76q68 -27 126 -53.5t99 -53.5l199 94q33 -76 -39 -112l-82 -37q63 -53 115.5 -114.5t87.5 -131.5 q63 -125 63 -274q0 -98 -33.5 -170t-87 -118t-120 -68.5t-134.5 -22.5q-80 0 -146.5 26.5t-114.5 73.5t-73.5 111.5t-25.5 138.5zM201 340q0 -68 20.5 -120t54 -87t76.5 -53.5t86 -18.5q51 0 96.5 18.5t79 55.5t53 92t19.5 129t-15.5 123t-43.5 80q-35 29 -79 53.5 t-102 24.5q-63 0 -109 -27.5t-77 -70.5t-45 -95.5t-14 -103.5z" />
<glyph unicode="&#xf1;" horiz-adv-x="839" d="M119 -12v645q0 76 123 76v-45q78 45 176 45q63 0 117.5 -18.5t94.5 -50.5t63.5 -75t23.5 -92v-407q0 -78 -121 -78v485q0 66 -50 114t-128 48q-76 0 -126 -48t-50 -114v-407q0 -78 -123 -78zM209 866q6 41 38 68t85 27q43 0 65.5 -12.5t43.5 -28.5h-5l25 -17l2 -2 q12 -10 24.5 -19.5t20.5 -9.5q14 0 20.5 24t-8.5 54q53 20 84 0t27 -49q-6 -41 -38 -67.5t-85 -26.5q-43 0 -64.5 12t-43.5 29h4l-21 14l-6 4q-12 10 -24.5 19.5t-20.5 9.5q-14 0 -21.5 -24.5t9.5 -53.5q-53 -20 -84 0.5t-27 48.5z" />
<glyph unicode="&#xf4;" horiz-adv-x="921" d="M80 348q0 74 29.5 139.5t81 114.5t120 78t148.5 29t149.5 -29t121.5 -78t82 -114.5t30 -139.5q0 -76 -30 -141.5t-82 -114.5t-121.5 -76.5t-149.5 -27.5t-148.5 27.5t-120 76.5t-81 114.5t-29.5 141.5zM201 348q0 -59 20.5 -111.5t55 -91.5t82 -60.5t100.5 -21.5 t100 21.5t83 60.5t56.5 91.5t20.5 111.5t-20.5 111.5t-56.5 91.5t-83 61.5t-100 22.5t-100.5 -22.5t-82 -61.5t-55 -91.5t-20.5 -111.5zM242 782l176 185q12 12 41 12t41 -12l178 -185q-31 -25 -70 -24.5t-61 22.5l-88 92l-88 -92q-23 -23 -61 -22.5t-68 24.5z" />
<glyph unicode="&#xf6;" horiz-adv-x="921" d="M80 348q0 74 29.5 139.5t81 114.5t120 78t148.5 29t149.5 -29t121.5 -78t82 -114.5t30 -139.5q0 -76 -30 -141.5t-82 -114.5t-121.5 -76.5t-149.5 -27.5t-148.5 27.5t-120 76.5t-81 114.5t-29.5 141.5zM201 348q0 -59 20.5 -111.5t55 -91.5t82 -60.5t100.5 -21.5 t100 21.5t83 60.5t56.5 91.5t20.5 111.5t-20.5 111.5t-56.5 91.5t-83 61.5t-100 22.5t-100.5 -22.5t-82 -61.5t-55 -91.5t-20.5 -111.5zM233 891q0 29 27 50.5t67 21.5q41 0 68 -21.5t27 -50.5q0 -31 -27 -52.5t-68 -21.5t-67.5 21.5t-26.5 52.5zM500 891q0 29 26.5 50.5 t67.5 21.5t67.5 -21.5t26.5 -50.5q0 -31 -26.5 -52.5t-67.5 -21.5t-67.5 21.5t-26.5 52.5z" />
<glyph unicode="&#xf7;" horiz-adv-x="860" d="M59 367q0 35 26 57t71 22h641q0 -37 -27 -58t-72 -21h-639zM330 168q0 33 28.5 56.5t69.5 23.5t70.5 -23.5t29.5 -56.5q0 -31 -29.5 -54.5t-70.5 -23.5t-69.5 23.5t-28.5 54.5zM330 643q0 33 28.5 56.5t69.5 23.5t70.5 -23.5t29.5 -56.5q0 -31 -29.5 -54.5t-70.5 -23.5 t-69.5 23.5t-28.5 54.5z" />
<glyph unicode="&#xf8;" horiz-adv-x="923" d="M82 352q0 74 29.5 139.5t81 114.5t120 78t148.5 29t149.5 -29t121.5 -78t82 -114.5t30 -139.5q0 -76 -30 -141.5t-82 -114.5t-121.5 -76.5t-149.5 -27.5t-148.5 27.5t-120 76.5t-81 114.5t-29.5 141.5zM203 -35l372 737q20 37 55.5 46.5t86.5 -17.5l-371 -737 q-20 -37 -57 -45t-86 16zM203 352q0 -59 20.5 -111.5t55 -91t82 -60t100.5 -21.5t100 21.5t83 60t56.5 91t20.5 111.5t-20.5 111.5t-56.5 91.5t-83 61.5t-100 22.5t-100.5 -22.5t-82 -61.5t-55 -91.5t-20.5 -111.5z" />
<glyph unicode="&#xfb;" horiz-adv-x="839" d="M119 223v410q0 76 123 76v-486q0 -66 50 -113t126 -47q78 0 128 47.5t50 112.5v410q0 76 121 76v-643q0 -78 -121 -78v43q-37 -20 -82 -31.5t-96 -11.5q-61 0 -116.5 18.5t-95.5 51t-63.5 74.5t-23.5 91zM201 782l176 185q12 12 41 12t41 -12l178 -185q-31 -25 -70 -24.5 t-61 22.5l-88 92l-88 -92q-23 -23 -61 -22.5t-68 24.5z" />
<glyph unicode="&#xfc;" horiz-adv-x="839" d="M119 223v410q0 76 123 76v-486q0 -66 50 -113t126 -47q78 0 128 47.5t50 112.5v410q0 76 121 76v-643q0 -78 -121 -78v43q-37 -20 -82 -31.5t-96 -11.5q-61 0 -116.5 18.5t-95.5 51t-63.5 74.5t-23.5 91zM192 891q0 29 27 50.5t67 21.5q41 0 68 -21.5t27 -50.5 q0 -31 -27 -52.5t-68 -21.5t-67.5 21.5t-26.5 52.5zM459 891q0 29 26.5 50.5t67.5 21.5t67.5 -21.5t26.5 -50.5q0 -31 -26.5 -52.5t-67.5 -21.5t-67.5 21.5t-26.5 52.5z" />
<glyph unicode="&#xfe;" horiz-adv-x="839" d="M119 -289v1196q0 78 123 78v-321q78 45 176 45q63 0 117.5 -18.5t94.5 -49.5t63.5 -74t23.5 -92v-252q0 -49 -23.5 -91t-63.5 -74.5t-94.5 -51t-117.5 -18.5q-51 0 -95 11t-81 32v-250q0 -33 -29 -51.5t-94 -18.5zM242 223q0 -66 50 -113t126 -47q78 0 128 47.5t50 112.5 v252q0 63 -50 111.5t-128 48.5q-76 0 -126 -48t-50 -112v-252z" />
<glyph unicode="&#xff;" horiz-adv-x="729" d="M29 -221q25 0 40 1t29 5q115 31 176 168l31 72l-274 671q47 20 83 9t48 -41l200 -504l203 504q10 31 46 42t85 -10l-313 -768q-37 -88 -92.5 -139t-147.5 -74q-104 -25 -114 64zM137 891q0 29 27 50.5t67 21.5q41 0 68 -21.5t27 -50.5q0 -31 -27 -52.5t-68 -21.5 t-67.5 21.5t-26.5 52.5zM404 891q0 29 26.5 50.5t67.5 21.5t67.5 -21.5t26.5 -50.5q0 -31 -26.5 -52.5t-67.5 -21.5t-67.5 21.5t-26.5 52.5z" />
<glyph unicode="&#x102;" horiz-adv-x="901" d="M47 100l342 861q10 27 60 26q20 0 37.5 -7t23.5 -19l342 -861q12 -33 -13.5 -68.5t-72.5 -54.5l-131 338h-371q-33 -82 -65.5 -170t-65.5 -168q-51 18 -74.5 54.5t-11.5 68.5zM205 1217q-2 23 33 39t84 16q0 -66 35.5 -107.5t91.5 -41.5q57 0 93 42t36 107 q49 0 82.5 -16.5t31.5 -38.5q-2 -41 -25.5 -73t-59 -54.5t-78.5 -33.5t-80 -11t-79 11t-78 33.5t-60.5 54.5t-26.5 73zM297 397h307l-155 400z" />
<glyph unicode="&#x103;" horiz-adv-x="798" d="M78 221q0 49 23.5 92t63.5 75t95.5 50.5t116.5 18.5q100 0 178 -45v63q0 31 -14.5 60.5t-38 51t-56 35t-69.5 13.5q-55 0 -108.5 -44t-86.5 -110q-37 29 -51 67t4 62q41 45 105.5 72t136.5 27q53 0 106.5 -15.5t96.5 -46.5t69.5 -74t26.5 -98v-409q0 -78 -121 -78v43 q-37 -20 -82 -31.5t-96 -11.5q-61 0 -116.5 18.5t-95.5 50t-63.5 73.5t-23.5 91zM166 930q-2 23 33 39t84 16q0 -66 35.5 -107.5t91.5 -41.5q57 0 93 42t36 107q49 0 82.5 -16.5t31.5 -38.5q-2 -41 -25.5 -73t-59 -54.5t-78.5 -33.5t-80 -11t-79 11t-78 33.5t-60.5 54.5 t-26.5 73zM201 221q0 -63 50 -110.5t126 -47.5q78 0 128 47.5t50 110.5q0 66 -50 114t-128 48q-76 0 -126 -48t-50 -114z" />
<glyph unicode="&#x106;" horiz-adv-x="991" d="M98 309v359q0 74 36 133t94.5 100t130 63.5t145.5 22.5q66 0 130 -16.5t119.5 -48t95.5 -80.5t56 -115q6 -29 -4 -48.5t-29.5 -31.5t-44 -18t-47.5 -6q2 10 2 22v23q0 49 -21.5 92t-59 75.5t-89 51t-108.5 18.5t-107.5 -18.5t-87.5 -51t-58.5 -75.5t-21.5 -92v-359 q0 -49 21.5 -93t58.5 -75.5t87 -51t108 -19.5q57 0 108.5 19.5t89 51t59 75.5t21.5 93v22.5t-2 22.5q23 0 46.5 -6t42 -18.5t29.5 -31.5t7 -46q-12 -59 -52 -108.5t-95.5 -84t-121 -53t-132.5 -18.5q-72 0 -143.5 21.5t-130 63.5t-95.5 101t-37 135zM438 1045l119 180 q27 39 114 39h72l-168 -184q-23 -20 -53.5 -27.5t-83.5 -7.5z" />
<glyph unicode="&#x107;" horiz-adv-x="745" d="M98 221v252q0 49 23.5 92t63.5 75t95.5 50.5t116.5 18.5q98 0 172 -40t105 -106q8 -20 1 -37.5t-23.5 -30t-38 -19.5t-38.5 -7q0 33 -13 62.5t-36.5 53t-56.5 37t-72 13.5q-76 0 -126 -48t-50 -114v-252q0 -63 50.5 -110.5t125.5 -47.5q39 0 72 13.5t56.5 36t36.5 52.5 t13 62q16 0 38 -7t38.5 -19.5t23.5 -29.5t-1 -38q-31 -66 -104.5 -105.5t-172.5 -39.5q-61 0 -116.5 18.5t-95.5 50t-63.5 73.5t-23.5 91zM328 758l119 180q27 39 114 39h72l-168 -184q-23 -20 -53.5 -27.5t-83.5 -7.5z" />
<glyph unicode="&#x10c;" horiz-adv-x="991" d="M98 309v359q0 74 36 133t94.5 100t130 63.5t145.5 22.5q66 0 130 -16.5t119.5 -48t95.5 -80.5t56 -115q6 -29 -4 -48.5t-29.5 -31.5t-44 -18t-47.5 -6q2 10 2 22v23q0 49 -21.5 92t-59 75.5t-89 51t-108.5 18.5t-107.5 -18.5t-87.5 -51t-58.5 -75.5t-21.5 -92v-359 q0 -49 21.5 -93t58.5 -75.5t87 -51t108 -19.5q57 0 108.5 19.5t89 51t59 75.5t21.5 93v22.5t-2 22.5q23 0 46.5 -6t42 -18.5t29.5 -31.5t7 -46q-12 -59 -52 -108.5t-95.5 -84t-121 -53t-132.5 -18.5q-72 0 -143.5 21.5t-130 63.5t-95.5 101t-37 135z" />
<glyph unicode="&#x10d;" horiz-adv-x="745" d="M98 221v252q0 49 23.5 92t63.5 75t95.5 50.5t116.5 18.5q98 0 172 -40t105 -106q8 -20 1 -37.5t-23.5 -30t-38 -19.5t-38.5 -7q0 33 -13 62.5t-36.5 53t-56.5 37t-72 13.5q-76 0 -126 -48t-50 -114v-252q0 -63 50.5 -110.5t125.5 -47.5q39 0 72 13.5t56.5 36t36.5 52.5 t13 62q16 0 38 -7t38.5 -19.5t23.5 -29.5t-1 -38q-31 -66 -104.5 -105.5t-172.5 -39.5q-61 0 -116.5 18.5t-95.5 50t-63.5 73.5t-23.5 91z" />
<glyph unicode="&#x110;" horiz-adv-x="1032" d="M-2 451q0 78 92 77h389q0 -78 -92 -77h-389zM121 49v885q0 20 18.5 32.5t46.5 12.5h340q72 0 143.5 -21.5t130 -61.5t95.5 -100.5t37 -136.5v-333q0 -74 -36 -133.5t-93.5 -101.5t-130 -64.5t-146.5 -22.5h-340q-29 0 -47 13.5t-18 31.5zM252 86h274q57 0 107.5 19.5 t88.5 51t60.5 75.5t22.5 94v333q0 49 -22.5 93.5t-60.5 76t-88 51t-108 19.5h-274v-813z" />
<glyph unicode="&#x111;" horiz-adv-x="819" d="M100 225v252q0 49 23.5 92t63.5 75t95.5 50.5t116.5 18.5q100 0 179 -45v243q0 78 120 78v-919q0 -78 -120 -78v43q-37 -20 -82 -31.5t-97 -11.5q-61 0 -116.5 18.5t-95.5 50t-63.5 73.5t-23.5 91zM223 225q0 -63 50.5 -110t125.5 -47q78 0 128.5 47t50.5 110v252 q0 66 -50.5 114t-128.5 48q-76 0 -126 -48t-50 -114v-252zM453 805q0 78 94 78h272q0 -78 -94 -78h-272z" />
<glyph unicode="&#x11e;" horiz-adv-x="1011" d="M98 309v359q0 74 36 133t94.5 100t130 63.5t145.5 22.5q66 0 130 -16.5t119.5 -48t95.5 -80.5t56 -115q6 -29 -4 -48.5t-29.5 -31.5t-44 -18t-47.5 -6q2 10 2 22v23q0 49 -21.5 92t-59 75.5t-89 51t-108.5 18.5t-107.5 -18.5t-87.5 -51t-58.5 -75.5t-21.5 -92v-359 q0 -49 21.5 -93t58.5 -75.5t87 -51t108 -19.5q57 0 107.5 19.5t88 51t59 75.5t21.5 93v140h-299q0 82 99 81h264q29 0 47 -13t18 -32v-176q0 -76 -36.5 -135t-95 -101t-130.5 -63.5t-143 -21.5q-72 0 -143.5 21.5t-130 63.5t-95.5 101t-37 135zM266 1217q-2 23 33 39t84 16 q0 -66 35.5 -107.5t91.5 -41.5q57 0 93 42t36 107q49 0 82.5 -16.5t31.5 -38.5q-2 -41 -25.5 -73t-59 -54.5t-78.5 -33.5t-80 -11t-79 11t-78 33.5t-60.5 54.5t-26.5 73z" />
<glyph unicode="&#x11f;" horiz-adv-x="819" d="M98 221v252q0 49 23.5 92t63.5 75t95.5 50.5t116.5 18.5q51 0 97.5 -12.5t83.5 -34.5q8 23 34.5 35t83.5 12v-764q0 -49 -23.5 -91t-63.5 -74t-94 -50.5t-118 -18.5q-98 0 -171.5 41t-104.5 107q-10 18 -2 35.5t25.5 30t38 19.5t38.5 7q0 -66 50.5 -115t125.5 -49 q78 0 128 48t50 110v86q-37 -20 -81.5 -31.5t-96.5 -11.5q-61 0 -116.5 18.5t-95.5 50t-63.5 73.5t-23.5 91zM152 930q-2 23 33 39t84 16q0 -66 35.5 -107.5t91.5 -41.5q57 0 93 42t36 107q49 0 82.5 -16.5t31.5 -38.5q-2 -41 -25.5 -73t-59 -54.5t-78.5 -33.5t-80 -11 t-79 11t-78 33.5t-60.5 54.5t-26.5 73zM221 221q0 -63 50.5 -110.5t125.5 -47.5q78 0 128 47.5t50 110.5v252q0 66 -50 114t-128 48q-76 0 -126 -48t-50 -114v-252z" />
<glyph unicode="&#x130;" horiz-adv-x="368" d="M90 1120q0 29 26.5 50.5t67.5 21.5t66.5 -21.5t25.5 -50.5q0 -31 -25.5 -52t-66.5 -21t-67.5 21t-26.5 52zM119 -8v913q0 86 131 86v-913q0 -86 -131 -86z" />
<glyph unicode="&#x131;" horiz-adv-x="360" d="M119 -12v645q0 76 121 76v-643q0 -78 -121 -78z" />
<glyph unicode="&#x141;" horiz-adv-x="888" d="M27 322q-49 76 16 118l422 279q49 -80 -14 -119zM121 49v856q0 86 131 86v-905h502q96 0 96 -82h-664q-29 0 -47 13.5t-18 31.5z" />
<glyph unicode="&#x142;" horiz-adv-x="368" d="M25 324q-47 74 16 114l301 197q49 -76 -14 -117zM119 -8v913q0 86 131 86v-913q0 -86 -131 -86z" />
<glyph unicode="&#x152;" horiz-adv-x="1677" d="M100 309v359q0 74 36 133t93.5 100t130 63.5t146.5 22.5q98 0 191.5 -36t150.5 -107q57 72 148 107.5t192 35.5q63 0 128.5 -16.5t121 -48t95.5 -80.5t56 -115q6 -29 -4 -48.5t-29.5 -31.5t-44 -18t-49.5 -6q2 10 2 22v23q0 49 -21.5 92t-59 75.5t-88 51t-107.5 18.5 t-107.5 -18.5t-87.5 -51t-58.5 -75.5t-21.5 -92v-138h404q0 -82 -98 -81h-306v-140q0 -49 21.5 -93t58.5 -75.5t87 -51t108 -19.5q57 0 107.5 19.5t88 51t59 75.5t21.5 93v22.5t-2 22.5q23 0 47.5 -6t43 -18.5t29.5 -31.5t7 -46q-12 -59 -52 -108.5t-95.5 -84t-122 -53 t-131.5 -18.5q-96 0 -188.5 36.5t-151.5 108.5q-55 -70 -149.5 -107.5t-192.5 -37.5q-72 0 -143.5 21.5t-130 63.5t-95.5 101t-37 135zM231 309q0 -49 21.5 -93t58.5 -75.5t87.5 -51t107.5 -19.5t107.5 19.5t88 51t59 75.5t21.5 93v359q0 49 -21.5 92t-59 75.5t-88 51 t-107.5 18.5t-107.5 -18.5t-87.5 -51t-58.5 -75.5t-21.5 -92v-359z" />
<glyph unicode="&#x153;" horiz-adv-x="1277" d="M100 221v252q0 49 23.5 92t63.5 75t94.5 50.5t117.5 18.5q72 0 135.5 -25t102.5 -66q39 41 99.5 66t137.5 25q61 0 117 -18.5t95.5 -50.5t63.5 -75t24 -92v-74q0 -16 -19.5 -27.5t-42.5 -11.5h-414v-139q0 -63 49.5 -110.5t126.5 -47.5q37 0 70 13.5t56.5 36t37 52.5 t13.5 62q18 0 38.5 -7t38 -19.5t24.5 -29.5t-1 -38q-31 -66 -104.5 -105.5t-172.5 -39.5q-76 0 -138 25.5t-101 66.5q-39 -41 -101.5 -66.5t-134.5 -25.5q-63 0 -117.5 18.5t-94.5 50t-63.5 73.5t-23.5 91zM221 221q0 -63 50.5 -110.5t127.5 -47.5q72 0 124 46.5t52 111.5 v252q0 66 -50 114t-126 48q-78 0 -128 -48t-50 -114v-252zM698 434h353v39q0 66 -50.5 114t-126.5 48q-78 0 -127 -48t-49 -114v-39z" />
<glyph unicode="&#x15e;" horiz-adv-x="970" d="M80 252q-4 27 6 46t28.5 31.5t43 18.5t49.5 6q-2 -10 -2 -21.5v-23.5q0 -49 21.5 -92t59.5 -75.5t88 -52t107 -19.5t108.5 19.5t90.5 52t59.5 75.5t18.5 88q-4 37 -26.5 61.5t-61.5 42t-90.5 30t-110.5 24.5q-84 16 -146.5 33.5t-106.5 43t-67.5 62.5t-29.5 92 q-6 57 18.5 109.5t71.5 93.5t116.5 65.5t155.5 24.5q154 0 246 -75.5t111 -188.5q-2 -45 -43 -72.5t-84 -27.5q2 10 2 22v23q0 49 -15.5 92t-45 74.5t-72.5 51t-99 19.5q-55 0 -99 -17.5t-75 -46t-46 -64.5t-11 -75q6 -72 66.5 -103.5t177.5 -55.5q80 -14 150.5 -30.5 t122.5 -41.5t84 -62.5t36 -97.5q4 -63 -27 -121.5t-87 -103.5t-132 -71.5t-160 -26.5q-76 0 -143.5 20.5t-120.5 55t-89 84t-48 104.5zM342 -224.5q-4 21.5 19 52.5q63 -49 106 -49q18 0 35.5 14t17.5 39q0 33 -44 46t-99 9l90 136h103l-56 -80q53 -6 90 -35t37 -66 q0 -31 -15.5 -54.5t-40 -39.5t-56 -24.5t-62.5 -8.5q-61 0 -96 23q-25 16 -29 37.5z" />
<glyph unicode="&#x15f;" horiz-adv-x="712" d="M61 182q-6 37 24 59.5t95 16.5q-10 -41 2.5 -77t39 -62.5t62 -41t70.5 -14.5q37 0 71 13.5t58.5 35t38 49t10.5 56.5q-4 47 -58 67.5t-130 37.5q-61 12 -107.5 24t-79 30.5t-50 46.5t-21.5 69t14.5 79.5t53 69.5t86 49.5t114.5 18.5q119 0 186 -55.5t81 -141.5 q6 -41 -30 -62.5t-91 -13.5q8 37 1 73t-27.5 63.5t-51.5 45t-68 17.5q-68 0 -108.5 -43t-36.5 -92t41 -68.5t115 -36.5q63 -12 114 -23.5t89 -29.5t59.5 -47t25.5 -74t-19.5 -87t-64.5 -74.5t-97 -52t-118 -19.5q-55 0 -104 14t-89 41t-66.5 62.5t-33.5 76.5zM217 -224.5 q-4 21.5 19 52.5q63 -49 106 -49q18 0 35.5 14t17.5 39q0 33 -44 46t-99 9l90 136h103l-56 -80q53 -6 90 -35t37 -66q0 -31 -15.5 -54.5t-40 -39.5t-56 -24.5t-62.5 -8.5q-61 0 -96 23q-25 16 -29 37.5z" />
<glyph unicode="&#x160;" horiz-adv-x="970" d="M80 252q-4 27 6 46t28.5 31.5t43 18.5t49.5 6q-2 -10 -2 -21.5v-23.5q0 -49 21.5 -92t59.5 -75.5t88 -52t107 -19.5t108.5 19.5t90.5 52t59.5 75.5t18.5 88q-4 37 -26.5 61.5t-61.5 42t-90.5 30t-110.5 24.5q-84 16 -146.5 33.5t-106.5 43t-67.5 62.5t-29.5 92 q-6 57 18.5 109.5t71.5 93.5t116.5 65.5t155.5 24.5q154 0 246 -75.5t111 -188.5q-2 -45 -43 -72.5t-84 -27.5q2 10 2 22v23q0 49 -15.5 92t-45 74.5t-72.5 51t-99 19.5q-55 0 -99 -17.5t-75 -46t-46 -64.5t-11 -75q6 -72 66.5 -103.5t177.5 -55.5q80 -14 150.5 -30.5 t122.5 -41.5t84 -62.5t36 -97.5q4 -63 -27 -121.5t-87 -103.5t-132 -71.5t-160 -26.5q-76 0 -143.5 20.5t-120.5 55t-89 84t-48 104.5zM266 1247q31 25 70 24.5t61 -22.5l88 -92l88 92q23 23 61 22.5t68 -24.5l-176 -185q-12 -12 -41 -12t-41 12z" />
<glyph unicode="&#x161;" horiz-adv-x="712" d="M61 182q-6 37 24 59.5t95 16.5q-10 -41 2.5 -77t39 -62.5t62 -41t70.5 -14.5q37 0 71 13.5t58.5 35t38 49t10.5 56.5q-4 47 -58 67.5t-130 37.5q-61 12 -107.5 24t-79 30.5t-50 46.5t-21.5 69t14.5 79.5t53 69.5t86 49.5t114.5 18.5q119 0 186 -55.5t81 -141.5 q6 -41 -30 -62.5t-91 -13.5q8 37 1 73t-27.5 63.5t-51.5 45t-68 17.5q-68 0 -108.5 -43t-36.5 -92t41 -68.5t115 -36.5q63 -12 114 -23.5t89 -29.5t59.5 -47t25.5 -74t-19.5 -87t-64.5 -74.5t-97 -52t-118 -19.5q-55 0 -104 14t-89 41t-66.5 62.5t-33.5 76.5zM141 963 q31 25 70 24.5t61 -22.5l88 -92l88 92q23 23 61 22.5t68 -24.5l-176 -185q-12 -12 -41 -12t-41 12z" />
<glyph unicode="&#x178;" horiz-adv-x="860" d="M23 971q41 29 81.5 21.5t63.5 -40.5l260 -360l262 360q25 33 65 40t81 -21l-342 -469v-428q0 -86 -129 -86v514zM202 1170q0 29 27 50.5t67 21.5q41 0 68 -21.5t27 -50.5q0 -31 -27 -52.5t-68 -21.5t-67.5 21.5t-26.5 52.5zM469 1170q0 29 26.5 50.5t67.5 21.5 t67.5 -21.5t26.5 -50.5q0 -31 -26.5 -52.5t-67.5 -21.5t-67.5 21.5t-26.5 52.5z" />
<glyph unicode="&#x17d;" horiz-adv-x="901" d="M39 975h756q33 0 50 -24.5t1 -45.5l-651 -823h569q96 0 96 -82h-758q-33 0 -50 24.5t-1 45.5l651 825h-567q-96 0 -96 80z" />
<glyph unicode="&#x17e;" horiz-adv-x="657" d="M29 696h538q14 0 25.5 -7t20 -16t9.5 -21.5t-8 -20.5l-442 -555h367q90 0 90 -76h-541q-29 0 -45 23.5t0 44.5l440 555h-364q-90 0 -90 73z" />
<glyph unicode="&#x192;" horiz-adv-x="823" d="M39 -6q41 -23 64.5 -30t46.5 -7q33 0 56 19.5t39.5 51t26 71.5t13.5 83l37 340h-154q0 35 23.5 54.5t66.5 19.5h72q0 14 4 31q0 8 1 17t1 18q16 145 90 235t211 90q23 0 44 -4t38 -10q29 -16 40 -39t-3 -45l-35 -2q-23 10 -48.5 17t-45.5 7q-41 0 -70 -20.5t-48.5 -55 t-30.5 -80.5t-15 -96l-8 -63h211q0 -35 -24 -54.5t-64 -19.5h-129l-35 -305q-16 -152 -78 -243t-195 -91q-39 0 -61 8q-70 27 -41 103z" />
<glyph unicode="&#x1a0;" horiz-adv-x="1202" d="M80 487q0 104 40 195.5t110.5 159t164.5 106.5t203 39t204 -39t165.5 -106.5t111.5 -158.5t41 -196q0 -104 -41 -195t-111.5 -158.5t-165.5 -106.5t-204 -39t-203 39t-164.5 106.5t-110.5 158.5t-40 195zM209 487q0 -88 30.5 -163.5t83 -132t124 -89t151.5 -32.5 q82 0 152.5 32.5t124 89t84 132t30.5 163.5q0 86 -30.5 163t-84 133.5t-124 89t-152.5 32.5q-80 0 -151.5 -32.5t-124 -89t-83 -133.5t-30.5 -163zM944 741q78 10 103.5 75t25.5 171q127 0 127 -84q0 -31 -11 -63.5t-37 -62t-68 -54.5t-101 -39z" />
<glyph unicode="&#x1a1;" horiz-adv-x="923" d="M80 348q0 74 29.5 139.5t81 114.5t120 78t148.5 29t149.5 -29t121.5 -78t82 -114.5t30 -139.5q0 -76 -30 -141.5t-82 -114.5t-121.5 -76.5t-149.5 -27.5t-148.5 27.5t-120 76.5t-81 114.5t-29.5 141.5zM201 348q0 -59 20.5 -111.5t55 -91.5t82 -60.5t100.5 -21.5 t100 21.5t83 60.5t56.5 91.5t20.5 111.5t-20.5 111.5t-56.5 91.5t-83 61.5t-100 22.5t-100.5 -22.5t-82 -61.5t-55 -91.5t-20.5 -111.5zM715 489q68 10 90 67.5t22 152.5q117 0 117 -74q0 -27 -10 -56.5t-32.5 -57t-58.5 -49t-89 -34.5z" />
<glyph unicode="&#x1af;" horiz-adv-x="1052" d="M121 309v592q0 86 129 86v-678q0 -49 21.5 -93t58.5 -75.5t87 -51t107 -19.5t107.5 19.5t88.5 51t59.5 75.5t21.5 93v592q0 86 129 86v-678q0 -76 -37 -135t-95.5 -101t-130 -63.5t-143.5 -21.5t-143.5 21.5t-128.5 63.5t-94 101t-37 135zM862 741q76 10 101.5 75 t25.5 171q127 0 127 -84q0 -31 -11 -63.5t-37 -62t-68 -54.5t-101 -39z" />
<glyph unicode="&#x1b0;" horiz-adv-x="839" d="M121 223v410q0 76 121 76v-486q0 -66 50 -113t126 -47q78 0 128 47.5t50 112.5v410q0 76 121 76v-643q0 -78 -121 -78v43q-37 -20 -82 -31.5t-96 -11.5q-61 0 -115.5 18.5t-94.5 51t-63.5 74.5t-23.5 91zM659 489q66 10 88.5 67.5t22.5 152.5q119 0 119 -74 q0 -27 -10.5 -56.5t-33 -57t-59 -49t-90.5 -34.5z" />
<glyph unicode="&#x2c6;" horiz-adv-x="667" d="M115 782l176 185q12 12 41 12t41 -12l178 -185q-31 -25 -70 -24.5t-61 22.5l-88 92l-88 -92q-23 -23 -61 -22.5t-68 24.5z" />
<glyph unicode="&#x2c7;" horiz-adv-x="667" d="M115 959q31 25 70 24.5t61 -22.5l88 -92l88 92q23 23 61 22.5t68 -24.5l-176 -185q-12 -12 -41 -12t-41 12z" />
<glyph unicode="&#x2d8;" horiz-adv-x="655" d="M82 930q-2 23 33 39t84 16q0 -66 35.5 -107.5t91.5 -41.5q57 0 93 42t36 107q49 0 82.5 -16.5t31.5 -38.5q-2 -41 -25.5 -73t-59 -54.5t-78.5 -33.5t-80 -11t-79 11t-78 33.5t-60.5 54.5t-26.5 73z" />
<glyph unicode="&#x2d9;" horiz-adv-x="364" d="M88 940q0 29 26.5 50.5t67.5 21.5t66.5 -21.5t25.5 -50.5q0 -31 -25.5 -52.5t-66.5 -21.5t-67.5 21.5t-26.5 52.5z" />
<glyph unicode="&#x2da;" horiz-adv-x="610" d="M143 940q0 49 44 93t116 44t116 -44t44 -93q0 -59 -44 -98t-116 -39q-66 0 -113 40t-47 97zM244 940q0 -35 17.5 -57.5t41.5 -22.5q27 0 44.5 22.5t17.5 57.5q0 29 -16.5 54.5t-45.5 25.5t-44 -25.5t-15 -54.5z" />
<glyph unicode="&#x2db;" horiz-adv-x="397" d="M57 -158q0 37 37 66t90 35l-55 80h102l91 -136q-55 4 -99.5 -9t-44.5 -46q0 -25 17.5 -39t35.5 -14q43 0 107 49q23 -31 18.5 -52.5t-28.5 -37.5q-35 -23 -97 -23q-31 0 -62.5 8.5t-56 24.5t-40 39.5t-15.5 54.5z" />
<glyph unicode="&#x2dc;" horiz-adv-x="518" d="M25 868q8 45 43.5 74t89.5 29q47 0 72.5 -13.5t48.5 -31.5h-5l15 -11h6q18 -16 34.5 -27t26.5 -11q16 0 24.5 25.5t-7.5 60.5q29 10 51 8t37.5 -11.5t23 -23.5t4.5 -29q-6 -43 -40.5 -72.5t-92.5 -29.5q-47 0 -72.5 14.5t-50.5 32.5h5l-19 10q-16 12 -33.5 24.5 t-27.5 12.5q-16 0 -23.5 -25.5t6.5 -58.5q-29 -10 -51 -9t-37.5 10t-24 23.5t-3.5 28.5z" />
<glyph unicode="&#x2dd;" horiz-adv-x="770" d="M84 758l119 180q27 39 114 39h72l-168 -184q-23 -20 -53.5 -27.5t-83.5 -7.5zM371 758l119 180q27 39 114 39h72l-168 -184q-23 -20 -53.5 -27.5t-83.5 -7.5z" />
<glyph unicode="&#x300;" horiz-adv-x="475" d="M84 977h72q90 0 114 -39l119 -180q-53 0 -84 7t-51 28z" />
<glyph unicode="&#x301;" horiz-adv-x="475" d="M84 758l119 180q27 39 114 39h72l-168 -184q-23 -20 -53.5 -27.5t-83.5 -7.5z" />
<glyph unicode="&#x303;" horiz-adv-x="518" d="M47 866q6 41 38 68t85 27q43 0 65.5 -12.5t43.5 -28.5h-5l25 -17l2 -2q12 -10 24.5 -19.5t20.5 -9.5q14 0 20.5 24t-8.5 54q53 20 84 0t27 -49q-6 -41 -38 -67.5t-85 -26.5q-43 0 -64.5 12t-43.5 29h4l-21 14l-6 4q-12 10 -24.5 19.5t-20.5 9.5q-14 0 -21.5 -24.5 t9.5 -53.5q-53 -20 -84 0.5t-27 48.5z" />
<glyph unicode="&#x309;" horiz-adv-x="360" d="M47 942q12 35 49 53.5t82 18.5q53 0 96 -30t43 -79q0 -33 -23.5 -55.5t-43.5 -36.5q-12 -9 -12 -27q0 -27 -31 -30.5t-82 -3.5v32q0 29 17.5 46.5t39.5 33.5q8 6 15.5 15.5t7.5 25.5t-8.5 29.5t-18.5 13.5t-18 -13t-8 -30q0 -18 2 -28q-53 0 -86 15t-21 50z" />
<glyph unicode="&#x323;" horiz-adv-x="309" d="M59 -162q0 29 27 50.5t68 21.5t66.5 -21.5t25.5 -50.5q0 -31 -25.5 -52.5t-66.5 -21.5t-68 21.5t-27 52.5z" />
<glyph unicode="&#x3a9;" horiz-adv-x="1273" />
<glyph unicode="&#x3c0;" horiz-adv-x="366" d="M119 -12v639q0 39 33.5 62.5t93.5 23.5v-639q0 -41 -33 -63.5t-94 -22.5zM119 -12v639q0 39 33.5 62.5t93.5 23.5v-639q0 -41 -33 -63.5t-94 -22.5z" />
<glyph unicode="&#xe00;" horiz-adv-x="651" />
<glyph unicode="&#xe01;" horiz-adv-x="897" d="M80 551q0 61 30.5 111.5t80 87t110.5 56t125 19.5q61 0 123.5 -18.5t113 -54t81 -87t30.5 -114.5v-473q0 -39 -37 -64.5t-90 -25.5v563q0 39 -17.5 73.5t-48 62.5t-70.5 44.5t-85 16.5q-43 0 -83 -15.5t-69.5 -41t-48 -59.5t-20.5 -71q2 -6 14 -27.5t25 -46.5 q14 -29 32 -61l7 -20v-418q-53 0 -90 25.5t-37 64.5v317q-2 4 -13.5 25.5t-23.5 46.5q-14 29 -33 63q-6 12 -6 21z" />
<glyph unicode="&#xe02;" horiz-adv-x="862" d="M43 594q0 47 19.5 89t53.5 73.5t80 50t99 18.5q51 0 97 -18.5t80 -50t54.5 -73.5t20.5 -89q0 -37 -22.5 -78t-57.5 -82t-58.5 -91t-25.5 -116v-39q0 -53 34 -87.5t81 -34.5t80.5 32.5t33.5 89.5v545q0 37 37 63.5t90 26.5v-635q0 -45 -19.5 -81.5t-53 -63.5t-77.5 -41 t-91 -14t-91.5 14t-77 41t-52 63.5t-19.5 81.5v39q0 72 36 134.5t83 125.5q43 49 43 107q0 59 -37 106.5t-88 47.5q-41 0 -73 -23t-48 -57q10 2 18.5 3t18.5 1q63 0 106 -34t43 -87t-43 -92t-106 -39q-76 0 -122 52t-46 122zM145 551q0 -29 18.5 -47.5t47.5 -18.5t47 18.5 t18 47.5t-18 47t-47 18t-47.5 -18t-18.5 -47z" />
<glyph unicode="&#xe03;" horiz-adv-x="862" d="M43 594q0 37 12.5 77t32.5 74q25 37 61.5 58.5t83.5 21.5q20 0 36 -11t28 -21q10 10 25.5 21t39.5 11q43 0 78 -20.5t58.5 -53t36 -73.5t12.5 -84q0 -37 -22.5 -78t-57.5 -82t-58.5 -91t-25.5 -116v-39q0 -53 34 -87.5t81 -34.5t80.5 32.5t33.5 89.5v545q0 37 37 63.5 t90 26.5v-635q0 -45 -19.5 -81.5t-53 -63.5t-77.5 -41t-91 -14t-91.5 14t-77 41t-52 63.5t-19.5 81.5v39q0 72 36 134.5t83 125.5q43 49 43 107q0 39 -11.5 83t-27.5 64q-8 -6 -14.5 -13t-12.5 -13q-8 -8 -14 -13q-16 -16 -42 -16t-42 16l-14 15l-27 26q-10 -10 -22.5 -30.5 t-22.5 -46.5q21 6 41 6q63 0 106 -34t43 -87t-43 -92t-106 -39q-76 0 -122 52t-46 122zM145 551q0 -29 18.5 -47.5t47.5 -18.5t47 18.5t18 47.5t-18 47t-47 18t-47.5 -18t-18.5 -47z" />
<glyph unicode="&#xe04;" horiz-adv-x="937" d="M119 78v473q0 61 30.5 111.5t80 87t112 56t125.5 19.5q61 0 122.5 -19.5t112 -54t82 -86t31.5 -114.5v-473q0 -39 -37 -64.5t-90 -25.5v563q0 39 -17.5 73.5t-48 62.5t-70.5 44.5t-85 16.5t-85 -16.5t-70.5 -44.5t-48 -62.5t-17.5 -73.5v-262l84 246q14 35 51 57t86 22 q59 0 105 -38.5t46 -92.5q0 -53 -46 -91t-105 -38q-49 0 -80 19l-143 -385q-53 0 -89 25.5t-36 64.5zM401 483q0 -29 18.5 -47t47.5 -18t47 18.5t18 46.5q0 29 -18 47.5t-47 18.5t-47.5 -18.5t-18.5 -47.5z" />
<glyph unicode="&#xe05;" horiz-adv-x="937" d="M119 78v512q0 55 22.5 99t57 75t75.5 46t76 15q25 0 37 -12q14 -12 29 -20q12 -10 26.5 -18.5t24.5 -18.5q12 10 25.5 19t25.5 20q14 10 29 20q10 10 39 10q35 0 74.5 -15t74.5 -46t57.5 -75t22.5 -99v-512q0 -39 -37 -64.5t-90 -25.5v602q0 61 -26.5 101t-53.5 50 q-10 -8 -26.5 -21t-31.5 -25.5t-28.5 -21.5t-15.5 -11h2q-18 -16 -41 -16.5t-41 16.5q-20 16 -41 32q-16 14 -32.5 27.5t-24.5 19.5q-29 -10 -55.5 -50t-26.5 -101v-307l84 233q14 35 51 57.5t86 22.5q63 0 107 -39t44 -92t-44 -91t-107 -38q-49 0 -80 18l-143 -366 q-53 0 -89 25.5t-36 64.5zM401 465q0 -29 18.5 -47.5t47.5 -18.5t47 18.5t18 47.5t-18 47t-47 18t-47.5 -18t-18.5 -47z" />
<glyph unicode="&#xe06;" horiz-adv-x="980" d="M43 594q0 37 12.5 77t34.5 74q23 37 59.5 58.5t83.5 21.5q20 0 36 -11t28 -21q10 10 25.5 21t39.5 11q43 0 78 -20.5t58.5 -53t36 -73.5t12.5 -84q0 -37 -22.5 -78t-57.5 -82q-33 -39 -58.5 -89t-25.5 -109q0 -14 2 -23l346 -123v643q0 37 37 63.5t90 26.5v-745 q0 -39 -31.5 -64.5t-78.5 -25.5l-363 129q-4 -55 -47 -92t-107 -37q-66 0 -109.5 39t-43.5 96q0 53 44 93t109 40q16 0 27 -2q8 61 43 118.5t76 114.5q43 49 43 107q0 39 -11.5 83t-27.5 64q-8 -6 -14.5 -13t-12.5 -13l-12 -13q-16 -16 -43 -16t-43 16l-14 15l-27 26 q-10 -10 -22.5 -30.5t-22.5 -46.5q20 6 41 6q63 0 107 -34t44 -87t-44 -92t-107 -39q-76 0 -122 52t-46 122zM145 551q0 -29 18.5 -47.5t47.5 -18.5t47 18.5t18 47.5t-18 47t-47 18t-47.5 -18t-18.5 -47zM166 123q0 -29 18.5 -47.5t46.5 -18.5q29 0 47.5 18.5t18.5 47.5 t-18.5 47t-47.5 18t-47 -18t-18 -47z" />
<glyph unicode="&#xe07;" horiz-adv-x="782" d="M71.5 549q4.5 37 37.5 69l426 -473v422h-25q-63 0 -107.5 37t-44.5 90t44.5 92t107.5 39q61 0 105 -38.5t44 -92.5v-616q0 -39 -34.5 -64.5t-81.5 -25.5q-170 186 -262.5 288.5t-135.5 149.5l-57 63h2q-23 23 -18.5 60zM444 694q0 -29 18.5 -47t47.5 -18t47 18.5t18 46.5 q0 29 -18 47.5t-47 18.5t-47.5 -18.5t-18.5 -47.5z" />
<glyph unicode="&#xe08;" horiz-adv-x="839" d="M45 590q8 49 37 92t74 74.5t101 50t122 18.5q72 0 133 -21.5t107.5 -58t72 -87t25.5 -107.5v-473q0 -37 -36 -63.5t-89 -26.5l-131 381q-31 -12 -74 -13q-61 0 -105 38t-44 91t44 92t105 39q53 0 91 -26.5t52 -65.5l60 -211v238q0 39 -16.5 75t-45 62.5t-66.5 43 t-83 16.5q-43 0 -82 -16.5t-67.5 -43t-45 -62.5t-16.5 -75v-22.5t2 -20.5q-51 0 -90 23.5t-35 58.5zM322 485q0 -29 18 -47t47 -18t47.5 18.5t18.5 46.5q0 29 -18.5 47.5t-47.5 18.5t-47 -18.5t-18 -47.5z" />
<glyph unicode="&#xe09;" horiz-adv-x="890" d="M55 603.5q-4 17.5 4 35.5q18 43 52 78t79.5 59.5t96.5 36.5t102 12q59 0 120.5 -18.5t113 -54t83 -87t31.5 -114.5v-252q0 -25 -12 -51q45 -14 74.5 -49t29.5 -76q0 -57 -45 -96t-110 -39q-53 0 -94 26.5t-56 69.5l-157 -96q-47 0 -80 26.5t-33 63.5v172h-25 q-63 0 -106 39t-43 92t43 91t106 38t106.5 -38t43.5 -91v-277l188 115q20 12 32.5 34.5t12.5 45.5v252q0 39 -17 73.5t-48 62.5t-72 44.5t-86 16.5t-85 -16.5t-70.5 -44.5t-48 -64.5t-17.5 -75.5q-31 -2 -54.5 5t-39 20.5t-19.5 31zM164 381q0 -29 18.5 -47.5t46.5 -18.5 q29 0 47.5 18.5t18.5 47.5t-18.5 47t-47.5 18t-47 -18t-18 -47zM604 123q0 -29 20.5 -49.5t49.5 -20.5t49 20.5t20 49.5t-20.5 49.5t-48.5 20.5q-29 0 -49.5 -20.5t-20.5 -49.5z" />
<glyph unicode="&#xe0a;" horiz-adv-x="862" d="M43 594q0 47 19.5 89t53.5 73.5t80 50t99 18.5q45 0 85 -14t72.5 -40t55 -59.5t33.5 -72.5l28 12q18 6 33.5 22.5t27 39t17.5 47t6 47.5q0 10 -1 17t-5 26q51 0 91 -23.5t36 -56.5q-8 -43 -35.5 -86t-68.5 -63q37 -29 53 -74t16 -103v-256q0 -45 -19.5 -81.5t-53 -63.5 t-77.5 -41t-91 -14t-91.5 14t-77 41t-52 63.5t-19.5 81.5v39q0 72 36 134.5t83 125.5q43 49 43 107q0 59 -37 106.5t-88 47.5q-41 0 -73 -23t-48 -57q10 2 18.5 3t18.5 1q63 0 106 -34t43 -87t-43 -92t-106 -39q-76 0 -122 52t-46 122zM145 551q0 -29 18.5 -47.5t47.5 -18.5 t47 18.5t18 47.5t-18 47t-47 18t-47.5 -18t-18.5 -47zM383 188q0 -53 34 -87.5t81 -34.5t80.5 32.5t33.5 89.5v256q0 76 -10 106t-33 38q-16 4 -22 8v-2q0 -37 -22.5 -78t-57.5 -82t-58.5 -91t-25.5 -116v-39z" />
<glyph unicode="&#xe0b;" horiz-adv-x="862" d="M43 594q0 37 12.5 77t32.5 74q25 37 61.5 58.5t83.5 21.5q20 0 36 -11t28 -21q10 10 25.5 21t39.5 11q76 0 122 -56t59 -130q6 4 26 12q18 6 33.5 22.5t27 39t17.5 47t6 47.5q0 10 -1 17t-5 26q51 0 91 -23.5t36 -56.5q-8 -43 -35.5 -86t-68.5 -63q37 -29 53 -74t16 -103 v-256q0 -45 -19.5 -81.5t-53 -63.5t-77.5 -41t-91 -14t-91.5 14t-77 41t-52 63.5t-19.5 81.5v39q0 72 36 134.5t83 125.5q43 49 43 107q0 39 -11.5 83t-27.5 64q-8 -6 -14.5 -13t-12.5 -13l-12 -13q-16 -16 -43 -16t-43 16l-14 15l-27 26q-10 -10 -22.5 -30.5t-22.5 -46.5 q20 6 41 6q63 0 106 -34t43 -87t-43 -92t-106 -39q-76 0 -122 52t-46 122zM145 551q0 -29 18.5 -47.5t47.5 -18.5t47 18.5t18 47.5t-18 47t-47 18t-47.5 -18t-18.5 -47zM383 188q0 -53 34 -87.5t81 -34.5t80.5 32.5t33.5 89.5v256q0 76 -10 106t-33 38q-16 4 -22 8v-2 q0 -37 -22.5 -78t-57.5 -82t-58.5 -91t-25.5 -116v-39z" />
<glyph unicode="&#xe0c;" horiz-adv-x="1275" d="M80 551q0 61 30.5 111.5t80 87t112 56t125.5 19.5q61 0 122.5 -18.5t112 -54t81 -87t30.5 -114.5v-352l250 -109v643q0 37 37 63.5t90 26.5v-745q0 -39 -33 -64.5t-80 -25.5l-264 112q-6 -49 -48 -80.5t-101 -31.5q-63 0 -107.5 39t-44.5 92t44 91t108 38q16 0 24 -2v305 q0 39 -17.5 73.5t-48 62.5t-70.5 44.5t-85 16.5t-84 -15.5t-69.5 -41t-49 -59.5t-20.5 -71q2 -6 14 -27.5t25 -46.5q14 -29 32 -61l7 -20v-160q6 2 24 2q63 0 106.5 -38t43.5 -91t-43 -92t-107 -39q-63 0 -106 39t-43 92v276q-2 4 -13.5 25.5t-23.5 46.5q-16 29 -35 63 q-6 12 -6 21zM242 119q0 -29 18.5 -47.5t46.5 -18.5q29 0 47.5 18.5t18.5 47.5t-18.5 47t-47.5 18t-47 -18t-18 -47zM559 119q0 -29 18.5 -47.5t47.5 -18.5t47 18.5t18 47.5t-18.5 47t-46.5 18q-29 0 -47.5 -18t-18.5 -47z" />
<glyph unicode="&#xe0d;" horiz-adv-x="1234" d="M80 551q0 57 24.5 107.5t68.5 87t103.5 58t131.5 21.5q70 0 130 -21.5t104 -58t68.5 -87t24.5 -107.5v-363q0 -49 36 -81.5t89 -32.5t88 32.5t35 81.5v545q0 37 37 63.5t90 26.5v-635q0 -45 -21.5 -81.5t-56.5 -63.5t-80 -41t-92 -14t-91 13t-80 40t-57.5 63.5 t-21.5 83.5v363q0 43 -17.5 79t-45 62.5t-64.5 41t-75 14.5q-74 0 -133.5 -49.5t-69.5 -137.5q2 -6 14 -27.5t25 -46.5q14 -29 32 -61l7 -20v-160q6 2 24 2q63 0 106.5 -38t43.5 -91t-43 -92t-107 -39q-63 0 -106 39t-43 92v276q-2 4 -13.5 25.5t-23.5 46.5q-16 29 -35 63 q-6 12 -6 21zM242 119q0 -29 18.5 -47.5t46.5 -18.5q29 0 47.5 18.5t18.5 47.5t-18.5 47t-47.5 18t-47 -18t-18 -47zM629 -170q0 47 40 83t99 36t100 -36t41 -83q0 -37 -24.5 -64.5t-63.5 -39.5q25 -10 35 -11q35 0 59.5 21.5t38 55.5t15.5 75t-8 80q59 0 95 -21.5t36 -54.5 q0 -43 -17.5 -85t-48.5 -75t-74 -53t-96 -20q-43 0 -84 14t-72.5 39.5t-51 61.5t-19.5 77zM709 -170q0 -25 17 -42t42 -17t42 17t17 42t-17 42t-42 17t-42 -17t-17 -42z" />
<glyph unicode="&#xe0e;" horiz-adv-x="935" d="M59 119q0 53 43.5 91t106.5 38q16 0 24 -2v145q-4 6 -21 29.5t-40 50.5q-25 31 -55 68q-2 2 -2 12q0 61 30.5 112.5t79.5 87t111.5 55t126.5 19.5q61 0 123.5 -18.5t112 -54t81 -87t31.5 -114.5v-698q0 -12 -7 -29t-18 -27q-37 -37 -77.5 -76.5t-75.5 -74.5 q-8 -8 -22.5 -10.5t-24.5 -0.5q-12 2 -24.5 8.5t-16.5 16.5q-10 29 -25 49q-76 -80 -180 -74q-63 4 -101 36t-38 83q0 49 35.5 81t99.5 42q80 10 160 -29q18 35 36 95q45 -16 69 -44t9 -53q-10 -16 -17 -29.5t-15 -27.5q10 -10 20 -20.5t18 -26.5l68 65v744q0 39 -17.5 73.5 t-47 62.5t-70.5 44.5t-86 16.5q-43 0 -83 -15.5t-69.5 -41t-48 -59.5t-20.5 -71q4 -6 19 -27.5t34 -44.5q23 -27 49 -59q14 -18 14 -27v-284q0 -53 -43 -92t-106 -39t-106.5 39t-43.5 92zM143 119q0 -29 18.5 -47.5t47.5 -18.5t47 18.5t18 47.5t-18 47t-47 18t-47.5 -18 t-18.5 -47zM301 -246q0 -23 19.5 -36t35.5 -15q23 -2 49.5 17.5t49.5 56.5q-31 23 -55 28.5t-44 1.5q-12 -2 -33.5 -13t-21.5 -40z" />
<glyph unicode="&#xe0f;" horiz-adv-x="933" d="M59 119q0 53 43.5 91t106.5 38q16 0 24 -2v145l-116 148q-2 2 -2 12q0 61 30.5 112.5t79.5 87t111.5 55t126.5 19.5q61 0 123.5 -18.5t112 -54t81 -87t31.5 -114.5v-766q0 -8 -8 -22.5t-19 -24.5l-94 -92q-16 -16 -38.5 -16.5t-39.5 16.5q-8 6 -16 15t-16 20 q-8 10 -21 20l-57 -55q-14 -14 -49 -11q-16 2 -27.5 10.5t-15.5 16.5q-4 12 -11.5 24.5t-11.5 22.5q-74 -80 -180 -74q-63 4 -100 36t-37 83q0 49 34.5 81t98.5 42q84 10 157 -29q12 18 21.5 40t19.5 53q45 -14 66.5 -43t9.5 -52l-33 -59q12 -10 23.5 -21.5t21.5 -27.5 l39 39q16 16 38 16t38 -16l51 -51l29 24v801q0 39 -17.5 73.5t-47 62.5t-70.5 44.5t-86 16.5q-43 0 -83 -15.5t-69.5 -41t-48 -59.5t-20.5 -71q4 -6 20.5 -27.5t34.5 -44.5q23 -27 47 -59q14 -18 14 -27v-284q0 -53 -43 -92t-106 -39t-106.5 39t-43.5 92zM141 119 q0 -29 18.5 -47.5t47.5 -18.5t47 18.5t18 47.5t-18 47t-47 18t-47.5 -18t-18.5 -47zM168 -246q0 -23 19.5 -36t35.5 -15q23 -2 50.5 15.5t50.5 58.5q-31 23 -54.5 29t-44.5 1q-14 -2 -35.5 -13t-21.5 -40z" />
<glyph unicode="&#xe10;" horiz-adv-x="829" d="M80 592q6 49 31.5 92t66.5 75t94.5 49t114.5 17q72 0 131.5 -24.5t99.5 -63.5l48 88q49 -23 67.5 -54.5t3.5 -59.5l-51 -101q-23 -45 -58.5 -41t-49.5 41q-25 59 -78.5 98.5t-112.5 39.5q-61 0 -108.5 -43t-67.5 -97l395 -96q33 -10 56.5 -34.5t23.5 -53.5v-346 q0 -39 -36 -64.5t-85 -25.5l-110 180q-41 -29 -97 -29q-61 0 -105 39t-44 92t44 91t105 38q45 0 81 -18.5t55 -48.5l67 -133v239q-111 27 -217 54.5t-217 54.5q-20 4 -34.5 16t-12.5 29zM88 -305q0 47 37 75.5t90 28.5q33 0 58.5 -4t50.5 -16q4 12 10 31.5t14 52.5 q43 -18 55.5 -40t12.5 -44q0 -10 -6.5 -26.5t-16.5 -31.5l43 -45l23 25q10 10 37 10q16 0 23 -3t11 -7l31 -33l8 10v60h-22q-53 0 -93 32.5t-40 79.5q0 45 39 78t94 33q53 0 92 -32.5t39 -78.5v-126q0 -20 -21 -41q-4 -4 -15 -16.5t-24 -26.5q-14 -16 -32 -35 q-10 -10 -35 -11q-25 0 -35 11l-39 41l-39 -41q-10 -10 -37 -11q-16 0 -30 19q-14 16 -15.5 17t-11.5 16q-23 -23 -59.5 -37.5t-75.5 -14.5q-53 0 -87 30t-34 71zM170 -305q0 -18 15.5 -30.5t25.5 -12.5q16 0 38.5 16.5t39.5 46.5q-23 16 -41.5 20.5t-32.5 4.5 q-10 0 -27.5 -10.5t-17.5 -34.5zM293 270q0 -29 18.5 -47t46.5 -18q29 0 47.5 18.5t18.5 46.5q0 29 -18.5 47.5t-47.5 18.5t-47 -18.5t-18 -47.5zM496 -150q0 -23 14 -37t37 -14t37 14.5t14 36.5q0 23 -14.5 37.5t-36.5 14.5q-23 0 -37 -14.5t-14 -37.5z" />
<glyph unicode="&#xe11;" horiz-adv-x="1038" d="M43 594q0 37 12.5 77t34.5 74q23 37 59.5 58.5t83.5 21.5q20 0 36 -11t28 -21q10 10 25.5 21t42.5 11q43 0 76.5 -20.5t57 -53t36 -73.5t12.5 -84q0 -37 -22.5 -78t-57.5 -82t-49.5 -88t-14.5 -113l295 570q6 10 22.5 16t35.5 6q72 0 114.5 -37.5t42.5 -101.5v-608 q0 -39 -35.5 -64.5t-89.5 -25.5v698q0 12 -1 21.5t-5 17.5q-96 -186 -191 -368.5t-192 -368.5q-49 0 -84.5 25.5t-35.5 64.5v149q0 72 24.5 133.5t75.5 126.5q20 25 30.5 50.5t10.5 56.5q0 39 -11.5 83t-27.5 64l-39 -39q-16 -16 -43 -16t-43 16l-14 15l-27 26 q-10 -10 -22.5 -30.5t-22.5 -46.5q20 6 41 6q63 0 107 -34t44 -87t-44 -92t-107 -39q-74 0 -121 52t-47 122zM145 551q0 -29 18.5 -47.5t47.5 -18.5t47 18.5t18 47.5t-18 47t-47 18t-47.5 -18t-18.5 -47z" />
<glyph unicode="&#xe12;" horiz-adv-x="1314" d="M121 78v512q0 55 22.5 99t56 75t74.5 46t76 15q27 0 39 -12q14 -12 29 -20q12 -10 25.5 -18.5t23.5 -18.5q12 10 25.5 19t25.5 20q14 10 29 20q10 10 39 10q35 0 75.5 -15t74.5 -46t56.5 -75t22.5 -99v-385l248 -115v643q0 37 37 63.5t90 26.5v-745q0 -39 -33 -64.5 t-80 -25.5l-264 118q-6 -53 -49 -85.5t-102 -32.5q-66 0 -111 39t-45 96q0 53 45 93t111 40q18 0 28 -2v336q0 61 -26.5 101t-55.5 50q-10 -8 -26.5 -21t-31.5 -25.5t-28.5 -21.5t-15.5 -11h2q-41 -33 -80 0q-23 16 -43 32q-16 14 -32.5 27.5t-24.5 19.5q-29 -10 -55.5 -50 t-26.5 -101v-443l172 197q-45 12 -73 45t-28 76q0 53 44.5 92t105.5 39q59 0 105 -39t46 -92q0 -41 -36 -82l-344 -395q-47 0 -82 25.5t-35 64.5zM401 465q0 -29 18.5 -47.5t47.5 -18.5t47 18.5t18 47.5t-18 47t-47 18t-47.5 -18t-18.5 -47zM592 123q0 -29 20.5 -49.5 t49.5 -20.5t49 20.5t20 49.5t-20.5 49.5t-48.5 20.5q-29 0 -49.5 -20.5t-20.5 -49.5z" />
<glyph unicode="&#xe13;" horiz-adv-x="1269" d="M80 551q0 57 24.5 107.5t69.5 87t104.5 58t131.5 21.5q70 0 130 -21.5t104 -58t68.5 -87t24.5 -107.5v-451q49 29 104.5 61t104.5 60q23 16 32 38t9 42v432q0 37 37 63.5t90 26.5v-522q0 -29 -10 -53q45 -16 73.5 -51t28.5 -74q0 -57 -47 -96t-108 -39q-57 0 -98.5 28.5 t-51.5 73.5l-176 -102q-47 0 -80 25.5t-33 64.5v473q0 86 -53 133q-31 29 -69.5 46.5t-79.5 17.5t-81 -16.5t-71 -45.5q-49 -47 -53 -123q2 -6 14 -28.5t25 -47.5q14 -29 32 -61l7 -20v-160q6 2 24 2q63 0 107.5 -38t44.5 -91t-44 -92t-108 -39q-63 0 -106 39t-43 92v276 q-2 4 -13.5 25.5t-23.5 46.5q-16 29 -35 63q-6 12 -6 21zM242 119q0 -29 18.5 -47.5t46.5 -18.5q29 0 47.5 18.5t18.5 47.5t-18.5 47t-47.5 18t-47 -18t-18 -47zM981 123q0 -29 20.5 -49.5t49.5 -20.5t49 20.5t20 49.5t-20.5 49.5t-48.5 20.5q-29 0 -49.5 -20.5t-20.5 -49.5 z" />
<glyph unicode="&#xe14;" horiz-adv-x="937" d="M119 78v473q0 53 27.5 104.5t78.5 92.5q96 78 242 77q72 0 133.5 -20.5t106.5 -56.5q53 -43 80.5 -93.5t27.5 -103.5v-473q0 -39 -37 -64.5t-90 -25.5v563q0 39 -17.5 73.5t-48 62.5t-70.5 44.5t-85 16.5t-85 -16.5t-70.5 -44.5t-48 -62.5t-17.5 -73.5v-397l172 208 q-45 14 -73 47t-28 76q0 53 43 92t107 39q63 0 107 -38.5t44 -92.5q0 -37 -34 -82l-346 -415q-49 0 -84 25.5t-35 64.5zM401 485q0 -29 18.5 -47t47.5 -18t47 18.5t18 46.5q0 29 -18 47.5t-47 18.5t-47.5 -18.5t-18.5 -47.5z" />
<glyph unicode="&#xe15;" horiz-adv-x="937" d="M119 78v512q0 55 22.5 99t57 75t75.5 46t76 15q25 0 37 -12q14 -12 29 -20q12 -10 26.5 -18.5t24.5 -18.5q12 10 25.5 19t25.5 20q14 10 29 20q10 10 39 10q35 0 74.5 -15t74.5 -46t57.5 -75t22.5 -99v-512q0 -39 -37 -64.5t-90 -25.5v602q0 61 -26.5 101t-53.5 50 q-10 -8 -26.5 -21t-31.5 -25.5t-27.5 -21.5t-14.5 -11q-18 -16 -41 -16.5t-41 16.5q-20 16 -41 32q-16 14 -32.5 27.5t-24.5 19.5q-29 -10 -55.5 -50t-26.5 -101v-443l170 197q-43 12 -71 45t-28 76q0 53 43 92t107 39q59 0 105 -39t46 -92q0 -41 -36 -82l-344 -395 q-49 0 -84 25.5t-35 64.5zM401 465q0 -29 18.5 -47.5t47.5 -18.5t47 18.5t18 47.5t-18 47t-47 18t-47.5 -18t-18.5 -47z" />
<glyph unicode="&#xe16;" horiz-adv-x="897" d="M80 551q0 61 30.5 111.5t80 87t110.5 56t125 19.5q61 0 123.5 -18.5t113 -54t81 -87t30.5 -114.5v-473q0 -39 -37 -64.5t-90 -25.5v563q0 39 -17.5 73.5t-48 62.5t-70.5 44.5t-85 16.5q-43 0 -83 -15.5t-69.5 -41t-48 -59.5t-20.5 -71l71 -135q6 -10 7 -20v-160q6 2 24 2 q61 0 105.5 -38t44.5 -91t-44 -92t-106 -39q-63 0 -107 39t-44 92v276l-70 135q-6 12 -6 21zM242 119q0 -29 18.5 -47.5t46.5 -18.5q29 0 47.5 18.5t18.5 47.5t-18.5 47t-47.5 18t-47 -18t-18 -47z" />
<glyph unicode="&#xe17;" horiz-adv-x="993" d="M59 694q0 53 43 92t107 39q63 0 107 -38.5t44 -92.5v-436q25 72 59 164t63.5 175t50 140.5t22.5 61.5q4 12 20.5 19t38.5 7q123 0 187 -63q70 -68 69 -172v-512q0 -39 -36.5 -64.5t-90.5 -25.5v602q0 123 -92 145l-293 -747q-53 0 -89 25.5t-36 64.5v487h-24 q-63 0 -106.5 38t-43.5 91zM143 694q0 -29 18.5 -47t47.5 -18t47 18.5t18 46.5q0 29 -18 47.5t-47 18.5t-47.5 -18.5t-18.5 -47.5z" />
<glyph unicode="&#xe18;" horiz-adv-x="829" d="M80 592q6 49 31.5 92t66.5 75t94.5 49t114.5 17q72 0 131.5 -24.5t99.5 -63.5l48 88q49 -23 67.5 -54.5t3.5 -59.5l-51 -101q-23 -45 -58.5 -41t-49.5 41q-25 59 -78.5 98.5t-112.5 39.5q-61 0 -108.5 -43t-67.5 -97l416 -102q33 -10 56.5 -35t23.5 -53v-158 q0 -57 -19.5 -107.5t-56.5 -87t-92.5 -57t-126.5 -20.5q-72 0 -126.5 20.5t-91 57t-56 87t-19.5 107.5v129q0 37 37 63.5t90 26.5v-219q0 -88 45 -141t121 -53t123 51t47 143v172l-455 115q-20 4 -34.5 16t-12.5 29z" />
<glyph unicode="&#xe19;" horiz-adv-x="1005" d="M59 694q0 53 44 92t106 39q63 0 107 -38.5t44 -92.5v-604q80 33 159 66.5t159 68.5q23 12 35 37t12 45v426q0 37 37 63.5t90 26.5v-516q0 -25 -16 -57q47 -14 76.5 -49t29.5 -78q0 -55 -44 -95t-110 -40q-59 0 -102 34.5t-49 88.5l-291 -123q-47 0 -80 25.5t-33 64.5v487 h-24q-61 0 -105.5 38t-44.5 91zM143 694q0 -29 18.5 -47t47.5 -18t47 18.5t18 46.5q0 29 -18 47.5t-47 18.5t-47.5 -18.5t-18.5 -47.5zM719 123q0 -29 20.5 -49.5t48.5 -20.5q29 0 49.5 20.5t20.5 49.5t-20.5 49.5t-49.5 20.5t-49 -20.5t-20 -49.5z" />
<glyph unicode="&#xe1a;" horiz-adv-x="972" d="M59 694q0 53 43 92t107 39q63 0 107 -38.5t44 -92.5v-432q0 -86 50.5 -141t130.5 -55q78 0 130 55t52 141v471q0 37 37 63.5t90 26.5v-561q0 -61 -23.5 -111.5t-65.5 -87t-98.5 -56t-121.5 -19.5q-66 0 -121 19.5t-97 56t-66 87t-24 111.5v303h-24q-63 0 -106.5 38 t-43.5 91zM143 694q0 -29 18.5 -47t47.5 -18t47 18.5t18 46.5q0 29 -18 47.5t-47 18.5t-47.5 -18.5t-18.5 -47.5z" />
<glyph unicode="&#xe1b;" horiz-adv-x="993" d="M59 694q0 53 43 92t107 39q63 0 107 -38.5t44 -92.5v-432q0 -86 52.5 -141t138.5 -55t139 55t53 141v803q0 37 37 62.5t90 25.5v-891q0 -61 -25.5 -111.5t-69.5 -87t-102.5 -56t-121.5 -19.5q-61 0 -118.5 19.5t-101.5 56t-71 87t-27 111.5v303h-24q-63 0 -106.5 38 t-43.5 91zM143 694q0 -29 18.5 -47t47.5 -18t47 18.5t18 46.5q0 29 -18 47.5t-47 18.5t-47.5 -18.5t-18.5 -47.5z" />
<glyph unicode="&#xe1c;" horiz-adv-x="901" d="M119 78v616q0 53 44 92t107 39t106.5 -38.5t43.5 -92.5q0 -53 -43 -91t-107 -38h-24v-375l149 261q6 10 21.5 15t32.5 5q41 0 53 -20l149 -261v543q0 37 37 63.5t90 26.5v-745q0 -39 -34.5 -64.5t-86.5 -25.5l-208 364l-209 -364q-51 0 -86 25.5t-35 64.5zM205 694 q0 -29 18.5 -47t46.5 -18q29 0 47.5 18.5t18.5 46.5q0 29 -18.5 47.5t-47.5 18.5t-47 -18.5t-18 -47.5z" />
<glyph unicode="&#xe1d;" horiz-adv-x="901" d="M119 78v616q0 53 44 92t107 39t106.5 -38.5t43.5 -92.5q0 -53 -43 -91t-107 -38h-24v-375l149 261q6 10 21.5 15t32.5 5q41 0 53 -20l149 -261v875q0 37 37 62.5t90 25.5v-1075q0 -39 -34.5 -64.5t-86.5 -25.5l-208 364l-209 -364q-51 0 -86 25.5t-35 64.5zM205 694 q0 -29 18.5 -47t46.5 -18q29 0 47.5 18.5t18.5 46.5q0 29 -18.5 47.5t-47.5 18.5t-47 -18.5t-18 -47.5z" />
<glyph unicode="&#xe1e;" horiz-adv-x="1011" d="M59 694q0 53 43 92t107 39q63 0 107 -38.5t44 -92.5v-418l142 386q12 27 59 26q45 0 60 -26l141 -386v457q0 37 37 63.5t88 26.5v-745q0 -39 -35 -64.5t-88 -25.5l-203 549q-53 -137 -102 -274.5t-101 -274.5q-53 0 -89 25.5t-36 64.5v487h-24q-63 0 -106.5 38t-43.5 91z M143 694q0 -29 18.5 -47t47.5 -18t47 18.5t18 46.5q0 29 -18 47.5t-47 18.5t-47.5 -18.5t-18.5 -47.5z" />
<glyph unicode="&#xe1f;" horiz-adv-x="1011" d="M59 694q0 53 43 92t107 39q63 0 107 -38.5t44 -92.5v-418l142 386q12 27 59 26q45 0 60 -26l141 -386v789q0 37 37 62.5t88 25.5v-1075q0 -39 -35 -64.5t-88 -25.5l-203 549q-53 -137 -102 -274.5t-101 -274.5q-53 0 -89 25.5t-36 64.5v487h-24q-63 0 -106.5 38t-43.5 91 zM143 694q0 -29 18.5 -47t47.5 -18t47 18.5t18 46.5q0 29 -18 47.5t-47 18.5t-47.5 -18.5t-18.5 -47.5z" />
<glyph unicode="&#xe20;" horiz-adv-x="933" d="M59 119q0 53 43.5 91t106.5 38q16 0 24 -2v145l-116 148q-2 2 -2 12q0 61 30.5 112.5t79.5 87t111.5 55t126.5 19.5q61 0 123.5 -18.5t112 -54t81 -87t31.5 -114.5v-473q0 -39 -37 -64.5t-90 -25.5v563q0 39 -17.5 73.5t-47 62.5t-70.5 44.5t-86 16.5q-43 0 -83 -15.5 t-69.5 -41t-48 -59.5t-20.5 -71l102 -131q14 -18 14 -27v-284q0 -53 -43 -92t-106 -39t-106.5 39t-43.5 92zM143 119q0 -29 18.5 -47.5t47.5 -18.5t47 18.5t18 47.5t-18 47t-47 18t-47.5 -18t-18.5 -47z" />
<glyph unicode="&#xe21;" horiz-adv-x="964" d="M59 123q0 53 44 93t110 40q18 0 29 -2v311h-25q-63 0 -106 38t-43 91t43 92t106 39t106.5 -38.5t43.5 -92.5v-481q88 -33 168.5 -63.5t179.5 -65.5v649q0 37 36.5 63.5t90.5 26.5v-745q0 -39 -32 -64.5t-79 -25.5l-364 131q-2 -55 -45 -93t-109 -38t-110 39t-44 96z M143 123q0 -29 20.5 -49.5t49.5 -20.5t49.5 20.5t20.5 49.5t-20.5 49.5t-49.5 20.5t-49.5 -20.5t-20.5 -49.5zM152 694q0 -29 18 -47t47 -18t47.5 18.5t18.5 46.5q0 29 -18.5 47.5t-47.5 18.5t-47 -18.5t-18 -47.5z" />
<glyph unicode="&#xe22;" horiz-adv-x="878" d="M80 625q0 33 14.5 67.5t39 64t60 49t78.5 19.5q61 0 105.5 -38.5t44.5 -92.5q0 -53 -44 -90t-106 -37q-14 0 -30.5 2t-32.5 11q23 -96 125 -97h63q29 0 46.5 -12t17.5 -31q0 -16 -17.5 -29.5t-46.5 -13.5q-31 0 -63.5 -7t-61 -24.5t-47 -45t-18.5 -70.5q0 -80 61.5 -132 t149.5 -52q90 0 150.5 52t60.5 132v483q0 37 36.5 63.5t90.5 26.5v-573q0 -57 -27 -105.5t-72 -83t-107.5 -54t-131.5 -19.5q-72 0 -133.5 19.5t-106.5 54t-70.5 83t-25.5 105.5q0 59 28.5 104t82.5 78q-57 35 -85 86t-28 107zM207 694q0 -29 18.5 -47t46.5 -18 q29 0 47.5 18.5t18.5 46.5q0 29 -18.5 47.5t-47.5 18.5t-47 -18.5t-18 -47.5z" />
<glyph unicode="&#xe23;" horiz-adv-x="829" d="M80 592q6 49 31.5 92t66.5 75t94.5 49t114.5 17q72 0 131.5 -24.5t99.5 -63.5l48 88q49 -23 67.5 -54.5t3.5 -59.5l-51 -101q-23 -45 -58.5 -41t-49.5 41q-25 59 -78.5 98.5t-112.5 39.5q-61 0 -108.5 -43t-67.5 -97l395 -96q33 -10 56.5 -34.5t23.5 -53.5v-305 q0 -53 -44 -92t-105 -39q-63 0 -107.5 39t-44.5 92t44.5 91t107.5 38q16 0 24 -2v192q-111 27 -217 54.5t-217 54.5q-20 4 -34.5 16t-12.5 29zM471 119q0 -29 18.5 -47.5t47.5 -18.5t47 18.5t18 47.5t-18.5 47t-46.5 18q-29 0 -47.5 -18t-18.5 -47z" />
<glyph unicode="&#xe24;" horiz-adv-x="897" d="M80 551q0 61 30.5 111.5t80 87t110.5 56t125 19.5q61 0 123.5 -18.5t113 -54t81 -87t30.5 -114.5v-789q0 -39 -37 -64.5t-90 -25.5v879q0 39 -17.5 73.5t-48 62.5t-70.5 44.5t-85 16.5q-43 0 -83 -15.5t-69.5 -41t-48 -59.5t-20.5 -71l71 -135q6 -10 7 -20v-160q6 2 24 2 q61 0 105.5 -38t44.5 -91t-44 -92t-106 -39q-63 0 -107 39t-44 92v276l-70 135q-6 12 -6 21zM242 119q0 -29 18.5 -47.5t46.5 -18.5q29 0 47.5 18.5t18.5 47.5t-18.5 47t-47.5 18t-47 -18t-18 -47z" />
<glyph unicode="&#xe25;" horiz-adv-x="892" d="M80 590q8 55 41 98t81 74t105.5 47t116.5 16q61 0 122.5 -19.5t112 -54t81 -86t30.5 -114.5v-473q0 -39 -37 -64.5t-90 -25.5v272q0 39 -17.5 75t-47 62.5t-69.5 42t-85 15.5q-78 0 -128 -52.5t-54 -142.5v-14q6 2 24 2q63 0 106.5 -38t43.5 -91t-43 -92t-107 -39 q-63 0 -107 39t-44 92v141q0 59 23.5 109.5t65.5 86.5t98 56t122 20q59 0 116.5 -17t102.5 -48v84q0 39 -17.5 73.5t-47 62.5t-69.5 44.5t-85 16.5t-85 -16.5t-70.5 -44.5t-48 -62.5t-17.5 -73.5v-22.5t2 -20.5q-51 0 -90 23.5t-35 58.5zM201 119q0 -29 18.5 -47.5 t46.5 -18.5q29 0 47.5 18.5t18.5 47.5t-18.5 47t-47.5 18t-47 -18t-18 -47z" />
<glyph unicode="&#xe26;" horiz-adv-x="933" d="M59 119q0 53 43.5 91t106.5 38q16 0 24 -2v145l-116 148q-2 2 -2 12q0 61 30.5 112.5t79.5 87t111.5 55t126.5 19.5q61 0 123.5 -18.5t112 -54t81 -87t31.5 -114.5v-789q0 -39 -37 -64.5t-90 -25.5v879q0 39 -17.5 73.5t-47 62.5t-70.5 44.5t-86 16.5q-43 0 -83 -15.5 t-69.5 -41t-48 -59.5t-20.5 -71l102 -131q14 -18 14 -27v-284q0 -53 -43 -92t-106 -39t-106.5 39t-43.5 92zM143 119q0 -29 18.5 -47.5t47.5 -18.5t47 18.5t18 47.5t-18 47t-47 18t-47.5 -18t-18.5 -47z" />
<glyph unicode="&#xe27;" horiz-adv-x="782" d="M47 590q6 51 32.5 95t67.5 75t93.5 48t109.5 17q63 0 120.5 -19.5t98.5 -55t65.5 -87t24.5 -112.5v-432q0 -53 -44 -92t-105 -39q-63 0 -107.5 39t-44.5 92t44.5 91t107.5 38q16 0 25 -2v305q0 41 -14.5 77t-39 62.5t-58.5 42t-73 15.5q-37 0 -69.5 -14.5t-57 -40 t-40 -62.5t-15.5 -80v-22.5t4 -20.5q-51 0 -90 23.5t-35 58.5zM444 119q0 -29 18.5 -47.5t47.5 -18.5t47 18.5t18 47.5t-18 47t-47 18t-47.5 -18t-18.5 -47z" />
<glyph unicode="&#xe28;" horiz-adv-x="937" d="M123 78v473q0 61 30.5 111.5t80 87t111 56t124.5 19.5q66 0 132.5 -21.5t115.5 -62.5q6 16 10 31.5t4 34.5q0 10 -1 17t-5 26q53 0 92 -23.5t35 -56.5q-8 -57 -61 -119q10 -23 18 -49.5t8 -50.5v-473q0 -39 -37 -64.5t-90 -25.5v563q0 10 -2 18q-39 -20 -80 -37 q4 -10 8.5 -24t4.5 -25q0 -53 -46.5 -91t-105.5 -38q-49 0 -80 19l-143 -385q-53 0 -88 25.5t-35 64.5zM248 293l84 242q14 35 51 57t86 22t82 -22q27 10 52.5 26.5t51.5 38.5q-33 41 -83 66t-103 25q-45 0 -85 -16.5t-70.5 -44.5t-48 -62.5t-17.5 -73.5v-258zM403 483 q0 -29 18.5 -47t47.5 -18t47.5 18.5t18.5 46.5q0 29 -18.5 47.5t-47.5 18.5t-47.5 -18.5t-18.5 -47.5z" />
<glyph unicode="&#xe29;" horiz-adv-x="993" d="M59 694q0 53 43 92t107 39q63 0 107 -38.5t44 -92.5v-198q16 29 49 48t76 19q59 0 99.5 -36t40.5 -85q0 -37 -23.5 -63.5t-62.5 -38.5q25 -10 34 -10q33 0 57.5 21.5t39 55t16.5 74.5t-8 80q35 0 65 -10v190q0 37 37 59.5t90 22.5v-561q0 -61 -25.5 -111.5t-68.5 -87 t-101.5 -56t-123.5 -19.5q-63 0 -120.5 19.5t-101.5 56t-70 87t-26 111.5v303h-24q-63 0 -106.5 38t-43.5 91zM143 694q0 -29 18.5 -47t47.5 -18t47 18.5t18 46.5q0 29 -18 47.5t-47 18.5t-47.5 -18.5t-18.5 -47.5zM360 262q0 -86 55.5 -141t135.5 -55q78 0 134 55t58 141 v62q-31 -33 -73.5 -52.5t-96.5 -19.5q-68 0 -128 33.5t-85 89.5v-113zM426 442q0 -25 17.5 -42t41.5 -17q25 0 42.5 17.5t17.5 41.5q0 25 -17.5 42.5t-42.5 17.5t-42 -17.5t-17 -42.5z" />
<glyph unicode="&#xe2a;" horiz-adv-x="892" d="M82 590q8 55 41 98t81 74t105.5 47t116.5 16q68 0 133.5 -21.5t112.5 -62.5q14 29 14 66q0 10 -1 17t-5 26q53 0 92 -23.5t35 -56.5q-6 -55 -62 -117q10 -23 18.5 -50.5t8.5 -51.5v-473q0 -39 -37 -64.5t-90 -25.5v272q0 39 -17.5 75t-47 62.5t-69.5 42t-85 15.5 q-78 0 -128 -52.5t-54 -142.5v-14q6 2 24 2q63 0 106.5 -38t43.5 -91t-43 -92t-107 -39q-63 0 -107 39t-44 92v141q0 57 22.5 106.5t61.5 85t92 57t117 23.5q47 20 103 54.5t99 70.5q-35 41 -84 66t-102 25q-45 0 -85 -16.5t-70.5 -44.5t-48 -62.5t-17.5 -73.5v-22.5 t2 -20.5q-51 0 -90 23.5t-35 58.5zM203 119q0 -29 18.5 -47.5t46.5 -18.5q29 0 47.5 18.5t18.5 47.5t-18.5 47t-47.5 18t-47 -18t-18 -47zM549 512q51 -16 96 -49v88q0 10 1 8t-3 8q-43 -28 -94 -55z" />
<glyph unicode="&#xe2b;" horiz-adv-x="995" d="M59 694q0 53 43 92t107 39q63 0 107 -38.5t44 -92.5v-479l191 338q10 20 25.5 37.5t41.5 34.5q-10 16 -18 34.5t-8 34.5q0 53 43 92t106 39t106.5 -38.5t43.5 -92.5q0 -27 -16.5 -55.5t-43.5 -46.5q41 -45 41 -86v-428q0 -39 -36.5 -64.5t-90.5 -25.5v518q0 23 -8 42 t-26 19q-29 0 -64 -59l-293 -520q-51 0 -86 25.5t-35 64.5v487h-24q-63 0 -106.5 38t-43.5 91zM143 694q0 -29 18.5 -47t47.5 -18t47 18.5t18 46.5q0 29 -18 47.5t-47 18.5t-47.5 -18.5t-18.5 -47.5zM676 694q0 -29 18.5 -47t46.5 -18q29 0 47.5 18.5t18.5 46.5 q0 29 -18.5 47.5t-47.5 18.5t-47 -18.5t-18 -47.5z" />
<glyph unicode="&#xe2c;" horiz-adv-x="1015" d="M59 694q0 53 44 92t106 39q63 0 107 -38.5t44 -92.5v-471l144 301q4 10 20.5 17.5t36.5 7.5t36.5 -7t20.5 -18l148 -305v346h-25q-61 0 -105 38t-44 91t44 92t105 39q47 0 84 -20.5t54 -54.5q6 33 0 73q47 0 87 -23.5t35 -56.5q-10 -47 -39.5 -87t-68.5 -62v-516 q0 -39 -36 -64.5t-89 -25.5l-207 428l-203 -428q-53 0 -89 25.5t-36 64.5v487h-24q-61 0 -105.5 38t-44.5 91zM143 694q0 -29 18.5 -47t47.5 -18t47 18.5t18 46.5q0 29 -18 47.5t-47 18.5t-47.5 -18.5t-18.5 -47.5zM676 694q0 -29 18.5 -47t46.5 -18q29 0 47.5 18.5 t18.5 46.5q0 29 -18.5 47.5t-47.5 18.5t-47 -18.5t-18 -47.5z" />
<glyph unicode="&#xe2d;" horiz-adv-x="899" d="M84 590q8 41 34.5 82t69.5 76q47 35 108.5 56t131.5 21q72 0 133.5 -20.5t106.5 -56.5q53 -43 80.5 -93.5t27.5 -103.5v-289q0 -61 -27.5 -111.5t-73.5 -86t-105.5 -56t-123.5 -20.5q-61 0 -119.5 19.5t-104.5 54t-74.5 86t-28.5 114.5v39q0 31 17.5 73t47 80t70.5 63.5 t88 25.5q61 0 105.5 -39t44.5 -92t-44.5 -89t-105.5 -36q-59 0 -96 30v-16v-39q0 -43 16.5 -80t44 -62.5t64.5 -39.5t75 -14q37 0 74 13t65.5 38.5t46 61.5t17.5 83v289q0 39 -17.5 73.5t-48 62.5t-70.5 44.5t-85 16.5t-85 -16.5t-70.5 -44.5t-48 -62.5t-17.5 -73.5v-22.5 t2 -20.5q-51 0 -90 23.5t-35 58.5zM276 412q0 -29 18.5 -47.5t47.5 -18.5t47.5 18.5t18.5 47.5t-18.5 47t-47.5 18t-47.5 -18t-18.5 -47z" />
<glyph unicode="&#xe2e;" horiz-adv-x="917" d="M106 610q-14 43 9.5 82t72 70t114 48t132.5 17q66 0 131.5 -21.5t114.5 -60.5q16 25 22 50q6 23 3 53q51 2 91 -25.5t31 -62.5q-14 -53 -67 -101q35 -47 35 -108v-289q0 -57 -27 -107.5t-72 -87t-107.5 -58t-131.5 -21.5q-72 0 -133.5 21.5t-107.5 58t-71.5 86 t-25.5 106.5q0 41 17.5 81t48 70.5t70.5 50t87 19.5q61 0 105.5 -37.5t44.5 -91.5q0 -53 -44.5 -90t-105.5 -37q-59 0 -96 31q0 -41 17.5 -76t46 -60.5t66.5 -41t81 -15.5q45 0 83 15.5t66.5 43.5t45 63.5t16.5 76.5v289q0 12 -2 24.5t-7 24.5q-43 -20 -88 -33.5t-86 -23.5 q-33 -8 -81 -15.5t-95 -7.5q-35 0 -67.5 4t-60 14.5t-47 28t-28.5 43.5zM225 637q6 -25 31 -34t57 -9q39 0 79 6t65 12q37 8 77.5 23.5t77.5 38.5q-35 35 -82 55.5t-96 20.5q-41 0 -81 -10.5t-69.5 -26t-47 -36t-11.5 -40.5zM276 352q0 -29 18.5 -47t47.5 -18t47.5 18.5 t18.5 46.5q0 29 -18.5 47.5t-47.5 18.5t-47.5 -18.5t-18.5 -47.5z" />
<glyph unicode="&#xe2f;" horiz-adv-x="821" d="M59 694q0 53 45.5 92t104.5 39q63 0 104 -38.5t41 -92.5q0 -31 -20.5 -60.5t-57.5 -45.5q47 -20 93 -21q80 0 142 63.5t62 194.5q51 0 88 -26.5t37 -63.5v-657q0 -39 -36.5 -64.5t-88.5 -25.5v561q-45 -29 -98 -44.5t-106 -15.5q-43 0 -97.5 13.5t-101.5 39t-79 63.5 t-32 89zM143 694q0 -29 18.5 -47t47.5 -18t47 18.5t18 46.5q0 29 -18 47.5t-47 18.5t-47.5 -18.5t-18.5 -47.5z" />
<glyph unicode="&#xe30;" horiz-adv-x="729" d="M78 223q0 53 44 92t107 39q61 0 103.5 -39t42.5 -92q0 -33 -20.5 -61.5t-53.5 -44.5q14 -4 29.5 -5t25.5 -1q78 0 127 63.5t39 179.5q23 0 45.5 -7t41 -19.5t28.5 -27.5t10 -30q-2 -53 -26.5 -97t-64.5 -74.5t-92 -48t-108 -17.5q-43 0 -92 12t-91 36.5t-68.5 59.5 t-26.5 82zM78 649q0 53 44 92t107 39q61 0 103.5 -39t42.5 -92q0 -31 -20.5 -60.5t-53.5 -45.5q14 -4 29.5 -5t25.5 -1q78 0 127 64.5t39 178.5q23 0 45.5 -7t41 -19.5t28.5 -27.5t10 -30q-2 -53 -26.5 -96t-64.5 -74.5t-92 -49t-108 -17.5q-43 0 -92 12t-91 36.5 t-68.5 59.5t-26.5 82zM164 223q0 -29 18.5 -47t46.5 -18q29 0 47.5 18.5t18.5 46.5q0 29 -18.5 47.5t-47.5 18.5t-47 -18.5t-18 -47.5zM164 649q0 -29 18.5 -47t46.5 -18q29 0 47.5 18.5t18.5 46.5q0 29 -18.5 47.5t-47.5 18.5t-47 -18.5t-18 -47.5z" />
<glyph unicode="&#xe31;" d="M-535 1139q0 53 45.5 91t104.5 38q63 0 105 -38t42 -91q0 -31 -21.5 -61.5t-57.5 -47.5q27 -10 50 -15t42 -5q84 0 144.5 64.5t60.5 193.5q51 0 89.5 -26.5t32.5 -63.5q-4 -43 -27.5 -87t-65.5 -79t-101.5 -57.5t-132.5 -22.5q-43 0 -97.5 13t-101.5 39t-79 64.5 t-32 90.5zM-451 1139q0 -29 18.5 -47.5t47.5 -18.5t47.5 18.5t18.5 47.5t-18.5 47t-47.5 18t-47.5 -18t-18.5 -47z" />
<glyph unicode="&#xe32;" horiz-adv-x="782" d="M47 590q6 51 32.5 95t67.5 75t93.5 48t109.5 17q63 0 120.5 -19.5t98.5 -55t65.5 -87t24.5 -112.5v-473q0 -39 -36.5 -64.5t-87.5 -25.5v563q0 41 -14.5 77t-39 62.5t-58.5 42t-73 15.5q-37 0 -69.5 -14.5t-57 -40t-40 -62.5t-15.5 -80v-22.5t4 -20.5q-51 0 -90 23.5 t-35 58.5z" />
<glyph unicode="&#xe33;" horiz-adv-x="782" d="M-318 1063q0 55 45 93t107 38q61 0 106 -38t45 -93t-45 -93t-106 -38t-106.5 38t-45.5 93zM-242 1063q0 -33 21.5 -56.5t54.5 -23.5t54 23.5t21 56.5t-21.5 56.5t-53.5 23.5q-33 0 -54.5 -23.5t-21.5 -56.5zM47 590q6 51 32.5 95t67.5 75t93.5 48t109.5 17 q63 0 120.5 -19.5t98.5 -55t65.5 -87t24.5 -112.5v-473q0 -39 -36.5 -64.5t-87.5 -25.5v563q0 41 -14.5 77t-39 62.5t-58.5 42t-73 15.5q-37 0 -69.5 -14.5t-57 -40t-40 -62.5t-15.5 -80v-22.5t4 -20.5q-51 0 -90 23.5t-35 58.5z" />
<glyph unicode="&#xe34;" d="M-788 979q0 39 27.5 77t74.5 67.5t107.5 48t127.5 18.5q68 0 128.5 -21.5t106.5 -57.5t72.5 -81t26.5 -90q0 -16 -22.5 -29.5t-53.5 -7.5q-90 25 -188 37t-192 12q-39 0 -77 -2t-73 -6q-27 -4 -46 7.5t-19 27.5zM-664 1010q31 4 67 6t71 2q152 0 286 -41 q-8 27 -29.5 54.5t-50 49t-62.5 34.5t-69 13q-29 0 -60.5 -8t-60 -23.5t-53 -38t-39.5 -48.5z" />
<glyph unicode="&#xe35;" d="M-788 979q0 39 27.5 77t74.5 67.5t107.5 48t127.5 18.5q119 0 205 -57v57q0 35 33 56.5t90 21.5v-283q6 -25 6 -45q0 -16 -22.5 -29.5t-53.5 -7.5q-90 25 -188 37t-192 12q-39 0 -77 -2t-73 -6q-27 -4 -46 7.5t-19 27.5zM-664 1010q31 4 67 6t71 2q152 0 286 -41 q-8 27 -29.5 54.5t-50 49t-62.5 34.5t-69 13q-29 0 -60.5 -8t-60 -23.5t-53 -38t-39.5 -48.5z" />
<glyph unicode="&#xe36;" d="M-788 979q0 39 27.5 77t74.5 67.5t107.5 48t127.5 18.5q53 0 109 -16q10 41 46 67.5t85 26.5q53 0 92 -33t39 -80q0 -35 -21.5 -61.5t-56.5 -40.5q41 -53 41 -113q0 -16 -22.5 -29.5t-53.5 -7.5q-90 25 -188 37t-192 12q-37 0 -76 -2t-74 -6q-27 -4 -46 7.5t-19 27.5z M-664 1010q33 4 68 6t70 2q152 0 286 -41q-8 27 -29.5 54.5t-50 49t-62.5 34.5t-69 13q-59 0 -120.5 -31.5t-92.5 -86.5zM-264 1157q0 -23 15.5 -37t37.5 -14q23 0 37 14.5t14 36.5q0 23 -14 38t-37 15t-38 -15t-15 -38z" />
<glyph unicode="&#xe37;" d="M-788 979q0 39 26.5 77t71.5 67.5t104.5 48t126.5 18.5q10 0 20.5 -1t20.5 -3v10q0 33 30 52.5t81 19.5v-121q33 -16 61 -45v88q0 35 33 56.5t90 21.5v-283q6 -25 6 -45q0 -16 -22.5 -29.5t-53.5 -7.5q-90 25 -188 37t-192 12q-39 0 -77 -2t-73 -6q-27 -4 -46 7.5 t-19 27.5zM-664 1010q31 4 67 6t71 2q152 0 286 -41q-8 27 -29.5 54.5t-50 49t-62.5 34.5t-69 13q-29 0 -60.5 -8t-60 -23.5t-53 -38t-39.5 -48.5z" />
<glyph unicode="&#xe38;" d="M-403 -193q0 47 40.5 83t98.5 36q59 0 100 -35.5t41 -83.5v-167q0 -35 -36 -59.5t-87 -24.5v129l6 4q-8 -2 -24 -2q-57 0 -98 35.5t-41 84.5zM-324 -193q0 -25 17.5 -42t42.5 -17t42 17.5t17 41.5q0 25 -17.5 42.5t-41.5 17.5q-25 0 -42.5 -17.5t-17.5 -42.5z" />
<glyph unicode="&#xe39;" d="M-578 -193q0 47 40 83t100 36q59 0 99 -35.5t40 -83.5v-131q0 -20 7 -34.5t20 -14.5q12 0 19 14.5t7 34.5v164q0 35 36 59.5t87 24.5v-248q0 -49 -42 -84.5t-107 -35.5q-51 0 -97.5 28.5t-50.5 81.5v19l6 4q-8 -2 -24 -2q-59 0 -99.5 35.5t-40.5 84.5zM-498 -193 q0 -25 17.5 -42t42.5 -17t42 17.5t17 41.5q0 25 -17.5 42.5t-41.5 17.5q-25 0 -42.5 -17.5t-17.5 -42.5z" />
<glyph unicode="&#xe3a;" d="M-281 -139q0 29 27 50t68 21t66.5 -21.5t25.5 -49.5q0 -31 -25.5 -52.5t-66.5 -21.5t-68 21.5t-27 52.5z" />
<glyph unicode="&#xe3f;" horiz-adv-x="993" d="M121 45v883q0 20 17.5 32.5t45.5 12.5h215v41q0 74 117 73v-114h66q55 0 104 -21.5t86 -58.5t57.5 -84t20.5 -98q0 -53 -29.5 -109.5t-87.5 -89.5q94 -27 145.5 -93.5t51.5 -152.5q0 -53 -17.5 -101t-52.5 -85t-85 -58.5t-113 -21.5h-146v-41q0 -74 -117 -74v115h-215 q-29 0 -46 13.5t-17 31.5zM250 82h149v364h-149v-364zM250 528h149v365h-149v-365zM516 82h146q59 0 99 48t40 136q0 86 -40 133t-99 47h-146v-364zM516 528h66q29 0 53 16.5t42.5 43t30 59.5t11.5 64q0 33 -11.5 64.5t-30 58t-43 43t-52.5 16.5h-66v-365z" />
<glyph unicode="&#xe40;" horiz-adv-x="479" d="M119 119v616q0 37 37 63.5t90 26.5v-579q6 2 24 2q61 0 105.5 -38t44.5 -91t-44 -92t-106 -39q-63 0 -107 39t-44 92zM205 119q0 -29 18.5 -47.5t46.5 -18.5q29 0 47.5 18.5t18.5 47.5t-18.5 47t-47.5 18t-47 -18t-18 -47z" />
<glyph unicode="&#xe41;" horiz-adv-x="829" d="M119 119v616q0 37 37 63.5t90 26.5v-579q6 2 24 2q61 0 105.5 -38t44.5 -91t-44 -92t-106 -39q-63 0 -107 39t-44 92zM205 119q0 -29 18.5 -47.5t46.5 -18.5q29 0 47.5 18.5t18.5 47.5t-18.5 47t-47.5 18t-47 -18t-18 -47zM469 119v616q0 37 37 63.5t90 26.5v-579 q6 2 24 2q61 0 105.5 -38t44.5 -91t-44 -92t-106 -39q-63 0 -107 39t-44 92zM555 119q0 -29 18.5 -47.5t46.5 -18.5q29 0 47.5 18.5t18.5 47.5t-18.5 47t-47.5 18t-47 -18t-18 -47z" />
<glyph unicode="&#xe42;" horiz-adv-x="620" d="M-20 1122q0 45 21.5 86t58 72t86 49.5t104.5 18.5q53 0 103 -16.5t89 -51.5l35 68q47 -23 64.5 -54.5t5.5 -60.5q-8 -16 -17.5 -36.5t-15.5 -37.5q-12 -23 -27.5 -31t-32 -7t-30.5 11.5t-23 26.5q-20 43 -57 77t-94 34q-59 0 -96 -37t-48 -92q49 -10 99.5 -23.5 t97.5 -23.5q35 -8 58.5 -34t23.5 -59v-755q6 2 25 2q63 0 106 -38t43 -91t-43 -92t-106 -39t-106.5 39t-43.5 92v907l-110 25q-43 10 -80 18t-43 10q-47 10 -47 43zM344 119q0 -29 18.5 -47.5t47.5 -18.5t47 18.5t18 47.5t-18.5 47t-46.5 18q-29 0 -47.5 -18t-18.5 -47z" />
<glyph unicode="&#xe43;" horiz-adv-x="620" d="M43 1116q0 47 19.5 89t54.5 74t80 50.5t98 18.5q51 0 97 -18.5t80 -50.5t53.5 -74t19.5 -89q0 -43 -30 -96t-58 -92q-20 -29 -34.5 -54.5t-23 -52t-11.5 -58.5t-3 -71v-446q7 2 25 2q63 0 106 -38t43 -91t-43 -92t-106 -39t-106.5 39t-43.5 92v573q0 72 26.5 141.5 t75.5 139.5q20 25 40 60.5t20 82.5q0 59 -37 106.5t-90 47.5q-39 0 -70.5 -22.5t-48.5 -57.5q10 2 18.5 3t18.5 1q61 0 105 -34t44 -87t-44 -92t-105 -39q-76 0 -123 52.5t-47 121.5zM147 1073q0 -29 18.5 -47t47.5 -18t47.5 18t18.5 47t-18.5 47.5t-47.5 18.5t-47.5 -18.5 t-18.5 -47.5zM344 119q0 -29 18.5 -47.5t47.5 -18.5t47 18.5t18 47.5t-18.5 47t-46.5 18q-29 0 -47.5 -18t-18.5 -47z" />
<glyph unicode="&#xe44;" horiz-adv-x="618" d="M33 1241q-12 25 2 62.5t49 60.5l141 -227q29 45 60.5 94t60.5 96q8 12 37 21q27 6 45 -13q39 -39 56.5 -82t17.5 -88q0 -33 -26.5 -95t-51.5 -122q-27 -55 -33 -118.5t-6 -137.5v-446q6 2 25 2q63 0 106 -38t43 -91t-43 -92t-106 -39t-106.5 39t-43.5 92v573 q0 72 16.5 150t49.5 141q10 18 21 42t21.5 49.5t16.5 49t6 41.5v27.5t-4 26.5l-115 -187q-12 -20 -53 -20q-39 0 -53 20zM344 119q0 -29 18.5 -47.5t47.5 -18.5t47 18.5t18 47.5t-18.5 47t-46.5 18q-29 0 -47.5 -18t-18.5 -47z" />
<glyph unicode="&#xe45;" horiz-adv-x="782" d="M47 590q6 51 32.5 95t67.5 75t93.5 48t109.5 17q63 0 120.5 -19.5t98.5 -55t65.5 -87t24.5 -112.5v-789q0 -39 -36.5 -64.5t-87.5 -25.5v879q0 41 -14.5 77t-39 62.5t-58.5 42t-73 15.5q-37 0 -69.5 -14.5t-57 -40t-40 -62.5t-15.5 -80v-22.5t4 -20.5q-51 0 -90 23.5 t-35 58.5z" />
<glyph unicode="&#xe46;" horiz-adv-x="806" d="M80 504v86q0 59 21.5 101t43.5 69q59 66 140 65q31 0 45 -14q6 -8 14 -16q14 -16 37 -37q10 10 19.5 18t17.5 17l18 18q14 14 43 14q37 0 74 -18.5t63 -46.5q23 -25 45.5 -70t22.5 -100v-828q0 -37 -37 -63.5t-88 -26.5v918q0 45 -11 78.5t-24 48.5l-24 24 q-10 -10 -22.5 -22t-24.5 -23q-14 -12 -29 -26q-16 -16 -43 -16.5t-43 16.5l-72 71q-6 -4 -11 -10t-13 -14q-8 -10 -19.5 -34t-19.5 -56q8 2 26 2q63 0 106.5 -36t43.5 -89t-43 -91t-107 -38q-59 0 -104 38t-45 91zM164 504q0 -29 18.5 -47.5t46.5 -18.5q29 0 47.5 18.5 t18.5 47.5t-18.5 47t-47.5 18t-47 -18t-18 -47z" />
<glyph unicode="&#xe47;" d="M-672 1126q0 43 21.5 78t55.5 58.5t78 36t87 12.5h139q89 -1 144 108q41 -31 47 -66.5t-17 -58.5q-29 -29 -75 -39t-99 -10h-139q-59 0 -97 -37t-38 -82q0 -41 7 -64.5t28 -41.5q2 25 19 48.5t44 31.5q51 14 55 -25q4 -41 30 -63.5t73 -20.5q-33 14 -49.5 41t-16.5 51 q0 45 36 77t89 32t90 -32t37 -79q0 -37 -16.5 -64.5t-41 -46t-54 -27.5t-56.5 -9q-59 0 -103 21.5t-67 68.5q-4 -31 15 -53q10 -14 -1.5 -25.5t-35.5 -11.5q-35 0 -69 13.5t-60.5 39t-43 61t-16.5 78.5zM-301 1081q0 -20 14.5 -35.5t36.5 -15.5q23 0 37 15.5t14 35.5 q0 23 -14 37.5t-37 14.5t-37 -14.5t-14 -37.5z" />
<glyph unicode="&#xe48;" d="M-240 1290v263q0 70 117 70v-262q0 -71 -117 -71z" />
<glyph unicode="&#xe49;" d="M-438 1519q0 45 36 74t87 29q48 0 85 -29t37 -74q0 -72 -27.5 -115t-48.5 -61q47 9 88.5 35t63.5 54q19 24 27 57.5t8 70.5q0 30 -6 62h16q37 0 64 -18.5t27 -53.5q0 -106 -76 -180q-50 -46 -124 -64t-181 -18q-27 0 -36 20.5t14 32.5q16 9 37 27t32 43q-50 0 -86.5 31 t-36.5 77zM-368 1519q0 -22 15.5 -37.5t37.5 -15.5t37 15.5t15 37.5t-15.5 37t-36.5 15q-22 0 -37.5 -15t-15.5 -37z" />
<glyph unicode="&#xe4a;" d="M-525 1403q-3 31 5.5 62.5t28 56.5t49.5 41t73 16q26 0 44.5 -5.5t32.5 -22.5q30 28 80 28q65 0 106 -36.5t41 -92.5q0 -39 -4.5 -63.5t-16.5 -43.5q16 16 28 35.5t21 36.5q11 24 18 49.5t7 57.5q0 26 -6 57q43 0 72 -18t29 -51q0 -98 -70 -169q-26 -26 -75.5 -52 t-103.5 -26q-16 0 -29 10t0 24q26 26 33 58t7 81q0 41 -15.5 68t-41.5 27q-14 0 -29.5 -12.5t-24.5 -31.5q-9 -17 -26.5 -16.5t-26.5 16.5q-9 20 -23 32t-27 12q-28 0 -45.5 -23t-20.5 -58q11 3 22 5t22 2q48 0 81 -25.5t33 -69.5q0 -42 -33 -70.5t-81 -28.5q-28 0 -52 13 t-40.5 32.5t-28 44.5t-13.5 50zM-441 1362q0 -20 14.5 -34.5t35.5 -14.5t35.5 15t14.5 34q0 21 -15 36t-35 15q-21 0 -35.5 -15t-14.5 -36z" />
<glyph unicode="&#xe4b;" d="M-367 1383q0 70 85 70h51v53q0 71 109 71v-124h134q0 -70 -84 -70h-50v-58q0 -70 -109 -69v127h-136z" />
<glyph unicode="&#xe4c;" d="M-372 1324q-7 48 19 98.5t98 83.5q52 26 85.5 56.5t54.5 89.5q34 -18 49.5 -48t-0.5 -53q-21 -32 -67 -55.5t-95 -44.5q-9 -4 -18 -14.5t-13 -19.5h20q48 0 83.5 -28t35.5 -71q0 -42 -35.5 -72.5t-83.5 -30.5q-49 0 -87 31t-46 78zM-288 1318q0 -20 14.5 -35t34.5 -15 q21 0 35.5 15t14.5 35q0 21 -14.5 35.5t-35.5 14.5q-20 0 -34.5 -14.5t-14.5 -35.5z" />
<glyph unicode="&#xe4d;" d="M-338 1063q0 55 45 93t107 38q61 0 106 -38t45 -93t-45 -93t-106 -38t-106.5 38t-45.5 93zM-262 1063q0 -33 21.5 -56.5t54.5 -23.5t54 23.5t21 56.5t-21.5 56.5t-53.5 23.5q-33 0 -54.5 -23.5t-21.5 -56.5z" />
<glyph unicode="&#xe4e;" d="M-440 1030q0 18 6 37q10 29 38.5 57.5t69.5 46.5h-6q-12 12 -18 28t-6 28q0 31 17 56.5t45 45t61.5 29.5t66.5 10q47 0 82 -19.5t43 -50.5q4 -20 -19.5 -33.5t-52.5 -9.5q0 23 -17 39.5t-36 16.5q-33 0 -56.5 -23.5t-33.5 -50.5q-4 -20 6 -35.5t27 -13.5q12 0 25.5 -5 t11.5 -16q-2 -10 -12.5 -15t-22.5 -5q-16 -2 -38 -10.5t-40 -21.5t-30.5 -34.5t-12.5 -50.5q0 -23 17.5 -38t35.5 -15q39 0 73 23.5t56 54.5q20 -12 31.5 -35t5.5 -33q-18 -37 -68.5 -52t-97.5 -15q-27 0 -54.5 7t-49 20.5t-34.5 33.5t-13 49z" />
<glyph unicode="&#xe4f;" horiz-adv-x="976" d="M121 336q0 137 106 244q106 102 260 102q152 0 258 -102q111 -111 111 -244q0 -139 -111 -246q-102 -102 -258 -102q-158 0 -260 102q-106 104 -106 246zM213 336q0 -115 81 -196t193 -81q115 0 195 82t80 195q0 115 -80 194.5t-195 79.5q-113 0 -193.5 -79.5 t-80.5 -194.5zM262 336q0 43 17.5 80t48 64.5t71.5 44t88 16.5t88 -16.5t72 -44t48.5 -64.5t17.5 -80t-17.5 -81t-48.5 -66.5t-71.5 -45t-88.5 -16.5q-47 0 -88 16.5t-71.5 45t-48 66.5t-17.5 81zM356 336q0 -55 38 -93t93 -38t93 38t38 93q0 53 -37.5 92t-93.5 39 q-55 0 -93 -39t-38 -92z" />
<glyph unicode="&#xe50;" horiz-adv-x="985" d="M121 307q0 66 28.5 123t79 100t116.5 69t144 26q76 0 144.5 -26t119 -69t80 -100t29.5 -123t-29.5 -124t-80 -101t-119 -68.5t-144.5 -25.5q-78 0 -144 25.5t-116.5 68.5t-79 101.5t-28.5 123.5zM246 305q0 -51 19.5 -95t52 -76t77.5 -50t94 -18q51 0 95.5 18t78 50 t53 76t19.5 95q0 49 -19.5 93t-53 77t-77.5 52.5t-96 19.5q-49 0 -94 -19.5t-77.5 -52.5t-52 -77t-19.5 -93z" />
<glyph unicode="&#xe51;" horiz-adv-x="985" d="M121 291q0 74 28.5 134t77.5 105t118 70t149 25q78 0 145.5 -30t116.5 -81t77.5 -119.5t28.5 -146.5q0 -49 -16.5 -97.5t-46 -92.5t-70.5 -79.5t-90 -60.5q-41 -18 -80 -1t-49 56q33 6 43 11q37 12 69.5 38.5t58.5 62.5t40 78t14 85q0 57 -16.5 110.5t-48 95.5 t-76.5 67.5t-100 25.5q-49 0 -94.5 -18.5t-79 -51.5t-54 -81t-20.5 -105q0 -72 33 -113q-4 10 -5 31q0 53 46.5 92t105.5 39q66 0 110 -39t44 -92q0 -37 -18.5 -65.5t-49.5 -48t-68.5 -30t-76.5 -10.5q-53 0 -97 17q-72 29 -110.5 87t-38.5 132zM360 209q0 -29 18.5 -47.5 t47.5 -18.5t47.5 18.5t18.5 47.5t-18.5 47t-47.5 18t-47.5 -18t-18.5 -47z" />
<glyph unicode="&#xe52;" horiz-adv-x="985" d="M27 731q31 35 74.5 38t72.5 -30q72 -88 72 -219v-266q0 -49 23.5 -84t60.5 -58.5t80 -34.5t82 -11t81.5 11t79.5 34.5t60.5 58.5t23.5 84v160q0 16 -3 36.5t-10 40t-18.5 37t-29.5 25.5l-62 -64q-14 -16 -39.5 -16t-42.5 16l-67 68q-20 -10 -37.5 -41t-17.5 -78q8 2 26 2 q66 0 110 -39t44 -92q0 -55 -44 -94t-110 -39q-59 0 -105 39t-46 94v105q0 37 15 73.5t42 67.5t63.5 50.5t81.5 19.5q29 0 41 -13l45 -45l43 45q12 12 43 13q31 0 67 -14.5t66.5 -41t51 -65.5t20.5 -90v-160q0 -66 -34.5 -115t-90 -82.5t-121 -51t-126.5 -17.5t-128 17.5 t-121.5 51t-89 82.5t-34.5 115v266q0 61 -18.5 118.5t-73.5 92.5zM371 309q0 -29 18.5 -47t46.5 -18q29 0 47.5 18.5t18.5 46.5q0 29 -18.5 47.5t-47.5 18.5t-47 -18.5t-18 -47.5z" />
<glyph unicode="&#xe53;" horiz-adv-x="985" d="M74 264q-4 125 47 225q33 66 89 101t126 35q45 0 85 -14.5t68 -37.5q29 23 70 37.5t84 14.5q45 0 85 -13.5t69.5 -37t47 -55.5t17.5 -68v-373q0 -39 -37 -64.5t-90 -25.5v463q0 37 -27.5 66.5t-64.5 29.5q-35 0 -62.5 -30t-27.5 -66v-205q0 -16 -17.5 -29.5t-46.5 -13.5 q-25 0 -44 13t-19 30v205q0 37 -26.5 66.5t-63.5 29.5q-35 0 -59.5 -33t-40.5 -63q-23 -47 -32 -103.5t-3 -109.5q31 14 71 14q61 0 106.5 -39t45.5 -92q0 -55 -45 -94t-107 -39q-43 0 -75.5 15t-51.5 42q-31 45 -49 100.5t-22 118.5zM207 121q0 -29 18.5 -47.5t46.5 -18.5 q29 0 47.5 18.5t18.5 47.5t-18.5 47t-47.5 18t-47 -18t-18 -47z" />
<glyph unicode="&#xe54;" horiz-adv-x="985" d="M121 305q0 63 25.5 119.5t70.5 98.5t106.5 65.5t131.5 23.5h200q59 0 111.5 46t87.5 122q51 -18 65.5 -59t-8.5 -70q-53 -61 -117.5 -88.5t-138.5 -27.5h-200q-41 0 -79 -18.5t-66.5 -49.5t-46 -73t-17.5 -89t17.5 -89t46 -72.5t66.5 -48t79 -17.5h69q-66 33 -104.5 91 t-38.5 136q0 55 44 93t110 38t108.5 -38t42.5 -93q0 -53 -41 -91t-102 -42q43 -47 102.5 -66.5t112.5 -19.5q41 0 71.5 -25.5t32.5 -60.5h-407q-70 0 -131.5 22.5t-106.5 63.5t-70.5 96.5t-25.5 122.5zM469 305q0 -29 18.5 -47t47.5 -18t47 18t18 47t-18.5 47.5t-46.5 18.5 q-29 0 -47.5 -18.5t-18.5 -47.5z" />
<glyph unicode="&#xe55;" horiz-adv-x="985" d="M121 305q0 57 21.5 108.5t58.5 91.5t88 65.5t110 35.5q-16 31 -16 60q0 55 43 94t109 39t108.5 -39t42.5 -94q0 -27 -12 -52q55 12 105 59.5t79 108.5q39 -25 57.5 -63.5t-4.5 -67.5q-53 -61 -117.5 -88.5t-138.5 -27.5h-200q-41 0 -79 -18.5t-66.5 -49.5t-46 -73 t-17.5 -89t17.5 -89t46 -72.5t66.5 -48t79 -17.5h69q-66 33 -104.5 91t-38.5 136q0 55 44 93t110 38t108.5 -38t42.5 -93q0 -53 -41 -91t-102 -42q43 -47 102.5 -66.5t112.5 -19.5q41 0 71.5 -25.5t32.5 -60.5h-407q-70 0 -131.5 22.5t-106.5 63.5t-70.5 96t-25.5 123z M469 305q0 -29 18.5 -47t47.5 -18t47 18t18 47t-18.5 47.5t-46.5 18.5q-29 0 -47.5 -18.5t-18.5 -47.5zM469 666q0 -29 18.5 -47.5t47.5 -18.5t47 18.5t18 47.5t-18.5 47t-46.5 18q-29 0 -47.5 -18t-18.5 -47z" />
<glyph unicode="&#xe56;" horiz-adv-x="985" d="M63 723q23 33 61 42t79 -15h4q90 -76 117 -164q35 16 78.5 27.5t86.5 11.5q76 0 144.5 -26t119 -69t80 -101t29.5 -124t-25.5 -124t-70.5 -101t-107.5 -67.5t-136.5 -24.5q-57 0 -112.5 17.5t-98.5 48t-69.5 72.5t-26.5 93q0 66 41 113t115 47q66 0 109.5 -39t43.5 -94 q0 -53 -43 -88t-106 -37q51 -55 147 -55q45 0 84 17t67.5 50t45 76t16.5 96q0 47 -19.5 91t-53 78t-77.5 53.5t-96 19.5q-43 0 -90 -22.5t-82 -57.5q-8 -8 -19 -14.5t-32 -1.5q-41 6 -43 26q-4 23 -6 34t-6 34q-12 59 -53 107t-95 71zM305 246q0 -29 18.5 -47.5t47.5 -18.5 t47 18.5t18 47.5t-18.5 47t-46.5 18q-29 0 -47.5 -18t-18.5 -47z" />
<glyph unicode="&#xe57;" horiz-adv-x="985" d="M76 307q0 59 13 116.5t41 101.5t73 72t106 28q37 0 71 -10.5t56 -26.5q45 37 127 37q39 0 74 -12.5t60.5 -32t41 -47t15.5 -58.5v-350q18 23 32.5 55.5t14.5 67.5v272q0 131 71 219q29 33 72 30t76 -38q-55 -35 -74.5 -92t-19.5 -119v-272q0 -43 -17.5 -84t-47.5 -75 t-69.5 -60.5t-82.5 -40.5q-31 -10 -54.5 3t-25.5 40v444q0 25 -19.5 48.5t-46.5 23.5t-45 -23.5t-18 -48.5v-164q0 -18 -19.5 -30.5t-44.5 -12.5q-27 0 -44 12.5t-17 30.5v164q0 25 -19.5 48.5t-46.5 23.5q-33 0 -53 -25.5t-32.5 -63.5t-17.5 -84t-5 -87v-23.5t2 -23.5 q31 12 69 12q66 0 109 -39t43 -92q0 -55 -43 -94t-109 -39q-41 0 -74.5 15t-50.5 42q-33 47 -52 116.5t-19 145.5zM207 121q0 -29 18.5 -47.5t46.5 -18.5q29 0 47.5 18.5t18.5 47.5t-18.5 47t-47.5 18t-47 -18t-18 -47z" />
<glyph unicode="&#xe58;" horiz-adv-x="985" d="M121 305q0 63 25.5 119.5t70.5 98.5t106.5 65.5t131.5 23.5h200q59 0 111.5 46t87.5 120q27 -8 43 -24.5t22.5 -35t4.5 -36.5t-13 -31q-53 -61 -117.5 -88.5t-138.5 -27.5h-200q-41 0 -79 -18.5t-66.5 -49.5t-46 -73t-17.5 -89q0 -49 13 -103.5t44 -90.5q8 39 33.5 71.5 t69.5 55.5q63 23 77 -25q16 -59 66.5 -103t105.5 -44q31 0 52 28q-61 0 -104.5 39t-43.5 92q0 55 44 94t106 39q66 0 109.5 -38.5t43.5 -94.5q0 -68 -23.5 -111.5t-47.5 -70.5q-31 -31 -69 -43t-67 -12q-74 0 -135 31.5t-100 93.5q-16 -43 0 -80q8 -16 -3 -30.5t-40 -14.5 q-63 0 -111.5 28.5t-80 74.5t-48 102.5t-16.5 111.5zM643 225q0 -29 18.5 -47t47.5 -18t47 18.5t18 46.5q0 29 -18.5 47.5t-46.5 18.5q-29 0 -47.5 -18.5t-18.5 -47.5z" />
<glyph unicode="&#xe59;" horiz-adv-x="985" d="M121 305q0 63 22.5 120.5t59.5 101.5t87 71t105 27q96 0 158 -50q25 20 56.5 35t66.5 15q78 0 127 -35q20 37 21 84t-11 90q53 0 91 -22.5t38 -57.5q-2 -88 -42 -138t-79 -67q-25 -10 -45 -1t-31 22q-14 18 -31.5 32.5t-37.5 14.5q-14 0 -29.5 -17.5t-19.5 -37.5 q23 -39 34 -68t25 -62q35 -86 73 -165.5t87 -139.5q10 -14 8 -32.5t-14 -28.5q-20 -16 -47 -14t-43 22q-63 78 -104.5 163t-76.5 173q-12 33 -28.5 69.5t-37 67.5t-47 50.5t-61.5 19.5t-62.5 -24.5t-47 -61.5t-29.5 -79t-10 -77q0 -66 21.5 -125t72.5 -92q-29 35 -29 72 q0 53 44 93t108 40q66 0 109.5 -40t43.5 -93q0 -35 -17 -66t-47 -54.5t-66.5 -37.5t-75.5 -14q-68 0 -122.5 26.5t-91 70.5t-56 101.5t-19.5 118.5zM397 160q0 -29 18.5 -47.5t47.5 -18.5t47 18.5t18 47.5t-18 47t-47 18t-47.5 -18t-18.5 -47z" />
<glyph unicode="&#xe5a;" horiz-adv-x="1050" d="M61 698q0 53 45.5 92t104.5 39q63 0 104 -38.5t41 -92.5q0 -31 -20.5 -60.5t-56.5 -45.5q47 -20 92 -21q80 0 142 63.5t62 194.5q51 0 88 -26.5t37 -63.5v-135q45 29 74 84t29 137q53 0 89 -26.5t36 -63.5v-657q0 -39 -36 -64.5t-89 -25.5v563q-23 -14 -48.5 -25.5 t-54.5 -19.5v-424q0 -39 -36.5 -64.5t-88.5 -25.5v561q-45 -29 -98 -44t-106 -15q-43 0 -97.5 13t-101.5 38.5t-79 63.5t-32 89zM145 698q0 -29 18.5 -47t47.5 -18t47 18.5t18 46.5q0 29 -18 47.5t-47 18.5t-47.5 -18.5t-18.5 -47.5z" />
<glyph unicode="&#xe5b;" horiz-adv-x="1468" d="M156 412q0 156 68.5 239.5t195.5 83.5q102 0 161.5 -57t59.5 -156q0 -80 -39 -147h2q-39 -76 -145 -76q-53 0 -94 35t-41 80q0 49 37.5 82.5t97.5 33.5q39 0 63 -12q0 6 1 10t1 11q0 125 -98 125q-72 0 -111 -70t-39 -193q0 -113 49.5 -177t127.5 -64q109 0 166 87 t57 245q0 68 -8 106q127 -25 172 -127v14q0 23 -5.5 50.5t-15.5 62.5q106 -31 164 -121v4q0 23 -12 88q104 -31 151 -114v2q0 12 -2 28.5t-6 36.5q61 -12 125 -61q37 -29 58.5 -39t56.5 -14l18 -7q-14 -25 -69 -24q-59 0 -103 24q-16 -66 -67 -84q-23 0 -42.5 16.5 t-29.5 51.5q-2 2 -2 6q-14 -94 -72 -94q-39 0 -59 76l-4 12q-12 -53 -36 -82t-57 -29q-35 0 -55 82l-4 9q-43 -279 -319 -279q-139 0 -218 88t-79 238zM403 414q0 -23 16.5 -39.5t39.5 -16.5t39 16.5t16 39.5t-16.5 39t-38.5 16q-23 0 -39.5 -16t-16.5 -39z" />
<glyph unicode="&#x2000;" horiz-adv-x="826" />
<glyph unicode="&#x2001;" horiz-adv-x="1652" />
<glyph unicode="&#x2002;" horiz-adv-x="826" />
<glyph unicode="&#x2003;" horiz-adv-x="1652" />
<glyph unicode="&#x2004;" horiz-adv-x="550" />
<glyph unicode="&#x2005;" horiz-adv-x="413" />
<glyph unicode="&#x2006;" horiz-adv-x="275" />
<glyph unicode="&#x2007;" horiz-adv-x="275" />
<glyph unicode="&#x2008;" horiz-adv-x="206" />
<glyph unicode="&#x2009;" horiz-adv-x="330" />
<glyph unicode="&#x200a;" horiz-adv-x="91" />
<glyph unicode="&#x200c;" horiz-adv-x="40" d="M-39 422q0 74 119 74v-1049q0 -74 -119 -74v1049z" />
<glyph unicode="&#x200d;" horiz-adv-x="40" d="M-113 299l78 80q-16 16 -38.5 37.5t-39.5 40.5l58 53l75 -78l78 78l56 -53l-78 -78l78 -80l-58 -51l-16 18v-819q0 -74 -119 -74v893l-18 -18z" />
<glyph unicode="&#x200e;" horiz-adv-x="40" d="M-37 422h273q-8 8 -15.5 16t-13.5 17l49 53l127 -125l-129 -129l-47 57l29 31h-156v-895q0 -74 -117 -74v1049z" />
<glyph unicode="&#x200f;" horiz-adv-x="40" d="M-342 383l127 125l49 -53l-29 -33h273v-975q0 -74 -117 -74v969h-156l29 -31l-47 -57z" />
<glyph unicode="&#x2010;" horiz-adv-x="522" d="M57 367q0 80 95 79h311q0 -80 -94 -79h-312z" />
<glyph unicode="&#x2011;" horiz-adv-x="522" d="M57 367q0 80 95 79h311q0 -80 -94 -79h-312z" />
<glyph unicode="&#x2012;" horiz-adv-x="522" d="M57 367q0 80 95 79h311q0 -80 -94 -79h-312z" />
<glyph unicode="&#x2013;" horiz-adv-x="860" d="M59 367q0 35 26 57t71 22h643q0 -37 -27 -58t-72 -21h-641z" />
<glyph unicode="&#x2014;" horiz-adv-x="1546" d="M59 369q0 76 95 75h1327q0 -76 -95 -75h-1327z" />
<glyph unicode="&#x2018;" horiz-adv-x="358" d="M86 712q0 59 10.5 102.5t26.5 73t36.5 50t39.5 37.5q14 10 35.5 9t33.5 -14q-80 -70 -82 -178q43 0 72 -22.5t29 -57.5t-29 -57t-72 -22t-71.5 22.5t-28.5 56.5z" />
<glyph unicode="&#x2019;" horiz-adv-x="358" d="M78 912q0 35 29 57t72 22t71.5 -22.5t28.5 -56.5q0 -59 -10.5 -102.5t-26.5 -73t-36.5 -50t-39.5 -37.5q-14 -10 -35.5 -9t-33.5 14q80 70 82 178q-43 0 -72 22.5t-29 57.5z" />
<glyph unicode="&#x201a;" horiz-adv-x="358" d="M78 68q0 35 29 57t72 22t71.5 -22.5t28.5 -56.5q0 -59 -10.5 -102.5t-26.5 -73t-36.5 -50t-39.5 -37.5q-14 -10 -35.5 -9t-33.5 14q80 70 82 178q-43 0 -72 22.5t-29 57.5z" />
<glyph unicode="&#x201c;" horiz-adv-x="614" d="M88 712q0 59 10.5 102.5t26.5 73t36.5 50t39.5 37.5q14 10 35.5 9t33.5 -14q-80 -70 -82 -178q43 0 72 -22.5t29 -57.5t-29 -57t-72 -22t-71.5 22.5t-28.5 56.5zM344 712q0 59 10.5 102.5t26.5 73t36.5 50t39.5 37.5q14 10 35.5 9t33.5 -14q-80 -70 -82 -178 q43 0 72 -22.5t29 -57.5t-29 -57t-72 -22t-71.5 22.5t-28.5 56.5z" />
<glyph unicode="&#x201d;" horiz-adv-x="614" d="M78 912q0 35 29 57t72 22t71.5 -22.5t28.5 -56.5q0 -59 -10.5 -102.5t-26.5 -73t-36.5 -50t-39.5 -37.5q-14 -10 -35.5 -9t-33.5 14q80 70 82 178q-43 0 -72 22.5t-29 57.5zM334 912q0 35 29 57t72 22t71.5 -22.5t28.5 -56.5q0 -59 -10.5 -102.5t-26.5 -73t-36.5 -50 t-39.5 -37.5q-14 -10 -35.5 -9t-33.5 14q80 70 82 178q-43 0 -72 22.5t-29 57.5z" />
<glyph unicode="&#x201e;" horiz-adv-x="614" d="M78 68q0 35 29 57t72 22t71.5 -22.5t28.5 -56.5q0 -59 -10.5 -102.5t-26.5 -73t-36.5 -50t-39.5 -37.5q-14 -10 -35.5 -9t-33.5 14q80 70 82 178q-43 0 -72 22.5t-29 57.5zM334 68q0 35 29 57t72 22t71.5 -22.5t28.5 -56.5q0 -59 -10.5 -102.5t-26.5 -73t-36.5 -50 t-39.5 -37.5q-14 -10 -35.5 -9t-33.5 14q80 70 82 178q-43 0 -72 22.5t-29 57.5z" />
<glyph unicode="&#x2020;" horiz-adv-x="823" d="M80 580v82q23 0 57.5 -1.5t57.5 -1.5q47 -2 78.5 -3t76.5 -1v83t-2 93q0 47 -1 94.5t-1 84.5h127v-84t-2 -95q-2 -49 -3 -93t-1 -83q41 0 80 1t80 3q23 0 58.5 1.5t57.5 1.5v-82q-63 4 -137 5t-139 3q0 -180 1 -308t2 -217.5t2 -145.5t1 -93h-127q0 37 1 93t2 145.5 t1 216.5v309q-63 0 -137 -2t-133 -6z" />
</font>
</defs>
</svg>
